<svg width="28" height="28" viewBox="0 0 28 28" fill="none" xmlns="http://www.w3.org/2000/svg">
<path d="M21.875 24.7188H15.8834C16.9492 23.8055 17.9475 22.8164 18.8705 21.7591C21.8378 18.3466 23.4062 14.7591 23.4062 11.375C23.4062 8.88031 22.4152 6.48779 20.6512 4.72378C18.8872 2.95976 16.4947 1.96875 14 1.96875C11.5053 1.96875 9.11279 2.95976 7.34878 4.72378C5.58476 6.48779 4.59375 8.88031 4.59375 11.375C4.59375 14.7558 6.16219 18.3466 9.12953 21.7591C10.0525 22.8164 11.0508 23.8055 12.1166 24.7188H6.125C5.95095 24.7188 5.78403 24.7879 5.66096 24.911C5.53789 25.034 5.46875 25.201 5.46875 25.375C5.46875 25.549 5.53789 25.716 5.66096 25.839C5.78403 25.9621 5.95095 26.0312 6.125 26.0312H21.875C22.049 26.0312 22.216 25.9621 22.339 25.839C22.4621 25.716 22.5312 25.549 22.5312 25.375C22.5312 25.201 22.4621 25.034 22.339 24.911C22.216 24.7879 22.049 24.7188 21.875 24.7188ZM5.90625 11.375C5.90625 9.2284 6.75898 7.16973 8.27685 5.65185C9.79473 4.13398 11.8534 3.28125 14 3.28125C16.1466 3.28125 18.2053 4.13398 19.7231 5.65185C21.241 7.16973 22.0938 9.2284 22.0938 11.375C22.0938 17.8959 15.6406 23.2892 14 24.5558C12.3594 23.2892 5.90625 17.8959 5.90625 11.375ZM18.1562 11.375C18.1562 10.553 17.9125 9.7494 17.4558 9.06591C16.9991 8.38242 16.35 7.8497 15.5905 7.53513C14.8311 7.22055 13.9954 7.13824 13.1892 7.29861C12.3829 7.45898 11.6423 7.85483 11.0611 8.43609C10.4798 9.01735 10.084 9.75792 9.92361 10.5642C9.76324 11.3704 9.84555 12.2061 10.1601 12.9655C10.4747 13.725 11.0074 14.3741 11.6909 14.8308C12.3744 15.2875 13.178 15.5312 14 15.5312C15.1023 15.5312 16.1595 15.0934 16.9389 14.3139C17.7184 13.5345 18.1562 12.4773 18.1562 11.375ZM11.1562 11.375C11.1562 10.8126 11.323 10.2627 11.6355 9.7951C11.948 9.32745 12.3921 8.96295 12.9117 8.74772C13.4314 8.53248 14.0032 8.47616 14.5548 8.58589C15.1064 8.69562 15.6131 8.96646 16.0108 9.36417C16.4085 9.76187 16.6794 10.2686 16.7891 10.8202C16.8988 11.3718 16.8425 11.9436 16.6273 12.4633C16.412 12.9829 16.0476 13.427 15.5799 13.7395C15.1123 14.052 14.5624 14.2188 14 14.2188C13.2458 14.2188 12.5225 13.9191 11.9892 13.3858C11.4559 12.8525 11.1562 12.1292 11.1562 11.375Z" fill="#D9954C"/>
</svg>
