<svg width="28" height="28" viewBox="0 0 28 28" fill="none" xmlns="http://www.w3.org/2000/svg">
<path d="M24.5 5.46875H3.5C3.32595 5.46875 3.15903 5.53789 3.03596 5.66096C2.91289 5.78403 2.84375 5.95095 2.84375 6.125V21C2.84375 21.4061 3.00508 21.7956 3.29224 22.0828C3.57941 22.3699 3.96889 22.5312 4.375 22.5312H23.625C24.0311 22.5312 24.4206 22.3699 24.7078 22.0828C24.9949 21.7956 25.1562 21.4061 25.1562 21V6.125C25.1562 5.95095 25.0871 5.78403 24.964 5.66096C24.841 5.53789 24.674 5.46875 24.5 5.46875ZM14 14.8597L5.18656 6.78125H22.8134L14 14.8597ZM11.1202 14L4.15625 20.3831V7.61687L11.1202 14ZM12.0914 14.8903L13.5625 16.2334C13.6835 16.3441 13.8415 16.4055 14.0055 16.4055C14.1694 16.4055 14.3275 16.3441 14.4484 16.2334L15.9141 14.8903L22.8134 21.2188H5.18766L12.0914 14.8903ZM16.8798 14L23.8438 7.61687V20.3831L16.8798 14Z" fill="#D9954C"/>
</svg>
