<svg width="28" height="28" viewBox="0 0 28 28" fill="none" xmlns="http://www.w3.org/2000/svg">
<path d="M15.9906 5.08036C16.0129 4.99702 16.0513 4.91888 16.1037 4.85041C16.1562 4.78194 16.2216 4.72447 16.2962 4.6813C16.3709 4.63813 16.4533 4.6101 16.5388 4.59881C16.6243 4.58752 16.7112 4.5932 16.7945 4.61551C18.3796 5.02897 19.8258 5.85753 20.9841 7.01583C22.1424 8.17414 22.9709 9.6203 23.3844 11.2054C23.4067 11.2887 23.4124 11.3756 23.4011 11.4611C23.3898 11.5466 23.3618 11.629 23.3186 11.7037C23.2754 11.7783 23.218 11.8437 23.1495 11.8962C23.081 11.9486 23.0029 11.987 22.9195 12.0093C22.8642 12.0239 22.8072 12.0313 22.75 12.0311C22.6054 12.0312 22.4649 11.9836 22.3501 11.8955C22.2354 11.8075 22.153 11.6841 22.1156 11.5444C21.7607 10.1829 21.0491 8.94068 20.0541 7.94576C19.0592 6.95084 17.817 6.23923 16.4555 5.88426C16.3721 5.86204 16.294 5.82362 16.2255 5.77118C16.1571 5.71874 16.0996 5.65332 16.0564 5.57866C16.0133 5.504 15.9852 5.42156 15.9739 5.33606C15.9626 5.25055 15.9683 5.16366 15.9906 5.08036ZM15.5805 9.38426C17.1719 9.80864 18.1913 10.828 18.6156 12.4194C18.653 12.5591 18.7354 12.6825 18.8501 12.7705C18.9649 12.8586 19.1054 12.9062 19.25 12.9061C19.3072 12.9063 19.3642 12.8989 19.4195 12.8843C19.5029 12.862 19.581 12.8236 19.6495 12.7712C19.718 12.7187 19.7754 12.6533 19.8186 12.5787C19.8618 12.504 19.8898 12.4216 19.9011 12.3361C19.9124 12.2506 19.9067 12.1637 19.8844 12.0804C19.3375 10.0339 17.9659 8.66239 15.9195 8.11551C15.8362 8.09325 15.7494 8.08761 15.6639 8.09892C15.5784 8.11024 15.496 8.13827 15.4213 8.18144C15.3467 8.2246 15.2813 8.28205 15.2288 8.35049C15.1764 8.41894 15.1379 8.49705 15.1156 8.58035C15.0934 8.66366 15.0877 8.75054 15.099 8.83602C15.1104 8.92151 15.1384 9.00393 15.1816 9.07858C15.2247 9.15323 15.2822 9.21865 15.3506 9.2711C15.4191 9.32354 15.4972 9.362 15.5805 9.38426ZM24.2692 19.9936C24.0818 21.4234 23.3802 22.736 22.2954 23.6861C21.2107 24.6362 19.817 25.1588 18.375 25.1561C9.81095 25.1561 2.84376 18.1889 2.84376 9.62489C2.841 8.18337 3.36309 6.79014 4.31253 5.70545C5.26196 4.62076 6.57379 3.91879 8.00298 3.73067C8.33198 3.69069 8.66507 3.75852 8.95222 3.92399C9.23938 4.08946 9.4651 4.34363 9.59548 4.64832L11.9033 9.79989C12.0052 10.0331 12.0474 10.288 12.026 10.5416C12.0046 10.7953 11.9203 11.0395 11.7808 11.2524C11.7667 11.2741 11.7514 11.2949 11.7349 11.3147L9.43032 14.0557C9.41633 14.0841 9.40905 14.1153 9.40905 14.147C9.40905 14.1787 9.41633 14.2099 9.43032 14.2383C10.2681 15.9533 12.0663 17.7383 13.8053 18.575C13.8344 18.5883 13.8661 18.5946 13.898 18.5934C13.9299 18.5923 13.9611 18.5838 13.9891 18.5685L16.6895 16.2716C16.7089 16.2549 16.7293 16.2395 16.7508 16.2257C16.9627 16.0844 17.2065 15.9982 17.4601 15.9749C17.7138 15.9516 17.9692 15.9919 18.2033 16.0922L23.3702 18.4077C23.6708 18.5409 23.9206 18.7674 24.0825 19.0536C24.2444 19.3399 24.3099 19.6706 24.2692 19.9969V19.9936ZM22.9688 19.8318C22.9724 19.786 22.9616 19.7403 22.9379 19.701C22.9141 19.6618 22.8786 19.631 22.8364 19.613L17.6684 17.2975C17.6402 17.2866 17.61 17.282 17.5798 17.2839C17.5495 17.2858 17.5201 17.2942 17.4934 17.3085L14.7941 19.6054C14.7744 19.6218 14.7536 19.6371 14.7328 19.6513C14.5126 19.7981 14.2582 19.8854 13.9942 19.9045C13.7302 19.9237 13.4658 19.8741 13.2267 19.7607C11.2186 18.7905 9.21704 16.8075 8.24689 14.818C8.13278 14.5803 8.08199 14.3172 8.09942 14.0541C8.11686 13.791 8.20194 13.5369 8.34642 13.3163C8.36059 13.2944 8.37631 13.2736 8.39345 13.2539L10.6958 10.5097C10.709 10.4811 10.7158 10.4499 10.7158 10.4184C10.7158 10.3869 10.709 10.3557 10.6958 10.3271L8.39345 5.17442C8.37825 5.13304 8.3509 5.09722 8.31499 5.07165C8.27907 5.04608 8.23627 5.03196 8.1922 5.03114H8.16704C7.05464 5.17911 6.03412 5.72692 5.29605 6.57226C4.55799 7.4176 4.15284 8.50269 4.15626 9.62489C4.15626 17.4649 10.535 23.8436 18.375 23.8436C19.4974 23.847 20.5826 23.4417 21.428 22.7034C22.2733 21.9651 22.821 20.9444 22.9688 19.8318Z" fill="#D9954C"/>
</svg>
