<svg width="10" height="10" viewBox="0 0 10 10" fill="none" xmlns="http://www.w3.org/2000/svg">
<path d="M8.45589 4.08153L5.33089 7.20653C5.28734 7.25023 5.2356 7.2849 5.17862 7.30856C5.12164 7.33222 5.06055 7.3444 4.99886 7.3444C4.93717 7.3444 4.87608 7.33222 4.8191 7.30856C4.76212 7.2849 4.71038 7.25023 4.66683 7.20653L1.54183 4.08153C1.45377 3.99347 1.4043 3.87403 1.4043 3.74949C1.4043 3.62496 1.45377 3.50552 1.54183 3.41746C1.62989 3.3294 1.74932 3.27993 1.87386 3.27993C1.9984 3.27993 2.11783 3.3294 2.20589 3.41746L4.99925 6.21082L7.79261 3.41707C7.88067 3.32901 8.0001 3.27954 8.12464 3.27954C8.24918 3.27954 8.36861 3.32901 8.45667 3.41707C8.54473 3.50513 8.5942 3.62457 8.5942 3.7491C8.5942 3.87364 8.54473 3.99308 8.45667 4.08114L8.45589 4.08153Z" fill="#002B2E"/>
</svg>
