<svg width="33" height="69" viewBox="0 0 33 69" fill="none" xmlns="http://www.w3.org/2000/svg">
<g clip-path="url(#clip0_5_14888)">
<path fill-rule="evenodd" clip-rule="evenodd" d="M0.227001 35.195C0.829502 35.5037 1.468 35.8264 1.7415 35.944C3.3065 36.6221 4.9315 37.7291 6.602 39.1458C6.7355 38.6723 6.852 38.1942 6.9415 37.7102C5.1645 36.2622 3.429 35.1498 1.744 34.5149C9.027 31.7494 17.202 20.5595 25.871 8.69748C25.9645 8.57139 26.0585 8.44331 26.15 8.31723C25.6565 8.22192 25.1625 8.12661 24.6815 8.06903C16.373 19.4386 8.527 30.1485 1.7415 33.0833C1.468 33.2029 0.829502 33.5236 0.227001 33.8323V35.195ZM33 0.027298C31.009 0.617027 29.2585 1.83321 27.9895 3.55623C27.7605 3.86648 27.5355 4.17475 27.3085 4.485C27.777 4.5818 28.246 4.68753 28.7165 4.81362C28.8335 4.65427 28.95 4.49493 29.0665 4.33807C30.0775 2.966 31.4435 1.96675 33 1.4222V0.027298ZM33 7.85408C31.9375 7.69474 30.888 7.44405 29.8655 7.10253C22.6175 4.67413 15.672 5.82181 11.2865 10.1777C8.4155 13.0281 6.928 16.9661 6.928 21.3637C6.928 23.0574 7.153 24.8196 7.601 26.6132C7.9675 26.2572 8.3405 25.881 8.7115 25.4962C7.5135 19.806 8.755 14.565 12.23 11.115C16.249 7.12487 22.6825 6.09483 29.4405 8.35793C30.6 8.74612 31.793 9.0246 33 9.19338V7.85408ZM33 59.8354C31.7925 60.0037 30.5995 60.2827 29.4395 60.6709C28.821 60.8779 28.204 61.0496 27.5915 61.2005C27.875 61.5872 28.156 61.9719 28.4395 62.3566C28.9145 62.2286 29.3895 62.0856 29.8665 61.9263C30.8885 61.5837 31.938 61.3331 33 61.1732V59.8354ZM33 67.6051C31.444 67.0606 30.078 66.0618 29.066 64.6912C27.9975 63.2417 26.935 61.7873 25.8785 60.3417C20.4535 52.9185 15.2245 45.7703 10.285 40.773C10.237 40.9304 10.2035 41.0937 10.1495 41.2511C10.041 41.5737 9.945 41.8939 9.8515 42.2146C14.5555 47.1002 19.585 53.9858 24.7975 61.1196C25.8555 62.5651 26.92 64.0211 27.989 65.4731C29.258 67.1946 31.009 68.4108 33 69V67.6051ZM8.7865 30.9135C9.4135 34.0592 9.224 37.3543 8.1885 40.4027C5.7405 47.5986 6.899 54.4946 11.2845 58.8505C14.472 62.0151 19.0155 63.4775 24.0405 63.1132C23.745 62.7081 23.445 62.3005 23.149 61.897C23.1345 61.8766 23.122 61.8578 23.1075 61.8394C18.805 61.9655 14.9595 60.6252 12.228 57.9133C8.2115 53.9237 7.174 47.5365 9.453 40.8267C10.145 38.7914 10.4905 36.6529 10.4905 34.5144C10.4905 32.9547 10.303 31.3975 9.9345 29.879C9.551 30.2409 9.1675 30.5784 8.7865 30.9135Z" fill="#D9954C"/>
</g>
<defs>
<clipPath id="clip0_5_14888">
<rect width="69" height="33" fill="white" transform="matrix(0 -1 -1 0 33 69)"/>
</clipPath>
</defs>
</svg>
