<svg width="33" height="69" viewBox="0 0 33 69" fill="none" xmlns="http://www.w3.org/2000/svg">
<g clip-path="url(#clip0_5_14896)">
<path fill-rule="evenodd" clip-rule="evenodd" d="M32.9996 35.195C32.3971 35.5037 31.7586 35.8264 31.4851 35.944C29.9201 36.6221 28.2951 37.7291 26.6246 39.1458C26.4911 38.6723 26.3746 38.1942 26.2851 37.7102C28.0621 36.2622 29.7976 35.1498 31.4826 34.5149C24.1996 31.7494 16.0246 20.5595 7.35556 8.69748C7.26206 8.57139 7.16806 8.44331 7.07656 8.31723C7.57006 8.22192 8.06406 8.12661 8.54506 8.06903C16.8536 19.4386 24.6996 30.1485 31.4851 33.0833C31.7586 33.2029 32.3971 33.5236 32.9996 33.8323V35.195ZM0.226563 0.027298C2.21756 0.617027 3.96806 1.83321 5.23706 3.55623C5.46606 3.86648 5.69106 4.17475 5.91806 4.485C5.44956 4.5818 4.98056 4.68753 4.51006 4.81362C4.39306 4.65427 4.27656 4.49493 4.16006 4.33807C3.14906 2.966 1.78306 1.96675 0.226563 1.4222L0.226563 0.027298ZM0.226563 7.85408C1.28906 7.69474 2.33856 7.44405 3.36106 7.10253C10.6091 4.67413 17.5546 5.82181 21.9401 10.1777C24.8111 13.0281 26.2986 16.9661 26.2986 21.3637C26.2986 23.0574 26.0736 24.8196 25.6256 26.6132C25.2591 26.2572 24.8861 25.881 24.5151 25.4962C25.7131 19.806 24.4716 14.565 20.9966 11.115C16.9776 7.12487 10.5441 6.09483 3.78606 8.35793C2.62656 8.74612 1.43356 9.0246 0.226563 9.19338L0.226563 7.85408ZM0.226563 59.8354C1.43406 60.0037 2.62706 60.2827 3.78706 60.6709C4.40556 60.8779 5.02256 61.0496 5.63506 61.2005C5.35156 61.5872 5.07056 61.9719 4.78706 62.3566C4.31206 62.2286 3.83706 62.0856 3.36006 61.9263C2.33806 61.5837 1.28856 61.3331 0.226563 61.1732L0.226563 59.8354ZM0.226563 67.6051C1.78256 67.0606 3.14856 66.0618 4.16056 64.6912C5.22906 63.2417 6.29156 61.7873 7.34806 60.3417C12.7731 52.9185 18.0021 45.7703 22.9416 40.773C22.9896 40.9304 23.0231 41.0937 23.0771 41.2511C23.1856 41.5737 23.2816 41.8939 23.3751 42.2146C18.6711 47.1002 13.6416 53.9858 8.42906 61.1196C7.37106 62.5651 6.30656 64.0211 5.23756 65.4731C3.96856 67.1946 2.21756 68.4108 0.226562 69L0.226563 67.6051ZM24.4401 30.9135C23.8131 34.0592 24.0026 37.3543 25.0381 40.4027C27.4861 47.5986 26.3276 54.4946 21.9421 58.8505C18.7546 62.0151 14.2111 63.4775 9.18606 63.1132C9.48156 62.7081 9.78156 62.3005 10.0776 61.897C10.0921 61.8766 10.1046 61.8578 10.1191 61.8394C14.4216 61.9655 18.2671 60.6252 20.9986 57.9133C25.0151 53.9237 26.0526 47.5365 23.7736 40.8267C23.0816 38.7914 22.7361 36.6529 22.7361 34.5144C22.7361 32.9547 22.9236 31.3975 23.2921 29.879C23.6756 30.2409 24.0591 30.5784 24.4401 30.9135Z" fill="#D9954C"/>
</g>
<defs>
<clipPath id="clip0_5_14896">
<rect width="69" height="33" fill="white" transform="matrix(0 -1 -1 0 33 69)"/>
</clipPath>
</defs>
</svg>
