<svg width="168" height="70" viewBox="0 0 168 70" fill="none" xmlns="http://www.w3.org/2000/svg">
<path d="M8.35747 59.0894L5.67822 64.6059H11.0189L8.35747 59.0894ZM10.616 69.7016V68.8271H11.6157C12.7363 68.8271 12.7704 68.1612 12.5437 67.688L11.5975 65.7268H5.10084C4.6445 66.6545 4.33047 67.2673 4.33047 67.7583C4.33047 68.8271 5.20499 68.8271 5.7314 68.8271H6.51865V69.7016H0.880859V68.8271H1.14297C2.31713 68.8271 2.87731 67.9147 3.49004 66.6545L8.4463 56.4465H9.46126L14.6443 67.0743C15.3102 68.4414 15.5554 68.8271 16.4493 68.8271H16.9394V69.7016H10.616Z" fill="white"/>
<path d="M31.9511 69.7023V68.8277H32.724C33.9307 68.8277 34.0349 68.5475 34.0349 67.6013V57.5678L28.6942 69.7023H27.9072L22.2851 57.5481V66.7256C22.2851 68.2306 22.9169 68.8277 24.0182 68.8277H24.3857V69.7023H19.2027V68.8277H19.5718C20.7628 68.8277 21.2357 68.0743 21.2357 67.0058V58.828C21.2357 57.9168 21.095 57.6369 19.9393 57.6369H19.2027V56.7611H24.2815L28.9053 66.6733L33.2479 56.7611H38.3265V57.6369H37.6268C36.4342 57.6369 36.3131 57.8818 36.3131 58.8449V67.6013C36.3131 68.5813 36.4342 68.8277 37.6268 68.8277H38.3787V69.7023H31.9511Z" fill="white"/>
<path d="M48.6306 63.504H45.0924V67.6013C45.0924 68.5813 45.1978 68.8277 46.2497 68.8277H48.5433C50.5554 68.8277 51.5719 68.0211 51.5719 66.2523C51.5719 64.3954 50.4512 63.504 48.6306 63.504ZM48.4548 57.6369H46.4424C45.1978 57.6369 45.0924 57.8818 45.0924 58.8449V62.6269H48.1235C50.2582 62.6269 50.9257 61.4709 50.9257 60.0021C50.9257 58.6181 50.2245 57.6369 48.4548 57.6369ZM49.5586 69.7023H40.767V68.8277H41.5202C42.7113 68.8277 42.817 68.5813 42.817 67.6013V58.7054C42.817 57.8649 42.5874 57.6369 41.6791 57.6369H40.767V56.7611H48.9643C52.5872 56.7611 53.6037 58.1086 53.6037 59.8952C53.6037 61.1907 52.8505 62.3479 50.9426 62.9253C53.2531 63.4505 54.3049 64.5884 54.3049 66.3399C54.3049 68.1434 52.5872 69.7023 49.5586 69.7023Z" fill="white"/>
<path d="M63.6835 59.0894L61.0043 64.6059H66.345L63.6835 59.0894ZM65.9421 69.7016V68.8271H66.9417C68.0624 68.8271 68.0965 68.1612 67.8698 67.688L66.9236 65.7268H60.4269C59.9706 66.6545 59.6566 67.2673 59.6566 67.7583C59.6566 68.8271 60.5311 68.8271 61.0575 68.8271H61.8447V69.7016H56.2069V68.8271H56.469C57.6432 68.8271 58.2034 67.9147 58.8161 66.6545L63.7724 56.4465H64.7873L69.9704 67.0743C70.6363 68.4414 70.8815 68.8271 71.7754 68.8271H72.2655V69.7016H65.9421Z" fill="white"/>
<path d="M80.2864 69.9994C78.8501 69.9994 76.5722 69.5968 74.9795 68.9491L74.7346 65.0262H75.7511C76.2919 68.0915 78.4995 69.0545 80.1975 69.0545C81.8618 69.0545 83.2093 68.2141 83.2093 66.9173C83.2093 65.1488 81.1437 64.5361 79.0938 63.7842C76.4846 62.8212 74.9795 61.8046 74.9795 59.8082C74.9795 59.0547 75.4512 56.4458 80.2329 56.4458C82.1067 56.4458 83.4023 56.8484 84.7497 57.3216L84.9962 60.9639H84.0162C83.5768 58.3888 81.5816 57.3907 79.8835 57.3907C78.3756 57.3907 77.2381 58.1086 77.2381 59.2127C77.2381 60.5967 79.2867 61.1738 81.3536 61.9807C83.4191 62.803 85.4863 63.8715 85.4863 66.2695C85.4863 68.4067 83.436 69.9994 80.2864 69.9994Z" fill="white"/>
<path d="M94.0254 69.9994C92.5894 69.9994 90.3112 69.5968 88.7188 68.9491L88.4736 65.0262H89.4901C90.0309 68.0915 92.2388 69.0545 93.9369 69.0545C95.6012 69.0545 96.9486 68.2141 96.9486 66.9173C96.9486 65.1488 94.883 64.5361 92.8331 63.7842C90.2239 62.8212 88.7188 61.8046 88.7188 59.8082C88.7188 59.0547 89.1905 56.4458 93.9719 56.4458C95.8461 56.4458 97.1416 56.8484 98.489 57.3216L98.7355 60.9639H97.7553C97.3161 58.3888 95.3209 57.3907 93.6228 57.3907C92.115 57.3907 90.9771 58.1086 90.9771 59.2127C90.9771 60.5967 93.0258 61.1738 95.0929 61.9807C97.1585 62.803 99.2253 63.8715 99.2253 66.2695C99.2253 68.4067 97.1754 69.9994 94.0254 69.9994Z" fill="white"/>
<path d="M108.708 59.0894L106.028 64.6059H111.369L108.708 59.0894ZM110.966 69.7016V68.8271H111.966C113.087 68.8271 113.12 68.1612 112.894 67.688L111.947 65.7268H105.451C104.995 66.6545 104.681 67.2673 104.681 67.7583C104.681 68.8271 105.555 68.8271 106.082 68.8271H106.869V69.7016H101.231V68.8271H101.493C102.667 68.8271 103.228 67.9147 103.84 66.6545L108.796 56.4465H109.812L114.995 67.0743C115.66 68.4414 115.905 68.8271 116.8 68.8271H117.289V69.7016H110.966Z" fill="white"/>
<path d="M126.366 57.6372H125.175C123.985 57.6372 123.878 57.8808 123.878 58.8451V67.6003C123.878 68.5646 123.985 68.828 125.175 68.828H126.47C129.64 68.828 131.076 67.5312 131.076 63.224C131.076 59.0381 129.448 57.6372 126.366 57.6372ZM127.346 69.7025H119.553V68.828H120.306C121.446 68.828 121.603 68.5987 121.603 67.6003V58.8451C121.603 57.8808 121.497 57.6372 120.306 57.6372H119.553V56.7601H127.311C133.108 56.7601 133.808 61.1218 133.808 63.2409C133.808 67.3032 131.673 69.7025 127.346 69.7025Z" fill="white"/>
<path d="M143.855 57.391C141.947 57.391 139.267 58.371 139.267 63.2581C139.267 67.5472 141.474 69.0551 143.768 69.0551C146.272 69.0551 148.391 67.5472 148.391 63.1877C148.391 58.2487 145.676 57.391 143.855 57.391ZM143.96 70C138.706 70 136.535 66.6023 136.535 63.1174C136.535 59.5101 139.022 56.4461 143.872 56.4461C147.619 56.4461 151.121 58.4245 151.121 63.3457C151.121 68.2666 147.113 70 143.96 70Z" fill="white"/>
<path d="M160.152 57.6372H158.629C157.438 57.6372 157.332 57.8808 157.332 58.8451V62.803H159.783C161.465 62.803 162.832 62.5046 162.832 60.2632C162.832 58.32 161.745 57.6372 160.152 57.6372ZM163.916 69.7025L160.834 64.973C160.256 64.0816 159.872 63.6775 158.802 63.6775H157.332V67.6003C157.332 68.5646 157.438 68.828 158.629 68.828H159.52V69.7025H153.008V68.828H153.76C154.95 68.828 155.057 68.5646 155.057 67.6003V58.8451C155.057 57.8286 154.916 57.6372 153.76 57.6372H153.008V56.7601H160.483C162.813 56.7601 165.563 57.3203 165.563 60.1929C165.563 61.7514 164.582 63.1705 162.077 63.4507C162.445 63.6084 162.725 63.8524 163.146 64.5014L165.3 67.8637C165.756 68.5646 166.124 68.828 166.701 68.828H167.121V69.7025H163.916Z" fill="white"/>
<path d="M87.1377 29.8986H86.774V29.0632H87.1377C87.6748 29.0632 88.158 28.8323 88.4333 28.4467C88.6428 28.1496 88.6951 27.8055 88.5803 27.4758L82.7811 10.9275C82.6181 10.4583 82.0917 10.1311 81.5024 10.1311H80.2279V9.29571H81.5024C82.4551 9.29571 83.2865 9.84056 83.5696 10.651L89.3675 27.1997C89.5721 27.7833 89.4795 28.4142 89.1148 28.929C88.6835 29.5361 87.9444 29.8986 87.1377 29.8986Z" fill="white"/>
<path d="M94.6071 29.8986H93.9631C92.4437 29.8986 91.1209 29.0385 90.6727 27.7586L84.9161 11.33C84.7613 10.8868 84.8301 10.4086 85.1078 10.0188C85.4284 9.56688 85.977 9.29571 86.5766 9.29571H87.743V10.1311H86.5766C86.2469 10.1311 85.9536 10.2691 85.7881 10.5024C85.719 10.6003 85.6161 10.8024 85.7033 11.0538L91.4597 27.4824C91.7856 28.4129 92.8153 29.0632 93.9631 29.0632H94.6071V29.8986Z" fill="white"/>
<path d="M79.4231 29.8986H73.3956V29.0632H74.2479C75.4365 29.0632 76.5037 28.3895 76.8427 27.4236L82.5402 11.162C82.6134 10.9522 82.5793 10.732 82.4452 10.5427C82.2628 10.2847 81.9369 10.1311 81.576 10.1311H80.5385V9.29571H81.576C82.2081 9.29571 82.7867 9.58096 83.1267 10.0595C83.4173 10.4699 83.4905 10.9716 83.3275 11.437L77.6296 27.6985C77.442 28.2356 77.1045 28.701 76.6641 29.0632H79.4231V29.8986Z" fill="white"/>
<path d="M87.2156 21.9009H78.9649V22.7363H87.2156V21.9009Z" fill="white"/>
<path d="M68.1272 15.4005C75.2741 10.2147 81.9519 5.31595 83.8648 0.925193C83.8989 0.846999 83.9652 0.835426 84.0006 0.835426C83.9928 0.839179 84.1022 0.844496 84.1373 0.923942C84.634 2.06558 85.4562 3.2413 86.5209 4.44674C86.8218 4.37512 87.1218 4.29411 87.4177 4.19527C86.2798 2.95042 85.4053 1.74498 84.9023 0.591773C84.7434 0.226763 84.3994 0 84.0018 0H84.0006C83.6043 0 83.259 0.225512 83.0998 0.590522C81.3091 4.70072 74.9222 9.43553 68.0136 14.4503C68.0371 14.763 68.0762 15.0799 68.1272 15.4005Z" fill="white"/>
<path d="M79.7562 37.9401C79.8553 37.9063 79.9582 37.8866 80.0571 37.8553C76.9087 34.7654 72.4047 31.4944 67.7274 28.102C66.8163 27.4414 65.9002 26.7752 64.9866 26.1081C63.6338 25.1163 62.8559 23.5812 62.8531 21.8959C62.8559 20.211 63.6338 18.6759 64.9866 17.6841C65.2878 17.4639 65.5874 17.2474 65.8883 17.0285C65.8167 16.7301 65.7476 16.4317 65.6944 16.1371C65.294 16.4289 64.894 16.7182 64.494 17.0104C62.9235 18.1598 62.0205 19.9398 62.0177 21.8959C62.0205 23.8508 62.9235 25.6311 64.494 26.7806C65.4088 27.4505 66.3262 28.1164 67.2373 28.777C71.7322 32.0377 76.0707 35.1852 79.1488 38.1265C79.3508 38.0693 79.5529 38.0092 79.7562 37.9401Z" fill="white"/>
<path d="M103.507 17.0104C102.591 16.3392 101.672 15.6733 100.758 15.0099C96.5467 11.9537 92.479 8.99924 89.4504 6.21834C89.1401 6.29247 88.8273 6.37973 88.5108 6.48013C91.6204 9.40741 95.8664 12.4933 100.269 15.6864C101.181 16.3482 102.1 17.0141 103.015 17.6841C104.369 18.6747 105.146 20.2098 105.149 21.895C105.146 23.5812 104.369 25.1166 103.015 26.1069C102.915 26.18 102.815 26.2529 102.715 26.3258C102.794 26.6204 102.861 26.9135 102.922 27.2069C103.117 27.0649 103.312 26.9241 103.507 26.7806C105.079 25.6311 105.982 23.8511 105.985 21.8963V21.895C105.982 19.9402 105.079 18.1598 103.507 17.0104Z" fill="white"/>
<path d="M100.507 27.9316C100.428 27.9888 100.348 28.0476 100.269 28.1048C92.9744 33.3973 86.0855 38.3952 84.136 42.8666C84.1022 42.9461 83.9924 42.9489 84.0006 42.9567C83.9652 42.9567 83.8986 42.9448 83.8648 42.8666C83.4504 41.9167 82.8026 40.9418 81.9869 39.9475C81.682 40.0035 81.3811 40.0764 81.0824 40.1599C81.9753 41.2052 82.6725 42.2217 83.0998 43.2004C83.259 43.5651 83.6043 43.7918 84.0006 43.7918H84.0018C84.3994 43.7906 84.7434 43.5638 84.9023 43.2004C86.7514 38.9557 93.4996 34.0476 100.664 28.8505C100.628 28.5493 100.567 28.2406 100.507 27.9316Z" fill="white"/>
<path d="M66.7287 25.6064C66.6283 25.9048 66.5386 26.2019 66.4563 26.499C66.7 26.6764 66.9424 26.8522 67.1863 27.0295C67.2814 26.6463 67.3896 26.2607 67.5198 25.8735C68.3852 23.3087 68.3852 20.4834 67.5198 17.9186C66.0941 13.6908 66.7431 9.66509 69.2569 7.15131C71.5455 4.86272 75.0877 4.12644 78.8904 5.08698C79.1291 4.85897 79.3637 4.6322 79.5863 4.40669C75.3091 3.17779 71.2665 3.96099 68.6667 6.56078C65.9233 9.30415 65.1974 13.6505 66.7287 18.1857C67.5366 20.5785 67.5366 23.2136 66.7287 25.6064Z" fill="white"/>
<path d="M81.6729 5.83735C83.7673 6.23363 85.9539 6.0982 87.9791 5.4151C92.2044 3.98821 96.2286 4.63722 98.7452 7.15257C100.595 9.00171 101.431 11.6722 101.177 14.637C101.202 14.6551 101.225 14.672 101.249 14.6889C101.483 14.8597 101.721 15.033 101.955 15.2038C102.375 11.7986 101.469 8.6955 99.3357 6.56205C96.5911 3.81744 92.2472 3.0943 87.7107 4.62409C85.988 5.20554 84.1398 5.36036 82.3466 5.10514C82.1277 5.34879 81.9087 5.59244 81.6729 5.83735Z" fill="white"/>
<path d="M86.9216 38.0749C85.9648 37.8456 84.9836 37.7271 84.0009 37.7271C82.6535 37.7271 81.306 37.9435 80.0236 38.3761C75.7958 39.8018 71.7713 39.1527 69.2576 36.6402C67.5489 34.9315 66.7044 32.5259 66.7838 29.8348C66.7722 29.8254 66.7604 29.8176 66.7475 29.8085C66.492 29.6237 66.2365 29.436 65.9812 29.2509C65.7516 32.3943 66.6731 35.2365 68.667 37.2304C71.4117 39.9738 75.7567 40.6985 80.2907 39.1671C82.2115 38.5194 84.2877 38.4008 86.2698 38.793C86.4797 38.5547 86.6936 38.3161 86.9216 38.0749Z" fill="white"/>
<path d="M101.273 18.1852C101.308 18.081 101.335 17.9778 101.368 17.8736C101.131 17.7016 100.892 17.5283 100.655 17.355C100.6 17.5427 100.546 17.7304 100.482 17.918C99.6163 20.4828 99.6163 23.3081 100.482 25.8729C101.907 30.1007 101.258 34.1249 98.7446 36.639C96.5708 38.8128 93.2682 39.5894 89.6831 38.84C89.4407 39.0721 89.2036 39.3054 88.9794 39.5347C90.1091 39.8149 91.2195 39.9557 92.287 39.9557C95.0575 39.9557 97.5391 39.0251 99.3348 37.2292C102.079 34.4861 102.804 30.141 101.273 25.607C100.466 23.213 100.466 20.5779 101.273 18.1852Z" fill="white"/>
</svg>
