<svg width="61" height="60" viewBox="0 0 61 60" fill="none" xmlns="http://www.w3.org/2000/svg">
<path d="M30.5 9.375C31.4946 9.375 32.4484 9.77009 33.1516 10.4733C33.8549 11.1766 34.25 12.1304 34.25 13.125V13.4362C31.7676 13.0166 29.2324 13.0166 26.75 13.4362V13.125C26.75 12.1304 27.1451 11.1766 27.8484 10.4733C28.5516 9.77009 29.5054 9.375 30.5 9.375ZM23 13.125V14.4038C14.2625 17.4938 8 25.83 8 35.625C8 36.1223 8.19754 36.5992 8.54918 36.9508C8.90081 37.3025 9.37772 37.5 9.875 37.5H51.125C51.6223 37.5 52.0992 37.3025 52.4508 36.9508C52.8025 36.5992 53 36.1223 53 35.625C53.0017 30.9708 51.56 26.4305 48.8735 22.6299C46.187 18.8292 42.3881 15.9552 38 14.4038V13.125C38 11.1359 37.2098 9.22822 35.8033 7.8217C34.3968 6.41518 32.4891 5.625 30.5 5.625C28.5109 5.625 26.6032 6.41518 25.1967 7.8217C23.7902 9.22822 23 11.1359 23 13.125ZM30.5 16.875C35.1482 16.8749 39.6308 18.6014 43.078 21.7195C46.5253 24.8377 48.6914 29.1251 49.1562 33.75H11.8438C12.3086 29.1251 14.4747 24.8377 17.922 21.7195C21.3692 18.6014 25.8518 16.8749 30.5 16.875ZM30.5 20.625C30.0027 20.625 29.5258 20.8225 29.1742 21.1742C28.8225 21.5258 28.625 22.0027 28.625 22.5C28.625 22.9973 28.8225 23.4742 29.1742 23.8258C29.5258 24.1775 30.0027 24.375 30.5 24.375C34.3213 24.375 37.7 26.28 39.7363 29.1975C39.8748 29.405 40.0533 29.5827 40.2613 29.7203C40.4694 29.8579 40.7028 29.9526 40.9479 29.9988C41.1931 30.0451 41.445 30.042 41.6889 29.9897C41.9328 29.9374 42.1638 29.8369 42.3684 29.6942C42.5729 29.5515 42.747 29.3694 42.8803 29.1585C43.0137 28.9477 43.1036 28.7124 43.1448 28.4664C43.1861 28.2204 43.1778 27.9686 43.1205 27.7258C43.0633 27.483 42.9581 27.2541 42.8112 27.0525C41.4292 25.0681 39.588 23.4473 37.4443 22.3281C35.3007 21.2089 32.9182 20.6246 30.5 20.625ZM9.875 41.25C8.38316 41.25 6.95242 41.8426 5.89752 42.8975C4.84263 43.9524 4.25 45.3832 4.25 46.875C4.25 48.3668 4.84263 49.7976 5.89752 50.8525C6.95242 51.9074 8.38316 52.5 9.875 52.5H51.125C52.6168 52.5 54.0476 51.9074 55.1025 50.8525C56.1574 49.7976 56.75 48.3668 56.75 46.875C56.75 45.3832 56.1574 43.9524 55.1025 42.8975C54.0476 41.8426 52.6168 41.25 51.125 41.25H9.875ZM8 46.875C8 46.3777 8.19754 45.9008 8.54918 45.5492C8.90081 45.1975 9.37772 45 9.875 45H51.125C51.6223 45 52.0992 45.1975 52.4508 45.5492C52.8025 45.9008 53 46.3777 53 46.875C53 47.3723 52.8025 47.8492 52.4508 48.2008C52.0992 48.5525 51.6223 48.75 51.125 48.75H9.875C9.37772 48.75 8.90081 48.5525 8.54918 48.2008C8.19754 47.8492 8 47.3723 8 46.875Z" fill="#D9954C"/>
</svg>
