<svg width="61" height="60" viewBox="0 0 61 60" fill="none" xmlns="http://www.w3.org/2000/svg">
<path d="M56.875 24.875H54.3438L47.8328 10.2266C47.5382 9.56381 47.0576 9.00073 46.4495 8.60554C45.8413 8.21035 45.1315 8.00001 44.4062 8H16.8437C16.1185 8.00001 15.4087 8.21035 14.8005 8.60554C14.1924 9.00073 13.7118 9.56381 13.4172 10.2266L6.90625 24.875H4.375C3.87772 24.875 3.40081 25.0725 3.04917 25.4242C2.69754 25.7758 2.5 26.2527 2.5 26.75C2.5 27.2473 2.69754 27.7242 3.04917 28.0758C3.40081 28.4275 3.87772 28.625 4.375 28.625H6.25V47.375C6.25 48.3696 6.64509 49.3234 7.34835 50.0266C8.05161 50.7299 9.00544 51.125 10 51.125H15.625C16.6196 51.125 17.5734 50.7299 18.2766 50.0266C18.9799 49.3234 19.375 48.3696 19.375 47.375V43.625H41.875V47.375C41.875 48.3696 42.2701 49.3234 42.9734 50.0266C43.6766 50.7299 44.6304 51.125 45.625 51.125H51.25C52.2446 51.125 53.1984 50.7299 53.9016 50.0266C54.6049 49.3234 55 48.3696 55 47.375V28.625H56.875C57.3723 28.625 57.8492 28.4275 58.2008 28.0758C58.5525 27.7242 58.75 27.2473 58.75 26.75C58.75 26.2527 58.5525 25.7758 58.2008 25.4242C57.8492 25.0725 57.3723 24.875 56.875 24.875ZM16.8437 11.75H44.4062L50.2398 24.875H11.0102L16.8437 11.75ZM15.625 47.375H10V43.625H15.625V47.375ZM45.625 47.375V43.625H51.25V47.375H45.625ZM51.25 39.875H10V28.625H51.25V39.875ZM13.75 34.25C13.75 33.7527 13.9475 33.2758 14.2992 32.9242C14.6508 32.5725 15.1277 32.375 15.625 32.375H19.375C19.8723 32.375 20.3492 32.5725 20.7008 32.9242C21.0525 33.2758 21.25 33.7527 21.25 34.25C21.25 34.7473 21.0525 35.2242 20.7008 35.5758C20.3492 35.9275 19.8723 36.125 19.375 36.125H15.625C15.1277 36.125 14.6508 35.9275 14.2992 35.5758C13.9475 35.2242 13.75 34.7473 13.75 34.25ZM40 34.25C40 33.7527 40.1975 33.2758 40.5492 32.9242C40.9008 32.5725 41.3777 32.375 41.875 32.375H45.625C46.1223 32.375 46.5992 32.5725 46.9508 32.9242C47.3025 33.2758 47.5 33.7527 47.5 34.25C47.5 34.7473 47.3025 35.2242 46.9508 35.5758C46.5992 35.9275 46.1223 36.125 45.625 36.125H41.875C41.3777 36.125 40.9008 35.9275 40.5492 35.5758C40.1975 35.2242 40 34.7473 40 34.25Z" fill="#D9954C"/>
</svg>
