<svg width="61" height="60" viewBox="0 0 61 60" fill="none" xmlns="http://www.w3.org/2000/svg">
<path d="M45.3814 27.8402C44.9997 23.6522 43.7274 19.5941 41.6498 15.9377C39.5721 12.2814 36.7371 9.11133 33.3345 6.63984L29.9911 4.21875L26.858 6.65508C23.5938 9.1929 20.9017 12.3908 18.9575 16.0399C17.0133 19.689 15.8609 23.7072 15.5754 27.832C14.3141 27.5942 13.0335 27.4745 11.75 27.4747H2.375V35.1562C2.375 46.5289 11.6273 55.7812 23 55.7812H38C49.3727 55.7812 58.625 46.5289 58.625 35.1562V27.4747H49.25C47.9518 27.4745 46.6566 27.5969 45.3814 27.8402ZM29.1603 9.61523L30.0714 8.90625L31.1355 9.67676C34.2041 11.9058 36.7423 14.7852 38.5688 18.1091C40.3954 21.4331 41.4651 25.1194 41.7015 28.9048C36.7429 30.8692 32.7315 34.668 30.5 39.5122C28.264 34.659 24.2415 30.8557 19.2706 28.895C19.4016 25.1522 20.3556 21.4843 22.0649 18.152C23.7742 14.8197 26.1968 11.905 29.1603 9.61523ZM28.625 52.0312H23C13.6953 52.0312 6.125 44.4609 6.125 35.1562V31.2247H11.75C21.0547 31.2247 28.625 38.795 28.625 48.0997V52.0312ZM54.875 35.1562C54.875 44.4609 47.3047 52.0312 38 52.0312H32.375V48.0997C32.375 38.795 39.9453 31.2247 49.25 31.2247H54.875V35.1562Z" fill="#D9954C"/>
</svg>
