<svg width="61" height="60" viewBox="0 0 61 60" fill="none" xmlns="http://www.w3.org/2000/svg">
<path d="M43.6251 4.6875C43.6251 4.13124 43.7901 3.58747 44.0991 3.12496C44.4082 2.66245 44.8474 2.30196 45.3614 2.08909C45.8753 1.87622 46.4408 1.82052 46.9863 1.92904C47.5319 2.03756 48.033 2.30543 48.4264 2.69876C48.8197 3.0921 49.0876 3.59324 49.1961 4.13881C49.3046 4.68438 49.2489 5.24988 49.0361 5.7638C48.8232 6.27772 48.4627 6.71697 48.0002 7.02601C47.5377 7.33505 46.9939 7.5 46.4376 7.5C45.6917 7.5 44.9764 7.20369 44.4489 6.67624C43.9215 6.14879 43.6251 5.43342 43.6251 4.6875ZM38.9658 17.1633C40.6673 27.5344 39.9853 34.9195 36.9361 39.1148C36.189 40.1701 35.2315 41.0591 34.1238 41.7259C33.0161 42.3927 31.7823 42.8228 30.5001 42.9891V54.375H34.2501C34.7474 54.375 35.2243 54.5725 35.576 54.9242C35.9276 55.2758 36.1251 55.7527 36.1251 56.25C36.1251 56.7473 35.9276 57.2242 35.576 57.5758C35.2243 57.9275 34.7474 58.125 34.2501 58.125H23.0001C22.5029 58.125 22.026 57.9275 21.6743 57.5758C21.3227 57.2242 21.1251 56.7473 21.1251 56.25C21.1251 55.7527 21.3227 55.2758 21.6743 54.9242C22.026 54.5725 22.5029 54.375 23.0001 54.375H26.7501V42.9891C25.4682 42.8219 24.2347 42.3915 23.1272 41.7248C22.0196 41.058 21.0619 40.1695 20.3142 39.1148C17.2673 34.9195 16.5853 27.5344 18.2869 17.1633C19.078 12.429 20.1908 7.75413 21.6173 3.1711C21.7396 2.79436 21.9781 2.46603 22.2985 2.23319C22.6189 2.00035 23.0048 1.87496 23.4009 1.875H33.8517C34.2478 1.87496 34.6337 2.00035 34.9541 2.23319C35.2746 2.46603 35.513 2.79436 35.6353 3.1711C37.0619 7.75413 38.1746 12.429 38.9658 17.1633ZM22.4845 15H34.7658C34.0626 11.3484 33.1908 8.01328 32.4736 5.625H24.7791C24.0619 8.01328 23.1947 11.3484 22.4845 15ZM35.422 18.75H21.8283C20.7759 25.7813 20.6236 33.1734 23.34 36.9117C24.5541 38.5688 26.2814 39.375 28.6251 39.375C30.9689 39.375 32.6986 38.5688 33.9033 36.9117C36.6173 33.1734 36.4673 25.7813 35.422 18.75ZM52.0626 9.375C51.5064 9.375 50.9626 9.53995 50.5001 9.84899C50.0376 10.158 49.6771 10.5973 49.4642 11.1112C49.2514 11.6251 49.1957 12.1906 49.3042 12.7362C49.4127 13.2818 49.6806 13.7829 50.0739 14.1762C50.4672 14.5696 50.9684 14.8374 51.514 14.946C52.0595 15.0545 52.625 14.9988 53.1389 14.7859C53.6529 14.573 54.0921 14.2126 54.4012 13.75C54.7102 13.2875 54.8751 12.7438 54.8751 12.1875C54.8751 11.4416 54.5788 10.7262 54.0514 10.1988C53.5239 9.67132 52.8086 9.375 52.0626 9.375ZM46.4376 20.625C45.8814 20.625 45.3376 20.79 44.8751 21.099C44.4126 21.408 44.0521 21.8473 43.8392 22.3612C43.6264 22.8751 43.5707 23.4406 43.6792 23.9862C43.7877 24.5318 44.0556 25.0329 44.4489 25.4262C44.8422 25.8196 45.3434 26.0874 45.889 26.196C46.4345 26.3045 47 26.2488 47.5139 26.0359C48.0279 25.823 48.4671 25.4626 48.7762 25C49.0852 24.5375 49.2501 23.9938 49.2501 23.4375C49.2501 22.6916 48.9538 21.9762 48.4264 21.4488C47.8989 20.9213 47.1836 20.625 46.4376 20.625Z" fill="#D9954C"/>
</svg>
