<svg width="61" height="60" viewBox="0 0 61 60" fill="none" xmlns="http://www.w3.org/2000/svg">
<path d="M16.1325 3.10269C17.1804 3.45198 17.7467 4.58462 17.3974 5.63251C16.8383 7.30978 16.7347 8.45405 16.7925 9.32014C16.8515 10.2055 17.0815 10.9199 17.3974 11.8676L17.416 11.9234C17.7221 12.8413 18.1034 13.9846 18.1987 15.4139C18.2972 16.8916 18.0883 18.5598 17.3974 20.6325C17.0481 21.6804 15.9154 22.2467 14.8676 21.8974C13.8197 21.5481 13.2534 20.4155 13.6026 19.3676C14.1617 17.6903 14.2653 16.5461 14.2076 15.68C14.1485 14.7946 13.9186 14.0802 13.6026 13.1325L13.584 13.0767C13.2779 12.1588 12.8966 11.0155 12.8013 9.58622C12.7028 8.10856 12.9117 6.44033 13.6026 4.3676C13.9519 3.31971 15.0846 2.75339 16.1325 3.10269Z" fill="#D9954C"/>
<path d="M26.1325 3.10269C27.1804 3.45198 27.7467 4.58462 27.3974 5.63251C26.8383 7.30978 26.7347 8.45405 26.7925 9.32014C26.8515 10.2055 27.0815 10.9199 27.3974 11.8676L27.416 11.9234C27.7221 12.8413 28.1034 13.9846 28.1987 15.4139C28.2972 16.8916 28.0883 18.5598 27.3974 20.6325C27.0481 21.6804 25.9154 22.2467 24.8676 21.8974C23.8197 21.5481 23.2534 20.4155 23.6026 19.3676C24.1617 17.6903 24.2653 16.5461 24.2076 15.68C24.1485 14.7946 23.9186 14.0802 23.6026 13.1325L23.584 13.0767C23.2779 12.1588 22.8966 11.0155 22.8013 9.58622C22.7028 8.10856 22.9117 6.44033 23.6026 4.3676C23.9519 3.31971 25.0846 2.75339 26.1325 3.10269Z" fill="#D9954C"/>
<path fill-rule="evenodd" clip-rule="evenodd" d="M13.8302 43.8414C12.8399 43.3047 11.7055 43 10.5 43C6.63401 43 3.5 46.134 3.5 50C3.5 53.866 6.63401 57 10.5 57C14.366 57 17.5 53.866 17.5 50C17.5 48.7945 17.1953 47.6601 16.6586 46.6698L20.5 42.8284L24.3414 46.6698C23.8047 47.6601 23.5 48.7945 23.5 50C23.5 53.866 26.634 57 30.5 57C34.366 57 37.5 53.866 37.5 50C37.5 46.134 34.366 43 30.5 43C29.2945 43 28.1601 43.3047 27.1698 43.8414L6.91421 23.5858C6.13317 22.8047 4.86683 22.8047 4.08579 23.5858C3.30474 24.3668 3.30474 25.6332 4.08579 26.4142L17.6716 40L13.8302 43.8414ZM10.5 47C8.84315 47 7.5 48.3431 7.5 50C7.5 51.6569 8.84315 53 10.5 53C12.1569 53 13.5 51.6569 13.5 50C13.5 49.2969 13.2581 48.6503 12.8531 48.1389C12.7592 48.073 12.6697 47.9981 12.5858 47.9142C12.5019 47.8303 12.427 47.7408 12.3611 47.6469C11.8497 47.2419 11.2031 47 10.5 47ZM28.1469 48.1389C28.2408 48.073 28.3303 47.9981 28.4142 47.9142C28.4981 47.8303 28.573 47.7408 28.6389 47.6469C29.1503 47.2419 29.7969 47 30.5 47C32.1569 47 33.5 48.3431 33.5 50C33.5 51.6569 32.1569 53 30.5 53C28.8431 53 27.5 51.6569 27.5 50C27.5 49.2969 27.7419 48.6503 28.1469 48.1389Z" fill="#D9954C"/>
<path d="M36.9142 26.4142C37.6953 25.6332 37.6953 24.3668 36.9142 23.5858C36.1332 22.8047 34.8668 22.8047 34.0858 23.5858L26.0858 31.5858C25.3047 32.3668 25.3047 33.6332 26.0858 34.4142C26.8668 35.1953 28.1332 35.1953 28.9142 34.4142L36.9142 26.4142Z" fill="#D9954C"/>
<path d="M45.5 3C44.3954 3 43.5 3.89543 43.5 5C43.5 6.10457 44.3954 7 45.5 7H50.5C51.2957 7 52.0587 7.31607 52.6213 7.87868C53.1839 8.44129 53.5 9.20435 53.5 10V13H45.5C44.3954 13 43.5 13.8954 43.5 15C43.5 16.1046 44.3954 17 45.5 17H53.5V23H45.5C44.3954 23 43.5 23.8954 43.5 25C43.5 26.1046 44.3954 27 45.5 27H53.5V33H45.5C44.3954 33 43.5 33.8954 43.5 35C43.5 36.1046 44.3954 37 45.5 37H53.5V43H45.5C44.3954 43 43.5 43.8954 43.5 45C43.5 46.1046 44.3954 47 45.5 47H53.5V50C53.5 50.7956 53.1839 51.5587 52.6213 52.1213C52.0587 52.6839 51.2956 53 50.5 53H45.5C44.3954 53 43.5 53.8954 43.5 55C43.5 56.1046 44.3954 57 45.5 57H50.5C52.3565 57 54.137 56.2625 55.4497 54.9497C56.7625 53.637 57.5 51.8565 57.5 50V10C57.5 8.14348 56.7625 6.36301 55.4497 5.05025C54.137 3.7375 52.3565 3 50.5 3H45.5Z" fill="#D9954C"/>
</svg>
