<svg width="61" height="60" viewBox="0 0 61 60" fill="none" xmlns="http://www.w3.org/2000/svg">
<path fill-rule="evenodd" clip-rule="evenodd" d="M30.5 5.26123C29.3258 5.26123 28.1704 5.55663 27.1402 6.12022L7.715 16.7454C7.00685 17.1328 6.41596 17.7036 6.00426 18.398C5.59256 19.0923 5.37522 19.8852 5.375 20.6924V23.1849C5.375 24.1131 5.74375 25.0034 6.40013 25.6598C7.05651 26.3161 7.94675 26.6849 8.875 26.6849H11.625V43.9399H9.875C7.38972 43.9399 5.375 45.9547 5.375 48.4399V50.9399C5.375 53.4252 7.38972 55.4399 9.875 55.4399H51.125C53.6103 55.4399 55.625 53.4252 55.625 50.9399V48.4399C55.625 45.9547 53.6103 43.9399 51.125 43.9399H49.375V26.6849H52.125C53.0532 26.6849 53.9435 26.3161 54.5999 25.6598C55.2563 25.0034 55.625 24.1131 55.625 23.1849V20.6919C55.6248 19.8846 55.4074 19.0923 54.9957 18.398C54.584 17.7036 53.9929 17.1327 53.2848 16.7452L33.8598 6.12022C32.8296 5.55663 31.6742 5.26123 30.5 5.26123ZM47.0914 47.9399C47.1841 47.9531 47.2787 47.9599 47.375 47.9599C47.4713 47.9599 47.5659 47.9531 47.6586 47.9399H51.125C51.4011 47.9399 51.625 48.1638 51.625 48.4399V50.9399C51.625 51.2161 51.4011 51.4399 51.125 51.4399H9.875C9.59886 51.4399 9.375 51.2161 9.375 50.9399V48.4399C9.375 48.1638 9.59886 47.9399 9.875 47.9399H13.3414C13.4341 47.9531 13.5287 47.9599 13.625 47.9599C13.7213 47.9599 13.8159 47.9531 13.9086 47.9399H23.9664C24.0591 47.9531 24.1537 47.9599 24.25 47.9599C24.3463 47.9599 24.4409 47.9531 24.5336 47.9399H36.4664C36.5591 47.9531 36.6537 47.9599 36.75 47.9599C36.8463 47.9599 36.9409 47.9531 37.0336 47.9399H47.0914ZM45.375 43.9399V26.6849H38.75V43.9399H45.375ZM34.75 43.9399V26.6849H26.25V43.9399H34.75ZM22.25 43.9399V26.6849H15.625V43.9399H22.25ZM51.625 22.6849H13.625H9.375V20.6929C9.37512 20.6034 9.39927 20.515 9.44492 20.4381C9.49061 20.361 9.55618 20.2976 9.63476 20.2546L29.0598 9.62956C29.5013 9.38798 29.9967 9.26123 30.5 9.26123C31.0033 9.26123 31.4985 9.38785 31.94 9.62943L51.365 20.2544C51.4437 20.2975 51.5093 20.3609 51.5551 20.4381C51.6007 20.515 51.6249 20.6034 51.625 20.6929V22.6849Z" fill="#D9954C"/>
</svg>
