<svg width="61" height="60" viewBox="0 0 61 60" fill="none" xmlns="http://www.w3.org/2000/svg">
<path fill-rule="evenodd" clip-rule="evenodd" d="M7.43514 6.93514C9.95478 4.41551 13.3721 3 16.9354 3H44.0646C47.6279 3 51.0453 4.41551 53.5649 6.93514C56.0846 9.45478 57.5001 12.8721 57.5001 16.4354V43.5646C57.5001 47.1279 56.0846 50.5453 53.5649 53.0649C51.0453 55.5846 47.6279 57.0001 44.0646 57.0001H16.9354C13.3721 57.0001 9.95478 55.5846 7.43514 53.0649C4.91551 50.5453 3.5 47.1279 3.5 43.5646V16.4354C3.5 12.8721 4.91551 9.45478 7.43514 6.93514ZM16.9354 6.61723C14.3315 6.61723 11.8342 7.65164 9.99291 9.49291C8.15164 11.3342 7.11723 13.8315 7.11723 16.4354V43.5646C7.11723 46.1686 8.15164 48.6659 9.99291 50.5072C11.8342 52.3484 14.3315 53.3828 16.9354 53.3828H44.0646C46.6686 53.3828 49.1659 52.3484 51.0072 50.5072C52.8484 48.6659 53.8828 46.1686 53.8828 43.5646V16.4354C53.8828 13.8315 52.8484 11.3342 51.0072 9.49291C49.1659 7.65164 46.6686 6.61723 44.0646 6.61723H16.9354Z" fill="#D9954C"/>
<path fill-rule="evenodd" clip-rule="evenodd" d="M21.75 16.3811C21.75 15.3823 22.5597 14.5725 23.5586 14.5725H35.9024C37.9239 14.5725 39.8626 15.3755 41.292 16.8049C42.7214 18.2344 43.5244 20.173 43.5244 22.1945V26.4577C43.5244 28.4792 42.7214 30.4179 41.292 31.8473C39.8626 33.2767 37.9239 34.0797 35.9024 34.0797H25.3672V43.6189C25.3672 44.6177 24.5575 45.4275 23.5586 45.4275C22.5597 45.4275 21.75 44.6177 21.75 43.6189V16.3811ZM25.3672 30.4625H35.9024C36.9645 30.4625 37.9832 30.0406 38.7342 29.2895C39.4853 28.5385 39.9072 27.5198 39.9072 26.4577V22.1945C39.9072 21.1324 39.4853 20.1138 38.7342 19.3627C37.9832 18.6117 36.9645 18.1897 35.9024 18.1897H25.3672V30.4625Z" fill="#D9954C"/>
</svg>
