<svg width="61" height="60" viewBox="0 0 61 60" fill="none" xmlns="http://www.w3.org/2000/svg">
<path fill-rule="evenodd" clip-rule="evenodd" d="M42.8781 5.04151L42.8812 5.0415L45.8041 5.04151C46.9086 5.04151 47.8041 5.93694 47.8041 7.04151V15.1657L57.9179 18.537C58.7346 18.8092 59.2855 19.5735 59.2855 20.4344V24.2615C59.2855 29.5932 54.96 33.9115 49.6312 33.9115H43.9855V47.1949C44.0096 48.2192 43.8301 49.2382 43.4574 50.1928C43.0812 51.1566 42.5156 52.0352 41.7941 52.7767C41.0726 53.5182 40.2098 54.1076 39.2566 54.51C38.3035 54.9125 37.2794 55.1198 36.2448 55.1198C35.2102 55.1198 34.186 54.9125 33.2329 54.51C32.2798 54.1076 31.417 53.5182 30.6955 52.7767C29.974 52.0352 29.4084 51.1566 29.0321 50.1928C28.6594 49.2382 28.4799 48.2191 28.5041 47.1948V45.3044C28.5041 44.299 27.6881 43.4815 26.6769 43.4815H19.0183C18.0115 43.4815 17.1955 44.2989 17.1955 45.3044V47.1948C17.2196 48.2191 17.0401 49.2382 16.6674 50.1928C16.2912 51.1566 15.7256 52.0352 15.0041 52.7767C14.2826 53.5182 13.4198 54.1076 12.4666 54.51C11.5135 54.9125 10.4894 55.1198 9.45477 55.1198C8.42016 55.1198 7.39605 54.9125 6.44292 54.51C5.48979 54.1076 4.62699 53.5182 3.90547 52.7767C3.18396 52.0352 2.61836 51.1566 2.2421 50.1928C1.8694 49.2382 1.68995 48.2191 1.71406 47.1948V14.6915C1.71406 13.9226 2.15491 13.2217 2.84803 12.8887C3.54115 12.5558 4.36379 12.6497 4.96405 13.1303L10.3371 17.4321C10.3375 17.4324 10.3379 17.4327 10.3383 17.433C10.3382 17.433 10.3383 17.4331 10.3383 17.433C12.6966 19.3178 15.6287 20.3458 18.6455 20.3458H29.2637L34.2481 10.3771L34.2495 10.3743C35.0529 8.77363 36.285 7.4275 37.8085 6.48592C39.3321 5.54433 41.0871 5.04429 42.8781 5.04151ZM43.8041 9.04151H42.8829C41.8331 9.0434 40.8045 9.33662 39.9115 9.88852C39.0186 10.4403 38.2964 11.2291 37.8253 12.1669C37.825 12.1675 37.8247 12.1681 37.8244 12.1687L32.2886 23.2402C31.9498 23.9178 31.2573 24.3458 30.4998 24.3458H18.6455C14.7199 24.3458 10.9067 23.0084 7.83955 20.5566L5.71406 18.8548V47.2201C5.71406 47.2383 5.71381 47.2565 5.71331 47.2747C5.69965 47.7747 5.78632 48.2723 5.9682 48.7381C6.15008 49.204 6.42349 49.6287 6.77227 49.9872C7.12105 50.3456 7.53812 50.6305 7.99886 50.825C8.4596 51.0196 8.95465 51.1198 9.45477 51.1198C9.95489 51.1198 10.4499 51.0196 10.9107 50.825C11.3714 50.6305 11.7885 50.3456 12.1373 49.9872C12.4861 49.6287 12.7595 49.204 12.9413 48.7381C13.1232 48.2723 13.2099 47.7747 13.1962 47.2747C13.1957 47.2565 13.1955 47.2383 13.1955 47.2201V45.3044C13.1955 42.0927 15.7995 39.4815 19.0183 39.4815H26.6769C29.8914 39.4815 32.5041 42.084 32.5041 45.3044V47.2201C32.5041 47.2383 32.5038 47.2565 32.5033 47.2747C32.4896 47.7747 32.5763 48.2723 32.7582 48.7381C32.9401 49.204 33.2135 49.6287 33.5623 49.9872C33.911 50.3456 34.3281 50.6305 34.7889 50.825C35.2496 51.0196 35.7446 51.1198 36.2448 51.1198C36.7449 51.1198 37.2399 51.0196 37.7007 50.825C38.1614 50.6305 38.5785 50.3456 38.9273 49.9872C39.2761 49.6287 39.5495 49.204 39.7313 48.7381C39.9132 48.2723 39.9999 47.7747 39.9862 47.2747C39.9859 47.2637 39.9857 47.2526 39.9856 47.2416C39.9855 47.2344 39.9855 47.2273 39.9855 47.2201V31.9115C39.9855 30.8069 40.8809 29.9115 41.9855 29.9115H49.6312C52.7538 29.9115 55.2855 27.3812 55.2855 24.2615V21.8759L45.1716 18.5046C44.3549 18.2324 43.8041 17.4681 43.8041 16.6072V9.04151Z" fill="#D9954C"/>
<path fill-rule="evenodd" clip-rule="evenodd" d="M30.077 19.9015C31.1501 19.6396 32.2323 20.2972 32.4942 21.3702C33.1163 23.9191 36.1481 29.3671 43.1475 30.032C44.2471 30.1364 45.0539 31.1125 44.9494 32.2122C44.845 33.3118 43.8689 34.1185 42.7693 34.0141C33.5258 33.1361 29.4862 25.9155 28.6083 22.3187C28.3464 21.2456 29.004 20.1634 30.077 19.9015Z" fill="#D9954C"/>
</svg>
