<svg width="61" height="60" viewBox="0 0 61 60" fill="none" xmlns="http://www.w3.org/2000/svg">
<path d="M46.8704 11.0176C47.6877 11.7606 47.7479 13.0255 47.0049 13.8429L46.9799 13.8704C46.2369 14.6877 44.972 14.7479 44.1546 14.0049C43.3373 13.2619 43.2771 11.997 44.0201 11.1796L44.0451 11.1521C44.7881 10.3348 46.053 10.2746 46.8704 11.0176Z" fill="#D9954C"/>
<path d="M25 32.5C25 31.3954 24.1046 30.5 23 30.5C21.8954 30.5 21 31.3954 21 32.5C21 35.0196 22.0009 37.4359 23.7825 39.2175C25.5641 40.9991 27.9804 42 30.5 42C31.6046 42 32.5 41.1046 32.5 40C32.5 38.8954 31.6046 38 30.5 38C29.0413 38 27.6424 37.4205 26.6109 36.3891C25.5795 35.3576 25 33.9587 25 32.5Z" fill="#D9954C"/>
<path fill-rule="evenodd" clip-rule="evenodd" d="M18.4792 20.4792C21.6673 17.2911 25.9913 15.5 30.5 15.5C35.0087 15.5 39.3327 17.2911 42.5208 20.4792C45.7089 23.6673 47.5 27.9913 47.5 32.5C47.5 37.0087 45.7089 41.3327 42.5208 44.5208C39.3327 47.7089 35.0087 49.5 30.5 49.5C25.9913 49.5 21.6673 47.7089 18.4792 44.5208C15.2911 41.3327 13.5 37.0087 13.5 32.5C13.5 27.9913 15.2911 23.6673 18.4792 20.4792ZM30.5 19.5C27.0522 19.5 23.7456 20.8696 21.3076 23.3076C18.8696 25.7456 17.5 29.0522 17.5 32.5C17.5 35.9478 18.8696 39.2544 21.3076 41.6924C23.7456 44.1304 27.0522 45.5 30.5 45.5C33.9478 45.5 37.2544 44.1304 39.6924 41.6924C42.1304 39.2544 43.5 35.9478 43.5 32.5C43.5 29.0522 42.1304 25.7456 39.6924 23.3076C37.2544 20.8696 33.9478 19.5 30.5 19.5Z" fill="#D9954C"/>
<path fill-rule="evenodd" clip-rule="evenodd" d="M8.05025 5.05025C9.36301 3.7375 11.1435 3 13 3H48C49.8565 3 51.637 3.7375 52.9497 5.05025C54.2625 6.36301 55 8.14348 55 10V50C55 51.8565 54.2625 53.637 52.9497 54.9497C51.637 56.2625 49.8565 57 48 57H13C11.1435 57 9.36301 56.2625 8.05025 54.9497C6.7375 53.637 6 51.8565 6 50V10C6 8.14349 6.7375 6.36301 8.05025 5.05025ZM13 7C12.2043 7 11.4413 7.31607 10.8787 7.87868C10.3161 8.44129 10 9.20435 10 10V50C10 50.7957 10.3161 51.5587 10.8787 52.1213C11.4413 52.6839 12.2044 53 13 53H48C48.7956 53 49.5587 52.6839 50.1213 52.1213C50.6839 51.5587 51 50.7956 51 50V10C51 9.20435 50.6839 8.44129 50.1213 7.87868C49.5587 7.31607 48.7957 7 48 7H13Z" fill="#D9954C"/>
</svg>
