<svg width="28" height="28" viewBox="0 0 28 28" fill="none" xmlns="http://www.w3.org/2000/svg">
<path d="M23.214 17.0363L14.464 8.28626C14.3409 8.16337 14.1741 8.09434 14.0002 8.09434C13.8263 8.09434 13.6595 8.16337 13.5365 8.28626L4.78648 17.0363C4.67056 17.1607 4.60745 17.3252 4.61045 17.4952C4.61345 17.6652 4.68233 17.8274 4.80256 17.9477C4.9228 18.0679 5.08501 18.1368 5.25502 18.1398C5.42504 18.1428 5.58958 18.0797 5.71398 17.9638L14.0002 9.67861L22.2865 17.9638C22.4109 18.0797 22.5754 18.1428 22.7454 18.1398C22.9155 18.1368 23.0777 18.0679 23.1979 17.9477C23.3181 17.8274 23.387 17.6652 23.39 17.4952C23.393 17.3252 23.3299 17.1607 23.214 17.0363Z" fill="#50535C"/>
</svg>
