<svg width="90" height="90" viewBox="0 0 90 90" fill="none" xmlns="http://www.w3.org/2000/svg">
<path fill-rule="evenodd" clip-rule="evenodd" d="M36.9508 38.1429C37.0128 37.9569 37.0763 37.7489 37.1337 37.5402C37.6221 35.7637 38.1619 34.7887 39.2743 33.6685C40.3082 32.6274 41.8901 31.7203 43.3783 31.316C44.3822 31.0431 46.1685 31.0412 47.1628 31.3118C49.7263 32.0094 51.8544 33.6721 52.8415 35.744C53.0079 36.0932 53.2904 36.8688 53.4689 37.4676C53.6446 38.0563 53.8284 38.6218 53.8785 38.7239C53.9299 38.8287 54.014 38.9133 54.2025 39.0184C54.5144 39.1922 55.0911 39.4101 56.2152 39.8068C58.7816 40.7127 60.7743 41.6116 62.632 42.7012C69.1038 46.4968 74.1385 52.2422 77.0672 59.1741C78.6582 62.9395 79.5286 67.1532 79.7801 72.3116C79.81 72.9261 79.8549 73.5394 79.8803 73.6747L79.927 73.9224L79.8474 74.0185H10.8256L10.7453 73.927L10.7829 73.6343C10.8035 73.4737 10.8636 72.6347 10.9165 71.77C11.2069 67.0211 11.8842 63.6673 13.3317 59.8078C14.2153 57.4521 15.6396 54.8816 17.3203 52.5129V39.1882C17.3203 36.578 18.3572 34.0747 20.2029 32.2291C20.8663 31.5655 21.6149 31.0065 22.4224 30.563V17.488C21.7968 17.2233 21.3578 16.6038 21.3578 15.8818V12.6412C21.3578 11.6785 22.1383 10.898 23.101 10.898H31.2257C32.1885 10.898 32.9689 11.6785 32.9689 12.6412V15.8818C32.9689 16.6038 32.53 17.2233 31.9045 17.488C31.9044 21.2974 31.9044 30.5629 31.9041 30.5627C32.712 31.0065 33.4604 31.5655 34.124 32.2291C35.7216 33.8267 36.7132 35.917 36.9508 38.1429ZM20.8068 48.3027C21.181 47.9199 21.558 47.5555 21.9357 47.2126C25.4428 44.0288 29.1342 41.7728 33.52 40.1416V39.1882C33.52 37.5027 32.8504 35.8862 31.6587 34.6944C31.0418 34.0775 30.3113 33.6006 29.5162 33.284C28.853 33.0199 28.4179 32.3782 28.4179 31.6645V15.8818C28.4179 15.2456 28.7588 14.6889 29.2679 14.3845L25.0589 14.3845C25.568 14.6889 25.9088 15.2455 25.9088 15.8818V31.6645C25.9088 32.3782 25.4737 33.0199 24.8107 33.284C24.0156 33.6006 23.285 34.0775 22.6682 34.6944C21.4763 35.8862 20.8068 37.5027 20.8068 39.1882V48.3027ZM40.5895 37.7683C40.5972 37.7711 40.6224 37.7799 40.6453 37.7852C40.7564 37.8104 40.961 37.8335 41.2368 37.8548C42.8412 37.9786 46.8083 38.0285 48.8537 37.9178C49.3288 37.892 49.7152 37.8517 49.926 37.8079C49.9923 37.7941 50.0578 37.7689 50.0578 37.7689C50.0821 37.7411 50.078 37.6957 50.0665 37.6392C50.049 37.5534 50.0044 37.4484 49.9394 37.3298C49.6183 36.7444 48.8071 35.856 48.0515 35.3515C46.3368 34.2064 43.7032 34.29 42.1146 35.541C41.7489 35.8289 41.0092 36.7948 40.7075 37.3763C40.637 37.5122 40.5948 37.6087 40.5802 37.6808C40.5723 37.7202 40.5724 37.7478 40.5895 37.7683ZM76.2539 69.8856C76.1675 67.3494 74.8914 62.4771 73.5491 59.5549C69.3294 50.3688 61.0039 43.8512 51.059 41.9485C49.706 41.6897 48.3072 41.5199 46.5331 41.3989C45.1476 41.3045 44.8271 41.3131 43.0777 41.4896C38.2333 41.9784 34.6943 42.9948 30.8879 44.9916C24.5052 48.3397 19.1291 54.2772 16.5791 60.7956C15.3174 64.0207 14.6573 66.821 14.3666 70.1827L14.3216 70.7029L45.2986 70.6804L76.2802 70.6578L76.2539 69.8856ZM13.3958 79.4177C9.58167 79.3817 6.27994 79.3245 6.05928 79.2914C5.70824 79.2388 5.36593 79.0266 5.11284 78.7411C4.85875 78.4544 4.69566 78.0944 4.69827 77.7526C4.70188 77.2939 5.03111 76.7066 5.43694 76.438L5.79491 76.2011C5.80789 76.1925 5.82294 76.1878 5.83843 76.1877L11.2766 76.1003C18.3432 75.987 72.3047 75.987 79.3708 76.1003L84.8089 76.1877C84.825 76.1878 84.8406 76.1929 84.8538 76.2021L85.2155 76.4527C85.4298 76.6012 85.6805 76.8922 85.7918 77.1213C85.8826 77.3083 85.9281 77.4233 85.9389 77.5423C85.9497 77.661 85.9262 77.7847 85.8714 77.9899C85.8063 78.2331 85.6475 78.5696 85.519 78.738C85.395 78.9007 85.3215 79.0186 85.1691 79.1084C85.0197 79.1965 84.7916 79.2579 84.3523 79.2992C83.5097 79.3783 81.8596 79.3913 78.3966 79.4324C70.9133 79.5212 23.2303 79.5104 13.3958 79.4177ZM65.3962 43.3959C64.9007 42.962 64.4347 42.5193 64.3594 42.4133C64.3124 42.3471 64.276 42.2493 64.2524 42.0845C64.2207 41.8624 64.2092 41.5065 64.2092 40.9147L64.2093 39.6669L63.6528 38.0579C62.9471 36.0173 62.8157 35.4464 62.814 34.4533C62.8115 33.0948 63.2223 32.3703 64.4236 31.6183C64.9968 31.2596 66.2225 30.7871 66.5711 30.7871C66.6931 30.7871 66.7932 30.8066 66.8798 30.8567C66.9664 30.9067 67.041 30.9878 67.1077 31.1179C67.2255 31.3477 67.3232 31.7447 67.4519 32.4158C67.5498 32.9256 67.6115 33.253 67.6185 33.4738C67.6238 33.6414 67.5974 33.7545 67.5402 33.8402C67.4914 33.9133 67.4192 33.9681 67.3172 34.0166C67.2282 34.0588 67.1144 34.0972 66.9721 34.1445C66.6441 34.2534 66.3994 34.3853 66.257 34.5308C66.1749 34.6147 66.1284 34.7014 66.1284 34.7906C66.1284 34.9058 66.2698 35.3764 66.4388 35.8373C66.6122 36.3102 66.893 37.0752 67.0627 37.5375C67.2337 38.0033 67.4378 38.696 67.5165 39.077C67.6786 39.8618 67.702 41.4415 67.5615 42.059C67.4856 42.3922 66.9111 43.5372 66.6213 43.9815C66.5663 44.066 66.5199 44.1265 66.4884 44.1555C66.4742 44.1687 66.4612 44.1775 66.4504 44.1829L66.4263 44.1918L66.404 44.1945L66.367 44.1867C66.3535 44.1811 66.327 44.1655 66.2906 44.1394C66.1456 44.0353 65.79 43.7408 65.3962 43.3959ZM59.9205 39.4861C59.3649 39.1171 59.0191 38.8936 58.8128 38.7212C58.6609 38.5942 58.5803 38.4901 58.5426 38.3817C58.5103 38.2886 58.5088 38.1909 58.528 38.0701C58.5452 37.9629 58.579 37.8353 58.6178 37.6707C58.9202 36.3865 58.6226 35.5596 56.8646 32.6374C55.3712 30.1552 54.9737 29.16 54.9737 27.9526C54.9737 26.3207 56.0985 24.9454 58.4177 23.7799C58.7472 23.6143 59.052 23.473 59.1833 23.4231C59.2303 23.4053 59.2626 23.3987 59.2753 23.3987L59.3036 23.4023L59.3271 23.4109C59.3426 23.4183 59.3602 23.4302 59.3786 23.4481C59.4241 23.4921 59.484 23.5837 59.5502 23.7101C59.7947 24.178 60.1528 25.149 60.3141 25.7709C60.3639 25.9629 60.3949 26.1227 60.3997 26.2263C60.4024 26.2838 60.3965 26.3277 60.3856 26.3562C60.3754 26.3825 60.3321 26.436 60.2565 26.5017C60.1135 26.626 59.8471 26.8213 59.5543 27.0122C59.0058 27.3696 58.6745 27.6507 58.5807 28.0304C58.5251 28.2552 58.5543 28.5127 58.665 28.8384C58.8389 29.3505 59.2117 30.0226 59.7883 30.9788C60.6852 32.4661 61.5206 34.0749 61.848 34.9438C61.9625 35.2476 62.1052 35.83 62.1649 36.2383C62.3081 37.218 62.1278 38.1686 61.57 39.35C61.3721 39.769 61.1954 40.1168 61.1507 40.1797L61.1339 40.1997L61.1133 40.2146L61.087 40.2231L61.0578 40.2221L61.0391 40.2157C61.0351 40.2139 61.0267 40.2093 61.0142 40.2018C60.9164 40.1428 60.4572 39.8426 59.9205 39.4861Z" fill="#50535C"/>
</svg>
