<svg width="92" height="90" viewBox="0 0 92 90" fill="none" xmlns="http://www.w3.org/2000/svg">
<g clip-path="url(#clip0_5_4885)">
<path d="M22.6749 76.7556C24.9342 76.7556 26.7658 78.5871 26.7658 80.8465C26.7658 83.1058 24.9342 84.9374 22.6749 84.9374C20.4155 84.9374 18.584 83.1058 18.584 80.8465C18.584 78.5871 20.4155 76.7556 22.6749 76.7556Z" fill="#50535C"/>
<path d="M32.7069 70.9639C33.8365 69.0072 36.3385 68.3368 38.2951 69.4665C40.2518 70.5962 40.9222 73.0981 39.7925 75.0548C38.6628 77.0114 36.1609 77.6818 34.2042 76.5521C32.2476 75.4225 31.5772 72.9205 32.7069 70.9639Z" fill="#50535C"/>
<path d="M32.7068 59.3785C31.5771 57.4219 32.2475 54.9199 34.2042 53.7903C36.1608 52.6606 38.6628 53.331 39.7924 55.2876C40.9221 57.2443 40.2517 59.7462 38.2951 60.8759C36.3384 62.0056 33.8365 61.3352 32.7068 59.3785Z" fill="#50535C"/>
<path d="M16.1302 68.5984C14.0431 64.9835 15.2817 60.3611 18.8966 58.2741C22.5116 56.187 27.1339 57.4256 29.221 61.0405C31.3081 64.6554 30.0695 69.2778 26.4546 71.3649C22.8397 73.4519 18.2173 72.2134 16.1302 68.5984Z" fill="#50535C"/>
<path d="M22.6749 45.4073C24.9342 45.4073 26.7658 47.2388 26.7658 49.4982C26.7658 51.7575 24.9342 53.5891 22.6749 53.5891C20.4155 53.5891 18.584 51.7575 18.584 49.4982C18.584 47.2388 20.4155 45.4073 22.6749 45.4073Z" fill="#50535C"/>
<path d="M5.55942 55.2877C6.68909 53.331 9.19104 52.6606 11.1477 53.7903C13.1043 54.92 13.7747 57.4219 12.6451 59.3786C11.5154 61.3352 9.01343 62.0056 7.05679 60.8759C5.10014 59.7463 4.42974 57.2443 5.55942 55.2877Z" fill="#50535C"/>
<path d="M5.55934 75.0547C4.42966 73.0981 5.10006 70.5961 7.05671 69.4665C9.01335 68.3368 11.5153 69.0072 12.645 70.9638C13.7747 72.9205 13.1043 75.4224 11.1476 76.5521C9.19096 77.6818 6.68901 77.0114 5.55934 75.0547Z" fill="#50535C"/>
<path d="M69.3907 76.7556C71.65 76.7556 73.4816 78.5871 73.4816 80.8465C73.4816 83.1058 71.65 84.9374 69.3907 84.9374C67.1314 84.9374 65.2998 83.1058 65.2998 80.8465C65.2998 78.5871 67.1314 76.7556 69.3907 76.7556Z" fill="#50535C"/>
<path d="M79.4217 70.9639C80.5514 69.0072 83.0533 68.3368 85.01 69.4665C86.9666 70.5962 87.637 73.0981 86.5074 75.0548C85.3777 77.0114 82.8757 77.6818 80.9191 76.5521C78.9624 75.4225 78.292 72.9205 79.4217 70.9639Z" fill="#50535C"/>
<path d="M79.4226 59.3785C78.2929 57.4218 78.9633 54.9199 80.92 53.7902C82.8766 52.6605 85.3786 53.3309 86.5083 55.2876C87.6379 57.2442 86.9675 59.7462 85.0109 60.8758C83.0542 62.0055 80.5523 61.3351 79.4226 59.3785Z" fill="#50535C"/>
<path d="M62.846 68.5984C60.759 64.9834 61.9975 60.3611 65.6125 58.274C69.2274 56.1869 73.8498 57.4255 75.9368 61.0404C78.0239 64.6553 76.7853 69.2777 73.1704 71.3648C69.5555 73.4519 64.9331 72.2133 62.846 68.5984Z" fill="#50535C"/>
<path d="M69.3907 45.4073C71.65 45.4073 73.4816 47.2388 73.4816 49.4982C73.4816 51.7575 71.65 53.5891 69.3907 53.5891C67.1314 53.5891 65.2998 51.7575 65.2998 49.4982C65.2998 47.2388 67.1314 45.4073 69.3907 45.4073Z" fill="#50535C"/>
<path d="M52.2752 55.2874C53.4049 53.3308 55.9069 52.6604 57.8635 53.7901C59.8202 54.9197 60.4906 57.4217 59.3609 59.3783C58.2312 61.335 55.7293 62.0054 53.7726 60.8757C51.816 59.746 51.1456 57.2441 52.2752 55.2874Z" fill="#50535C"/>
<path d="M52.2752 75.0547C51.1455 73.0981 51.8159 70.5961 53.7725 69.4665C55.7292 68.3368 58.2311 69.0072 59.3608 70.9638C60.4905 72.9205 59.8201 75.4224 57.8634 76.5521C55.9068 77.6818 53.4048 77.0114 52.2752 75.0547Z" fill="#50535C"/>
<path d="M46.0333 36.4118C48.2926 36.4118 50.1242 38.2434 50.1242 40.5027C50.1242 42.7621 48.2926 44.5936 46.0333 44.5936C43.7739 44.5936 41.9424 42.7621 41.9424 40.5027C41.9424 38.2434 43.7739 36.4118 46.0333 36.4118Z" fill="#50535C"/>
<path d="M56.0643 30.6202C57.194 28.6636 59.6959 27.9932 61.6526 29.1229C63.6092 30.2525 64.2796 32.7545 63.1499 34.7111C62.0203 36.6678 59.5183 37.3382 57.5617 36.2085C55.605 35.0788 54.9346 32.5769 56.0643 30.6202Z" fill="#50535C"/>
<path d="M56.0652 19.0347C54.9355 17.0781 55.6059 14.5761 57.5626 13.4464C59.5192 12.3168 62.0212 12.9872 63.1508 14.9438C64.2805 16.9005 63.6101 19.4024 61.6535 20.5321C59.6968 21.6618 57.1949 20.9914 56.0652 19.0347Z" fill="#50535C"/>
<path d="M39.4886 28.2548C37.4015 24.6399 38.6401 20.0175 42.255 17.9304C45.87 15.8434 50.4923 17.0819 52.5794 20.6968C54.6665 24.3118 53.4279 28.9342 49.813 31.0212C46.1981 33.1083 41.5757 31.8697 39.4886 28.2548Z" fill="#50535C"/>
<path d="M46.0333 5.06357C48.2926 5.06357 50.1242 6.89512 50.1242 9.15446C50.1242 11.4138 48.2926 13.2454 46.0333 13.2454C43.7739 13.2454 41.9424 11.4138 41.9424 9.15446C41.9424 6.89512 43.7739 5.06357 46.0333 5.06357Z" fill="#50535C"/>
<path d="M28.9178 14.9436C30.0475 12.987 32.5494 12.3166 34.5061 13.4462C36.4627 14.5759 37.1331 17.0779 36.0035 19.0345C34.8738 20.9912 32.3718 21.6616 30.4152 20.5319C28.4585 19.4022 27.7881 16.9003 28.9178 14.9436Z" fill="#50535C"/>
<path d="M28.9177 34.7112C27.7881 32.7545 28.4585 30.2526 30.4151 29.1229C32.3718 27.9932 34.8737 28.6636 36.0034 30.6203C37.133 32.5769 36.4627 35.0789 34.506 36.2085C32.5494 37.3382 30.0474 36.6678 28.9177 34.7112Z" fill="#50535C"/>
</g>
<defs>
<clipPath id="clip0_5_4885">
<rect width="90.8182" height="90" fill="white" transform="translate(0.257812)"/>
</clipPath>
</defs>
</svg>
