<svg width="90" height="90" viewBox="0 0 90 90" fill="none" xmlns="http://www.w3.org/2000/svg">
<path fill-rule="evenodd" clip-rule="evenodd" d="M36.8615 38.1429C36.9235 37.9569 36.9869 37.7489 37.0443 37.5402C37.5328 35.7637 38.0726 34.7887 39.185 33.6685C40.2188 32.6274 41.8007 31.7203 43.289 31.316C44.2928 31.0431 46.0792 31.0412 47.0735 31.3118C49.637 32.0094 51.765 33.6721 52.7521 35.744C52.9185 36.0932 53.201 36.8688 53.3796 37.4676C53.5552 38.0563 53.7391 38.6218 53.7891 38.7239C53.8405 38.8287 53.9246 38.9133 54.1131 39.0184C54.425 39.1922 55.0017 39.4101 56.1258 39.8068C58.6922 40.7127 60.6849 41.6116 62.5427 42.7012C69.0145 46.4968 74.0492 52.2422 76.9779 59.1741C78.5688 62.9395 79.4393 67.1532 79.6908 72.3116C79.7207 72.9261 79.7656 73.5394 79.791 73.6747L79.8376 73.9224L79.758 74.0185H10.7363L10.6559 73.927L10.6936 73.6343C10.7142 73.4737 10.7743 72.6347 10.8272 71.77C11.1176 67.0211 11.7949 63.6673 13.2424 59.8078C14.1259 57.4521 15.5503 54.8816 17.231 52.5129V39.1882C17.231 36.578 18.2679 34.0747 20.1135 32.2291C20.777 31.5655 21.5255 31.0065 22.333 30.563V17.488C21.7075 17.2233 21.2685 16.6038 21.2685 15.8818V12.6412C21.2685 11.6785 22.0489 10.898 23.0117 10.898H31.1364C32.0991 10.898 32.8796 11.6785 32.8796 12.6412V15.8818C32.8796 16.6038 32.4407 17.2233 31.8151 17.488C31.815 21.2974 31.815 30.5629 31.8147 30.5627C32.6226 31.0065 33.3711 31.5655 34.0346 32.2291C35.6322 33.8267 36.6238 35.917 36.8615 38.1429ZM20.7174 48.3027C21.0916 47.9199 21.4686 47.5555 21.8463 47.2126C25.3535 44.0288 29.0449 41.7728 33.4306 40.1416V39.1882C33.4306 37.5027 32.7611 35.8862 31.5693 34.6944C30.9525 34.0775 30.2219 33.6006 29.4268 33.284C28.7637 33.0199 28.3286 32.3782 28.3286 31.6645V15.8818C28.3286 15.2456 28.6694 14.6889 29.1785 14.3845L24.9695 14.3845C25.4786 14.6889 25.8195 15.2455 25.8195 15.8818V31.6645C25.8195 32.3782 25.3844 33.0199 24.7213 33.284C23.9262 33.6006 23.1957 34.0775 22.5788 34.6944C21.387 35.8862 20.7174 37.5027 20.7174 39.1882V48.3027ZM40.5001 37.7683C40.5079 37.7711 40.5331 37.7799 40.556 37.7852C40.6671 37.8104 40.8717 37.8335 41.1474 37.8548C42.7519 37.9786 46.7189 38.0285 48.7643 37.9178C49.2394 37.892 49.6258 37.8517 49.8367 37.8079C49.903 37.7941 49.9685 37.7689 49.9685 37.7689C49.9927 37.7411 49.9887 37.6957 49.9771 37.6392C49.9596 37.5534 49.915 37.4484 49.8501 37.3298C49.5289 36.7444 48.7178 35.856 47.9622 35.3515C46.2474 34.2064 43.6139 34.29 42.0253 35.541C41.6595 35.8289 40.9198 36.7948 40.6181 37.3763C40.5477 37.5122 40.5054 37.6087 40.4908 37.6808C40.4829 37.7202 40.4831 37.7478 40.5001 37.7683ZM76.1645 69.8856C76.0781 67.3494 74.8021 62.4771 73.4597 59.5549C69.24 50.3688 60.9145 43.8512 50.9696 41.9485C49.6166 41.6897 48.2179 41.5199 46.4437 41.3989C45.0582 41.3045 44.7377 41.3131 42.9884 41.4896C38.1439 41.9784 34.605 42.9948 30.7986 44.9916C24.4159 48.3397 19.0398 54.2772 16.4898 60.7956C15.2281 64.0207 14.568 66.821 14.2772 70.1827L14.2323 70.7029L45.2092 70.6804L76.1908 70.6578L76.1645 69.8856ZM43.4873 49.7322H40.436C39.4738 49.7322 38.6927 48.9511 38.6927 47.989C38.6927 47.0268 39.4738 46.2457 40.436 46.2457H50.0251C50.9873 46.2457 51.7684 47.0268 51.7684 47.989C51.7684 48.9511 50.9873 49.7322 50.0251 49.7322H46.9738V63.0097H50.0251C50.9873 63.0097 51.7684 63.7908 51.7684 64.753C51.7684 65.7151 50.9873 66.4962 50.0251 66.4962H40.436C39.4738 66.4962 38.6927 65.7151 38.6927 64.753C38.6927 63.7908 39.4738 63.0097 40.436 63.0097H43.4873V49.7322ZM13.3065 79.4177C9.49231 79.3817 6.19058 79.3245 5.96992 79.2914C5.61888 79.2388 5.27658 79.0266 5.02348 78.7411C4.76939 78.4544 4.6063 78.0944 4.60892 77.7526C4.61252 77.2939 4.94176 76.7066 5.34758 76.438L5.70556 76.2011C5.71853 76.1925 5.73358 76.1878 5.74908 76.1877L11.1872 76.1003C18.2538 75.987 72.2153 75.987 79.2814 76.1003L84.7196 76.1877C84.7356 76.1878 84.7512 76.1929 84.7645 76.2021L85.1261 76.4527C85.3404 76.6012 85.5912 76.8922 85.7024 77.1213C85.7933 77.3083 85.8388 77.4233 85.8496 77.5423C85.8604 77.661 85.8369 77.7847 85.782 77.9899C85.7169 78.2331 85.5582 78.5696 85.4297 78.738C85.3056 78.9007 85.2321 79.0186 85.0797 79.1084C84.9303 79.1965 84.7022 79.2579 84.263 79.2992C83.4203 79.3783 81.7703 79.3913 78.3072 79.4324C70.8239 79.5212 23.141 79.5104 13.3065 79.4177ZM65.3069 43.3959C64.8114 42.962 64.3454 42.5193 64.27 42.4133C64.223 42.3471 64.1866 42.2493 64.1631 42.0845C64.1314 41.8624 64.1198 41.5065 64.1198 40.9147L64.1199 39.6669L63.5635 38.0579C62.8578 36.0173 62.7263 35.4464 62.7246 34.4533C62.7222 33.0948 63.1329 32.3703 64.3343 31.6183C64.9074 31.2596 66.1331 30.7871 66.4817 30.7871C66.6037 30.7871 66.7038 30.8066 66.7905 30.8567C66.8771 30.9067 66.9517 30.9878 67.0184 31.1179C67.1361 31.3477 67.2339 31.7447 67.3625 32.4158C67.4604 32.9256 67.5221 33.253 67.5291 33.4738C67.5345 33.6414 67.5081 33.7545 67.4508 33.8402C67.402 33.9133 67.3298 33.9681 67.2278 34.0166C67.1388 34.0588 67.025 34.0972 66.8828 34.1445C66.5548 34.2534 66.3101 34.3853 66.1676 34.5308C66.0855 34.6147 66.039 34.7014 66.039 34.7906C66.039 34.9058 66.1804 35.3764 66.3494 35.8373C66.5229 36.3102 66.8036 37.0752 66.9733 37.5375C67.1443 38.0033 67.3484 38.696 67.4272 39.077C67.5892 39.8618 67.6127 41.4415 67.4721 42.059C67.3962 42.3922 66.8218 43.5372 66.532 43.9815C66.4769 44.066 66.4305 44.1265 66.3991 44.1555C66.3848 44.1687 66.3719 44.1775 66.3611 44.1829L66.3369 44.1918L66.3147 44.1945L66.2776 44.1867C66.2641 44.1811 66.2376 44.1655 66.2012 44.1394C66.0562 44.0353 65.7006 43.7408 65.3069 43.3959ZM59.8311 39.4861C59.2755 39.1171 58.9297 38.8936 58.7234 38.7212C58.5716 38.5942 58.4909 38.4901 58.4533 38.3817C58.4209 38.2886 58.4194 38.1909 58.4387 38.0701C58.4558 37.9629 58.4897 37.8353 58.5284 37.6707C58.8309 36.3865 58.5333 35.5596 56.7752 32.6374C55.2818 30.1552 54.8843 29.16 54.8843 27.9526C54.8843 26.3207 56.0091 24.9454 58.3284 23.7799C58.6578 23.6143 58.9626 23.473 59.094 23.4231C59.1409 23.4053 59.1733 23.3987 59.186 23.3987L59.2143 23.4023L59.2377 23.4109C59.2533 23.4183 59.2709 23.4302 59.2892 23.4481C59.3347 23.4921 59.3947 23.5837 59.4608 23.7101C59.7053 24.178 60.0634 25.149 60.2247 25.7709C60.2745 25.9629 60.3055 26.1227 60.3104 26.2263C60.3131 26.2838 60.3071 26.3277 60.2962 26.3562C60.2861 26.3825 60.2427 26.436 60.1671 26.5017C60.0241 26.626 59.7578 26.8213 59.4649 27.0122C58.9165 27.3696 58.5852 27.6507 58.4913 28.0304C58.4357 28.2552 58.465 28.5127 58.5756 28.8384C58.7495 29.3505 59.1224 30.0226 59.6989 30.9788C60.5958 32.4661 61.4313 34.0749 61.7587 34.9438C61.8731 35.2476 62.0159 35.83 62.0756 36.2383C62.2188 37.218 62.0385 38.1686 61.4806 39.35C61.2828 39.769 61.1061 40.1168 61.0614 40.1797L61.0445 40.1997L61.0239 40.2146L60.9977 40.2231L60.9684 40.2221L60.9498 40.2157C60.9457 40.2139 60.9373 40.2093 60.9249 40.2018C60.827 40.1428 60.3679 39.8426 59.8311 39.4861Z" fill="#50535C"/>
</svg>
