<svg width="90" height="90" viewBox="0 0 90 90" fill="none" xmlns="http://www.w3.org/2000/svg">
<path fill-rule="evenodd" clip-rule="evenodd" d="M36.7804 38.1429C36.8424 37.9569 36.9059 37.7489 36.9632 37.5402C37.4517 35.7637 37.9915 34.7887 39.1039 33.6685C40.1378 32.6274 41.7197 31.7203 43.2079 31.316C44.2118 31.0431 45.9981 31.0412 46.9924 31.3118C49.5559 32.0094 51.684 33.6721 52.6711 35.744C52.8375 36.0932 53.1199 36.8688 53.2985 37.4676C53.4741 38.0563 53.658 38.6218 53.708 38.7239C53.7595 38.8287 53.8436 38.9133 54.0321 39.0184C54.344 39.1922 54.9207 39.4101 56.0448 39.8068C58.6112 40.7127 60.6039 41.6116 62.4616 42.7012C68.9334 46.4968 73.9681 52.2422 76.8968 59.1741C78.4878 62.9395 79.3582 67.1532 79.6097 72.3116C79.6396 72.9261 79.6845 73.5394 79.7099 73.6747L79.7566 73.9224L79.6769 74.0185H10.6552L10.5748 73.927L10.6125 73.6343C10.6331 73.4737 10.6932 72.6347 10.7461 71.77C11.0365 67.0211 11.7138 63.6673 13.1613 59.8078C14.0449 57.4521 15.4692 54.8816 17.1499 52.5129V39.1882C17.1499 36.578 18.1868 34.0747 20.0325 32.2291C20.6959 31.5655 21.4445 31.0065 22.252 30.563V17.488C21.6264 17.2233 21.1874 16.6038 21.1874 15.8818V12.6412C21.1874 11.6785 21.9679 10.898 22.9306 10.898H31.0553C32.018 10.898 32.7985 11.6785 32.7985 12.6412V15.8818C32.7985 16.6038 32.3596 17.2233 31.734 17.488C31.734 21.2974 31.734 30.5629 31.7337 30.5627C32.5415 31.0065 33.29 31.5655 33.9535 32.2291C35.5512 33.8267 36.5427 35.917 36.7804 38.1429ZM20.6364 48.3027C21.0105 47.9199 21.3875 47.5555 21.7653 47.2126C25.2724 44.0288 28.9638 41.7728 33.3496 40.1416V39.1882C33.3496 37.5027 32.68 35.8862 31.4882 34.6944C30.8714 34.0775 30.1408 33.6006 29.3458 33.284C28.6826 33.0199 28.2475 32.3782 28.2475 31.6645V15.8818C28.2475 15.2456 28.5884 14.6889 29.0975 14.3845L24.8885 14.3845C25.3976 14.6889 25.7384 15.2455 25.7384 15.8818V31.6645C25.7384 32.3782 25.3033 33.0199 24.6403 33.284C23.8452 33.6006 23.1146 34.0775 22.4978 34.6944C21.3059 35.8862 20.6364 37.5027 20.6364 39.1882V48.3027ZM76.0835 69.8856C75.997 67.3494 74.721 62.4771 73.3787 59.5549C69.159 50.3688 60.8335 43.8512 50.8885 41.9485C49.5356 41.6897 48.1368 41.5199 46.3627 41.3989C44.9772 41.3045 44.6567 41.3131 42.9073 41.4896C38.0629 41.9784 34.5239 42.9948 30.7175 44.9916C24.3348 48.3397 18.9587 54.2772 16.4087 60.7956C15.147 64.0207 14.4869 66.821 14.1962 70.1827L14.1512 70.7029L45.1282 70.6804L76.1098 70.6578L76.0835 69.8856ZM40.8552 49.7322H40.3549C39.3928 49.7322 38.6117 48.9511 38.6117 47.989C38.6117 47.0268 39.3928 46.2457 40.3549 46.2457H49.9441C50.9062 46.2457 51.6873 47.0268 51.6873 47.989C51.6873 48.9511 50.9062 49.7322 49.9441 49.7322H49.4438V63.0097H49.9441C50.9062 63.0097 51.6873 63.7908 51.6873 64.753C51.6873 65.7151 50.9062 66.4962 49.9441 66.4962H40.3549C39.3928 66.4962 38.6117 65.7151 38.6117 64.753C38.6117 63.7908 39.3928 63.0097 40.3549 63.0097H40.8552V49.7322ZM45.9573 49.7322H44.3418V63.0097H45.9573V49.7322ZM40.4191 37.7683C40.4268 37.7711 40.452 37.7799 40.4749 37.7852C40.586 37.8104 40.7906 37.8335 41.0664 37.8548C42.6708 37.9786 46.6379 38.0285 48.6833 37.9178C49.1584 37.892 49.5448 37.8517 49.7556 37.8079C49.8219 37.7941 49.8874 37.7689 49.8874 37.7689C49.9117 37.7411 49.9076 37.6957 49.8961 37.6392C49.8786 37.5534 49.834 37.4484 49.769 37.3298C49.4479 36.7444 48.6367 35.856 47.8811 35.3515C46.1664 34.2064 43.5328 34.29 41.9442 35.541C41.5785 35.8289 40.8388 36.7948 40.5371 37.3763C40.4666 37.5122 40.4244 37.6087 40.4098 37.6808C40.4018 37.7202 40.402 37.7478 40.4191 37.7683ZM13.2254 79.4177C9.41125 79.3817 6.10953 79.3245 5.88887 79.2914C5.53783 79.2388 5.19552 79.0266 4.94243 78.7411C4.68834 78.4544 4.52525 78.0944 4.52786 77.7526C4.53147 77.2939 4.8607 76.7066 5.26653 76.438L5.6245 76.2011C5.63748 76.1925 5.65253 76.1878 5.66802 76.1877L11.1062 76.1003C18.1728 75.987 72.1343 75.987 79.2004 76.1003L84.6385 76.1877C84.6546 76.1878 84.6702 76.1929 84.6834 76.2021L85.0451 76.4527C85.2593 76.6012 85.5101 76.8922 85.6214 77.1213C85.7122 77.3083 85.7577 77.4233 85.7685 77.5423C85.7793 77.661 85.7558 77.7847 85.7009 77.9899C85.6359 78.2331 85.4771 78.5696 85.3486 78.738C85.2246 78.9007 85.151 79.0186 84.9987 79.1084C84.8493 79.1965 84.6211 79.2579 84.1819 79.2992C83.3393 79.3783 81.6892 79.3913 78.2262 79.4324C70.7429 79.5212 23.0599 79.5104 13.2254 79.4177ZM65.2258 43.3959C64.7303 42.962 64.2643 42.5193 64.189 42.4133C64.1419 42.3471 64.1055 42.2493 64.082 42.0845C64.0503 41.8624 64.0388 41.5065 64.0388 40.9147L64.0389 39.6669L63.4824 38.0579C62.7767 36.0173 62.6453 35.4464 62.6435 34.4533C62.6411 33.0948 63.0519 32.3703 64.2532 31.6183C64.8264 31.2596 66.052 30.7871 66.4007 30.7871C66.5226 30.7871 66.6228 30.8066 66.7094 30.8567C66.796 30.9067 66.8706 30.9878 66.9373 31.1179C67.0551 31.3477 67.1528 31.7447 67.2815 32.4158C67.3793 32.9256 67.4411 33.253 67.4481 33.4738C67.4534 33.6414 67.427 33.7545 67.3698 33.8402C67.321 33.9133 67.2488 33.9681 67.1468 34.0166C67.0578 34.0588 66.944 34.0972 66.8017 34.1445C66.4737 34.2534 66.229 34.3853 66.0865 34.5308C66.0045 34.6147 65.958 34.7014 65.958 34.7906C65.958 34.9058 66.0993 35.3764 66.2684 35.8373C66.4418 36.3102 66.7226 37.0752 66.8923 37.5375C67.0633 38.0033 67.2673 38.696 67.3461 39.077C67.5082 39.8618 67.5316 41.4415 67.3911 42.059C67.3152 42.3922 66.7407 43.5372 66.4509 43.9815C66.3959 44.066 66.3495 44.1265 66.318 44.1555C66.3038 44.1687 66.2908 44.1775 66.28 44.1829L66.2559 44.1918L66.2336 44.1945L66.1966 44.1867C66.183 44.1811 66.1566 44.1655 66.1202 44.1394C65.9752 44.0353 65.6195 43.7408 65.2258 43.3959ZM59.7501 39.4861C59.1945 39.1171 58.8487 38.8936 58.6423 38.7212C58.4905 38.5942 58.4099 38.4901 58.3722 38.3817C58.3399 38.2886 58.3383 38.1909 58.3576 38.0701C58.3747 37.9629 58.4086 37.8353 58.4474 37.6707C58.7498 36.3865 58.4522 35.5596 56.6941 32.6374C55.2008 30.1552 54.8032 29.16 54.8032 27.9526C54.8032 26.3207 55.9281 24.9454 58.2473 23.7799C58.5768 23.6143 58.8816 23.473 59.0129 23.4231C59.0599 23.4053 59.0922 23.3987 59.1049 23.3987L59.1332 23.4023L59.1567 23.4109C59.1722 23.4183 59.1898 23.4302 59.2082 23.4481C59.2537 23.4921 59.3136 23.5837 59.3797 23.7101C59.6243 24.178 59.9824 25.149 60.1436 25.7709C60.1935 25.9629 60.2245 26.1227 60.2293 26.2263C60.232 26.2838 60.2261 26.3277 60.2152 26.3562C60.205 26.3825 60.1617 26.436 60.0861 26.5017C59.9431 26.626 59.6767 26.8213 59.3839 27.0122C58.8354 27.3696 58.5041 27.6507 58.4102 28.0304C58.3546 28.2552 58.3839 28.5127 58.4946 28.8384C58.6685 29.3505 59.0413 30.0226 59.6179 30.9788C60.5148 32.4661 61.3502 34.0749 61.6776 34.9438C61.7921 35.2476 61.9348 35.83 61.9945 36.2383C62.1377 37.218 61.9574 38.1686 61.3996 39.35C61.2017 39.769 61.025 40.1168 60.9803 40.1797L60.9635 40.1997L60.9429 40.2146L60.9166 40.2231L60.8873 40.2221L60.8687 40.2157C60.8646 40.2139 60.8563 40.2093 60.8438 40.2018C60.746 40.1428 60.2868 39.8426 59.7501 39.4861Z" fill="#50535C"/>
</svg>
