<svg width="90" height="90" viewBox="0 0 90 90" fill="none" xmlns="http://www.w3.org/2000/svg">
<g clip-path="url(#clip0_5_5612)">
<path d="M83.2293 75.112C82.986 74.9163 82.7162 74.507 82.6295 74.2025C82.5319 73.8596 82.4719 68.7495 82.4719 60.7861V47.9237L81.7184 47.8118C79.0087 47.409 77.2525 45.7165 76.4518 42.7359C76.1896 41.7604 76.1544 41.0135 76.1602 36.5538C76.168 30.5766 76.4121 28.7904 77.7743 24.7443C78.718 21.9418 81.426 17.1208 82.9462 15.5371C83.452 15.0102 83.6422 14.9163 84.2041 14.9163C84.7097 14.9163 84.9898 15.0257 85.3886 15.3789L85.911 15.8414V74.5444L85.3886 75.0069C84.7294 75.5908 83.8759 75.6323 83.2293 75.112ZM82.4646 33.5023L82.4572 22.6044L82.0031 23.5765C81.2938 25.0946 80.4417 27.6826 80.0786 29.4205C79.3377 32.9685 79.2918 40.5298 79.9993 42.5419C80.4113 43.714 81.1048 44.2949 82.192 44.3788C82.4561 44.3991 82.4714 43.7864 82.4646 33.5023ZM9.76119 74.5081L9.29139 74.0221L9.24868 56.4485L9.20597 38.8748L8.65828 38.5393C7.83578 38.0356 6.5334 36.5466 6.00075 35.5009C4.40373 32.3656 4.09277 30.2298 4.09277 22.3946C4.09277 17.6656 4.13148 16.7063 4.33991 16.271C4.9623 14.9712 6.81093 15.0674 7.38534 16.4295C7.56065 16.8455 7.61184 17.8812 7.61184 21.0141V25.0614H9.19254L9.29139 16.3165L9.81381 15.8541C10.8412 14.9449 12.3711 15.3944 12.631 16.682C12.6857 16.9533 12.7305 18.9496 12.7305 21.1183V25.0614H14.33L14.3313 21.1381C14.3318 18.9384 14.4044 16.9569 14.4967 16.6275C14.9384 15.0517 17.1167 14.9293 17.6992 16.4477C17.9065 16.988 17.8885 27.8194 17.6773 29.5791C17.1618 33.8772 15.6179 36.9976 13.2279 38.5723L12.8108 38.8472L12.7308 56.458L12.6508 74.0688L12.1284 74.5314C11.3801 75.194 10.4156 75.1845 9.76151 74.5079L9.76119 74.5081ZM11.8442 35.3494C12.8632 34.4626 13.9204 31.8225 14.2341 29.3809L14.3411 28.5487H7.61792L7.71165 29.3017C8.02181 31.7943 9.0289 34.3873 10.0376 35.2904C10.794 35.9676 11.1213 35.9784 11.8442 35.3494ZM43.4423 72.3585C43.2224 72.3277 42.4306 72.224 41.6828 72.128C38.9811 71.7815 35.752 70.7544 33.226 69.4383C26.9856 66.1869 22.31 60.9458 19.9204 54.5235C18.038 49.4643 17.7755 43.3801 19.2124 38.1199C21.8039 28.6334 29.3 21.2819 38.8941 18.8177C41.1381 18.2414 42.237 18.0882 44.8819 17.9839C52.2609 17.6926 59.325 20.3753 64.7712 25.5369C69.1564 29.6929 71.9662 34.9951 72.9617 40.9922C73.3116 43.1011 73.3107 47.2652 72.9597 49.3936C70.9428 61.6274 61.0632 70.9464 48.6871 72.2892C47.2343 72.4468 44.3453 72.4849 43.4423 72.3585ZM49.0408 68.7964C54.1151 68.1686 58.9894 65.7536 62.7882 61.9852C64.743 60.0459 66.0886 58.1627 67.3673 55.5757C73.1949 43.7864 68.2907 29.6908 56.289 23.7343C51.405 21.3102 44.8426 20.7107 39.4434 22.1952C35.4224 23.3007 31.8862 25.3227 28.9615 28.1886C22.3113 34.705 20.0503 44.0191 22.9863 52.8017C25.1758 59.3509 30.5126 64.9036 37.0141 67.3966C40.8651 68.8733 44.7581 69.3264 49.0408 68.7964ZM44.0821 64.4254C37.3238 63.7512 31.6552 59.9793 28.5095 54.0633C23.9107 45.4145 26.7736 34.5057 35.062 29.0967C38.3846 26.9284 41.6917 25.9582 45.7617 25.9582C49.8643 25.9582 53.2155 26.9474 56.5403 29.1393C64.7654 34.5622 67.5778 45.249 63.0752 53.9707C61.1216 57.7548 57.7882 60.9527 53.9793 62.6967C51.0061 64.0581 47.1508 64.7314 44.0821 64.4254ZM49.7165 60.5943C55.4078 59.0864 59.79 54.7296 61.3017 49.0766C61.6687 47.7049 61.7253 47.1818 61.7222 45.1929C61.7192 43.226 61.6581 42.6657 61.2984 41.3093C59.8029 35.671 55.4703 31.3581 49.7165 29.7799C48.6931 29.4992 48.0278 29.4396 45.8417 29.4326C42.7503 29.4229 41.4823 29.6861 38.9873 30.8548C34.2284 33.0843 30.8506 37.4278 29.9942 42.4189C29.7207 44.0132 29.7648 46.9377 30.0852 48.4425C31.4109 54.668 36.5101 59.6001 42.8825 60.8205C44.5211 61.1342 48.1295 61.0149 49.7165 60.5943Z" fill="#50535C"/>
</g>
<defs>
<clipPath id="clip0_5_5612">
<rect width="90" height="90" fill="white"/>
</clipPath>
</defs>
</svg>
