<svg width="92" height="90" viewBox="0 0 92 90" fill="none" xmlns="http://www.w3.org/2000/svg">
<g clip-path="url(#clip0_5_4682)">
<path d="M16.0821 37.1206C18.3415 37.1206 20.173 35.289 20.173 33.0297C20.173 30.7703 18.3415 28.9388 16.0821 28.9388C13.8228 28.9388 11.9912 30.7703 11.9912 33.0297C11.9912 35.289 13.8228 37.1206 16.0821 37.1206Z" fill="#50535C"/>
<path d="M16.0821 61.6376C18.3415 61.6376 20.173 59.806 20.173 57.5467C20.173 55.2874 18.3415 53.4558 16.0821 53.4558C13.8228 53.4558 11.9912 55.2874 11.9912 57.5467C11.9912 59.806 13.8228 61.6376 16.0821 61.6376Z" fill="#50535C"/>
<path d="M16.0821 86.1546C18.3415 86.1546 20.173 84.3231 20.173 82.0637C20.173 79.8044 18.3415 77.9728 16.0821 77.9728C13.8228 77.9728 11.9912 79.8044 11.9912 82.0637C11.9912 84.3231 13.8228 86.1546 16.0821 86.1546Z" fill="#50535C"/>
<path d="M28.338 37.1206C30.5973 37.1206 32.4289 35.289 32.4289 33.0297C32.4289 30.7703 30.5973 28.9388 28.338 28.9388C26.0786 28.9388 24.2471 30.7703 24.2471 33.0297C24.2471 35.289 26.0786 37.1206 28.338 37.1206Z" fill="#50535C"/>
<path d="M28.338 61.6376C30.5973 61.6376 32.4289 59.806 32.4289 57.5467C32.4289 55.2874 30.5973 53.4558 28.338 53.4558C26.0786 53.4558 24.2471 55.2874 24.2471 57.5467C24.2471 59.806 26.0786 61.6376 28.338 61.6376Z" fill="#50535C"/>
<path d="M28.338 86.1546C30.5973 86.1546 32.4289 84.3231 32.4289 82.0637C32.4289 79.8044 30.5973 77.9728 28.338 77.9728C26.0786 77.9728 24.2471 79.8044 24.2471 82.0637C24.2471 84.3231 26.0786 86.1546 28.338 86.1546Z" fill="#50535C"/>
<path d="M46.7237 12.0274C48.9831 12.0274 50.8146 10.1959 50.8146 7.93654C50.8146 5.6772 48.9831 3.84564 46.7237 3.84564C44.4644 3.84564 42.6328 5.6772 42.6328 7.93654C42.6328 10.1959 44.4644 12.0274 46.7237 12.0274Z" fill="#50535C"/>
<path d="M40.5968 37.1206C42.8561 37.1206 44.6877 35.289 44.6877 33.0297C44.6877 30.7703 42.8561 28.9388 40.5968 28.9388C38.3374 28.9388 36.5059 30.7703 36.5059 33.0297C36.5059 35.289 38.3374 37.1206 40.5968 37.1206Z" fill="#50535C"/>
<path d="M40.5968 61.6376C42.8561 61.6376 44.6877 59.806 44.6877 57.5467C44.6877 55.2874 42.8561 53.4558 40.5968 53.4558C38.3374 53.4558 36.5059 55.2874 36.5059 57.5467C36.5059 59.806 38.3374 61.6376 40.5968 61.6376Z" fill="#50535C"/>
<path d="M40.5968 86.1546C42.8561 86.1546 44.6877 84.3231 44.6877 82.0637C44.6877 79.8044 42.8561 77.9728 40.5968 77.9728C38.3374 77.9728 36.5059 79.8044 36.5059 82.0637C36.5059 84.3231 38.3374 86.1546 40.5968 86.1546Z" fill="#50535C"/>
<path d="M52.8516 37.1206C55.111 37.1206 56.9425 35.289 56.9425 33.0297C56.9425 30.7703 55.111 28.9388 52.8516 28.9388C50.5923 28.9388 48.7607 30.7703 48.7607 33.0297C48.7607 35.289 50.5923 37.1206 52.8516 37.1206Z" fill="#50535C"/>
<path d="M52.8516 61.6376C55.111 61.6376 56.9425 59.806 56.9425 57.5467C56.9425 55.2874 55.111 53.4558 52.8516 53.4558C50.5923 53.4558 48.7607 55.2874 48.7607 57.5467C48.7607 59.806 50.5923 61.6376 52.8516 61.6376Z" fill="#50535C"/>
<path d="M52.8516 86.1546C55.111 86.1546 56.9425 84.3231 56.9425 82.0637C56.9425 79.8044 55.111 77.9728 52.8516 77.9728C50.5923 77.9728 48.7607 79.8044 48.7607 82.0637C48.7607 84.3231 50.5923 86.1546 52.8516 86.1546Z" fill="#50535C"/>
<path d="M65.1065 37.1206C67.3659 37.1206 69.1974 35.289 69.1974 33.0297C69.1974 30.7703 67.3659 28.9388 65.1065 28.9388C62.8472 28.9388 61.0156 30.7703 61.0156 33.0297C61.0156 35.289 62.8472 37.1206 65.1065 37.1206Z" fill="#50535C"/>
<path d="M65.1065 61.6376C67.3659 61.6376 69.1974 59.806 69.1974 57.5467C69.1974 55.2874 67.3659 53.4558 65.1065 53.4558C62.8472 53.4558 61.0156 55.2874 61.0156 57.5467C61.0156 59.806 62.8472 61.6376 65.1065 61.6376Z" fill="#50535C"/>
<path d="M65.1065 86.1546C67.3659 86.1546 69.1974 84.3231 69.1974 82.0637C69.1974 79.8044 67.3659 77.9728 65.1065 77.9728C62.8472 77.9728 61.0156 79.8044 61.0156 82.0637C61.0156 84.3231 62.8472 86.1546 65.1065 86.1546Z" fill="#50535C"/>
<path d="M77.3624 37.1206C79.6217 37.1206 81.4533 35.289 81.4533 33.0297C81.4533 30.7703 79.6217 28.9388 77.3624 28.9388C75.103 28.9388 73.2715 30.7703 73.2715 33.0297C73.2715 35.289 75.103 37.1206 77.3624 37.1206Z" fill="#50535C"/>
<path d="M77.3624 61.6376C79.6217 61.6376 81.4533 59.806 81.4533 57.5467C81.4533 55.2874 79.6217 53.4558 77.3624 53.4558C75.103 53.4558 73.2715 55.2874 73.2715 57.5467C73.2715 59.806 75.103 61.6376 77.3624 61.6376Z" fill="#50535C"/>
<path d="M77.3624 86.1546C79.6217 86.1546 81.4533 84.3231 81.4533 82.0637C81.4533 79.8044 79.6217 77.9728 77.3624 77.9728C75.103 77.9728 73.2715 79.8044 73.2715 82.0637C73.2715 84.3231 75.103 86.1546 77.3624 86.1546Z" fill="#50535C"/>
<path d="M32.437 16.6661H11.999V24.8479H32.437V16.6661Z" fill="#50535C"/>
<path d="M32.437 41.1832H11.999V49.365H32.437V41.1832Z" fill="#50535C"/>
<path d="M32.437 65.7002H11.999V73.882H32.437V65.7002Z" fill="#50535C"/>
<path d="M56.9497 16.6661H36.5117V24.8479H56.9497V16.6661Z" fill="#50535C"/>
<path d="M56.9497 41.1832H36.5117V49.365H56.9497V41.1832Z" fill="#50535C"/>
<path d="M56.9497 65.7002H36.5117V73.882H56.9497V65.7002Z" fill="#50535C"/>
<path d="M81.4614 16.6661H61.0234V24.8479H81.4614V16.6661Z" fill="#50535C"/>
<path d="M81.4614 41.1832H61.0234V49.365H81.4614V41.1832Z" fill="#50535C"/>
<path d="M81.4614 65.7002H61.0234V73.882H81.4614V65.7002Z" fill="#50535C"/>
</g>
<defs>
<clipPath id="clip0_5_4682">
<rect width="90.8182" height="90" fill="white" transform="translate(0.923828)"/>
</clipPath>
</defs>
</svg>
