<svg width="669" height="732" viewBox="0 0 669 732" fill="none" xmlns="http://www.w3.org/2000/svg">
<g opacity="0.1">
<path d="M419.934 499.768H413.853V485.804H419.934C428.912 485.804 436.99 481.946 441.591 475.499C445.094 470.532 445.968 464.781 444.049 459.271L347.103 182.657C344.379 174.815 335.579 169.346 325.728 169.346H304.421V155.382H325.728C341.655 155.382 355.553 164.489 360.285 178.036L457.209 454.654C460.629 464.41 459.081 474.955 452.984 483.561C445.774 493.709 433.419 499.768 419.934 499.768Z" fill="#D9954C"/>
<path d="M544.801 499.768H534.035C508.634 499.768 486.521 485.391 479.029 463.997L382.794 189.386C380.206 181.978 381.356 173.984 385.999 167.469C391.359 159.915 400.53 155.382 410.553 155.382H430.051V169.346H410.553C405.042 169.346 400.138 171.652 397.372 175.552C396.216 177.189 394.496 180.566 395.955 184.77L492.184 459.381C497.633 474.935 514.845 485.804 534.035 485.804H544.801V499.768Z" fill="#D9954C"/>
<path d="M290.968 499.768H190.205V485.804H204.453C224.323 485.804 242.163 474.542 247.831 458.398L343.077 186.579C344.301 183.07 343.731 179.39 341.488 176.227C338.439 171.913 332.991 169.346 326.957 169.346H309.613V155.382H326.957C337.524 155.382 347.197 160.15 352.881 168.149C357.739 175.009 358.962 183.395 356.238 191.174L260.986 462.993C257.849 471.97 252.208 479.75 244.846 485.804H290.968V499.768Z" fill="#D9954C"/>
<path d="M421.235 366.084H283.307V380.048H421.235V366.084Z" fill="#D9954C"/>
<path d="M102.133 257.426C221.609 170.742 333.242 88.8585 365.22 15.465C365.79 14.158 366.899 13.9645 367.49 13.9645C367.359 14.0273 369.189 14.1161 369.775 15.4441C378.078 34.527 391.824 54.1798 409.623 74.3293C414.653 73.132 419.667 71.7779 424.613 70.1258C405.591 49.3176 390.972 29.1681 382.564 9.89177C379.908 3.79046 374.156 0 367.511 0H367.49C360.865 0 355.093 3.76954 352.431 9.87085C322.497 78.5746 215.726 157.719 100.235 241.543C100.627 246.771 101.28 252.067 102.133 257.426Z" fill="#D9954C"/>
<path d="M296.536 634.186C298.193 633.621 299.914 633.292 301.566 632.769C248.934 581.12 173.64 526.443 95.4501 469.738C80.2188 458.696 64.904 447.56 49.6309 436.408C27.0167 419.83 14.013 394.17 13.966 366C14.013 337.836 27.0167 312.176 49.6309 295.597C54.6661 291.917 59.6752 288.299 64.7052 284.639C63.5079 279.651 62.3523 274.663 61.4634 269.739C54.7706 274.616 48.0833 279.453 41.3958 284.336C15.1424 303.549 0.0470584 333.303 0 366C0.0470584 398.676 15.1424 428.435 41.3958 447.649C56.6898 458.848 72.0256 469.978 87.2568 481.02C162.399 535.524 234.926 588.136 286.382 637.302C289.759 636.345 293.137 635.341 296.536 634.186Z" fill="#D9954C"/>
<path d="M693.583 284.336C678.268 273.116 662.906 261.986 647.633 250.897C577.223 199.812 509.224 150.426 458.594 103.942C453.408 105.181 448.179 106.64 442.887 108.318C494.871 157.249 565.851 208.83 639.445 262.205C654.692 273.268 670.054 284.399 685.348 295.598C707.983 312.155 720.987 337.815 721.034 365.985C720.987 394.17 707.983 419.835 685.348 436.388C683.691 437.611 682.012 438.829 680.334 440.048C681.667 444.973 682.776 449.871 683.8 454.775C687.068 452.402 690.315 450.049 693.583 447.649C719.858 428.436 734.953 398.682 735 366.006V365.985C734.953 333.309 719.858 303.55 693.583 284.336Z" fill="#D9954C"/>
<path d="M643.435 466.889C642.102 467.845 640.773 468.828 639.445 469.785C517.507 558.251 402.344 641.793 369.754 716.535C369.189 717.863 367.353 717.91 367.489 718.041C366.899 718.041 365.785 717.842 365.22 716.535C358.292 700.657 347.464 684.361 333.827 667.74C328.729 668.676 323.699 669.894 318.706 671.29C333.634 688.763 345.288 705.754 352.431 722.113C355.092 728.21 360.865 732 367.489 732H367.511C374.156 731.979 379.908 728.189 382.564 722.113C413.476 651.162 526.286 569.121 646.049 482.249C645.458 477.214 644.434 472.054 643.435 466.889Z" fill="#D9954C"/>
<path d="M78.7549 428.022C77.0765 433.01 75.5758 437.976 74.2007 442.943C78.2738 445.908 82.3262 448.846 86.4046 451.81C87.9941 445.406 89.8033 438.959 91.9784 432.487C106.446 389.616 106.446 342.389 91.9784 299.518C68.1459 228.848 78.9954 161.556 121.019 119.537C159.277 81.2826 218.492 68.9754 282.063 85.0312C286.052 81.2198 289.974 77.4294 293.697 73.6598C222.194 53.1182 154.613 66.2096 111.152 109.666C65.2912 155.523 53.1552 228.174 78.7549 303.983C92.2607 343.979 92.2607 388.026 78.7549 428.022Z" fill="#D9954C"/>
<path d="M328.578 97.5738C363.589 104.198 400.143 101.934 433.999 90.5158C504.634 66.6647 571.906 77.5133 613.977 119.558C644.894 150.468 658.881 195.106 654.63 244.664C655.043 244.967 655.435 245.25 655.827 245.532C659.749 248.386 663.717 251.283 667.639 254.137C674.651 197.218 659.513 145.349 623.848 109.688C577.966 63.8102 505.35 51.7225 429.513 77.2936C400.713 87.0129 369.816 89.6009 339.84 85.3346C336.18 89.4074 332.52 93.4801 328.578 97.5738Z" fill="#D9954C"/>
<path d="M416.321 636.439C400.326 632.607 383.924 630.625 367.495 630.625C344.97 630.625 322.445 634.243 301.007 641.474C230.331 665.304 163.053 654.455 121.029 612.457C92.465 583.896 78.3474 543.686 79.6755 498.702C79.4821 498.545 79.2833 498.415 79.0689 498.263C74.7971 495.173 70.5253 492.036 66.2587 488.941C62.4208 541.485 77.8245 588.993 111.158 622.323C157.039 668.18 229.677 680.293 305.472 654.696C337.582 643.868 372.29 641.887 405.424 648.443C408.933 644.459 412.509 640.47 416.321 636.439Z" fill="#D9954C"/>
<path d="M656.23 303.973C656.821 302.232 657.275 300.507 657.819 298.766C653.856 295.89 649.866 292.994 645.903 290.097C644.988 293.234 644.073 296.371 643.006 299.508C628.538 342.379 628.538 389.606 643.006 432.477C666.839 503.146 655.989 570.412 613.966 612.437C577.626 648.773 522.416 661.754 462.485 649.227C458.433 653.107 454.469 657.007 450.72 660.839C469.606 665.524 488.168 667.877 506.014 667.877C552.33 667.877 593.814 652.323 623.833 622.302C669.714 576.451 681.83 503.821 656.23 428.033C642.745 388.016 642.745 343.969 656.23 303.973Z" fill="#D9954C"/>
</g>
</svg>
