<svg width="91" height="90" viewBox="0 0 91 90" fill="none" xmlns="http://www.w3.org/2000/svg">
<path d="M15.0538 24.5597C17.3131 24.5597 19.1447 22.7282 19.1447 20.4688C19.1447 18.2095 17.3131 16.3779 15.0538 16.3779C12.7944 16.3779 10.9629 18.2095 10.9629 20.4688C10.9629 22.7282 12.7944 24.5597 15.0538 24.5597Z" fill="#50535C"/>
<path d="M15.0538 36.8325C17.3131 36.8325 19.1447 35.0009 19.1447 32.7416C19.1447 30.4823 17.3131 28.6507 15.0538 28.6507C12.7944 28.6507 10.9629 30.4823 10.9629 32.7416C10.9629 35.0009 12.7944 36.8325 15.0538 36.8325Z" fill="#50535C"/>
<path d="M15.0538 49.1053C17.3131 49.1053 19.1447 47.2738 19.1447 45.0144C19.1447 42.7551 17.3131 40.9235 15.0538 40.9235C12.7944 40.9235 10.9629 42.7551 10.9629 45.0144C10.9629 47.2738 12.7944 49.1053 15.0538 49.1053Z" fill="#50535C"/>
<path d="M15.0538 61.3781C17.3131 61.3781 19.1447 59.5466 19.1447 57.2872C19.1447 55.0279 17.3131 53.1964 15.0538 53.1964C12.7944 53.1964 10.9629 55.0279 10.9629 57.2872C10.9629 59.5466 12.7944 61.3781 15.0538 61.3781Z" fill="#50535C"/>
<path d="M15.0538 73.6509C17.3131 73.6509 19.1447 71.8194 19.1447 69.56C19.1447 67.3007 17.3131 65.4691 15.0538 65.4691C12.7944 65.4691 10.9629 67.3007 10.9629 69.56C10.9629 71.8194 12.7944 73.6509 15.0538 73.6509Z" fill="#50535C"/>
<path d="M27.3097 85.9233C29.569 85.9233 31.4006 84.0918 31.4006 81.8324C31.4006 79.5731 29.569 77.7415 27.3097 77.7415C25.0503 77.7415 23.2188 79.5731 23.2188 81.8324C23.2188 84.0918 25.0503 85.9233 27.3097 85.9233Z" fill="#50535C"/>
<path d="M39.5684 36.8325C41.8278 36.8325 43.6593 35.0009 43.6593 32.7416C43.6593 30.4823 41.8278 28.6507 39.5684 28.6507C37.3091 28.6507 35.4775 30.4823 35.4775 32.7416C35.4775 35.0009 37.3091 36.8325 39.5684 36.8325Z" fill="#50535C"/>
<path d="M39.5684 49.1053C41.8278 49.1053 43.6593 47.2738 43.6593 45.0144C43.6593 42.7551 41.8278 40.9235 39.5684 40.9235C37.3091 40.9235 35.4775 42.7551 35.4775 45.0144C35.4775 47.2738 37.3091 49.1053 39.5684 49.1053Z" fill="#50535C"/>
<path d="M39.5684 61.3781C41.8278 61.3781 43.6593 59.5466 43.6593 57.2872C43.6593 55.0279 41.8278 53.1964 39.5684 53.1964C37.3091 53.1964 35.4775 55.0279 35.4775 57.2872C35.4775 59.5466 37.3091 61.3781 39.5684 61.3781Z" fill="#50535C"/>
<path d="M39.5684 73.6509C41.8278 73.6509 43.6593 71.8194 43.6593 69.56C43.6593 67.3007 41.8278 65.4691 39.5684 65.4691C37.3091 65.4691 35.4775 67.3007 35.4775 69.56C35.4775 71.8194 37.3091 73.6509 39.5684 73.6509Z" fill="#50535C"/>
<path d="M51.8233 36.8325C54.0827 36.8325 55.9142 35.0009 55.9142 32.7416C55.9142 30.4823 54.0827 28.6507 51.8233 28.6507C49.564 28.6507 47.7324 30.4823 47.7324 32.7416C47.7324 35.0009 49.564 36.8325 51.8233 36.8325Z" fill="#50535C"/>
<path d="M51.8233 12.2588C54.0827 12.2588 55.9142 10.4272 55.9142 8.16786C55.9142 5.90852 54.0827 4.07697 51.8233 4.07697C49.564 4.07697 47.7324 5.90852 47.7324 8.16786C47.7324 10.4272 49.564 12.2588 51.8233 12.2588Z" fill="#50535C"/>
<path d="M64.0782 12.2588C66.3375 12.2588 68.1691 10.4272 68.1691 8.16786C68.1691 5.90852 66.3375 4.07697 64.0782 4.07697C61.8189 4.07697 59.9873 5.90852 59.9873 8.16786C59.9873 10.4272 61.8189 12.2588 64.0782 12.2588Z" fill="#50535C"/>
<path d="M39.5684 12.2588C41.8278 12.2588 43.6593 10.4272 43.6593 8.16786C43.6593 5.90852 41.8278 4.07697 39.5684 4.07697C37.3091 4.07697 35.4775 5.90852 35.4775 8.16786C35.4775 10.4272 37.3091 12.2588 39.5684 12.2588Z" fill="#50535C"/>
<path d="M27.3097 12.2588C29.569 12.2588 31.4006 10.4272 31.4006 8.16786C31.4006 5.90852 29.569 4.07697 27.3097 4.07697C25.0503 4.07697 23.2188 5.90852 23.2188 8.16786C23.2188 10.4272 25.0503 12.2588 27.3097 12.2588Z" fill="#50535C"/>
<path d="M51.8233 49.1053C54.0827 49.1053 55.9142 47.2738 55.9142 45.0144C55.9142 42.7551 54.0827 40.9235 51.8233 40.9235C49.564 40.9235 47.7324 42.7551 47.7324 45.0144C47.7324 47.2738 49.564 49.1053 51.8233 49.1053Z" fill="#50535C"/>
<path d="M51.8233 61.3781C54.0827 61.3781 55.9142 59.5466 55.9142 57.2872C55.9142 55.0279 54.0827 53.1964 51.8233 53.1964C49.564 53.1964 47.7324 55.0279 47.7324 57.2872C47.7324 59.5466 49.564 61.3781 51.8233 61.3781Z" fill="#50535C"/>
<path d="M51.8233 73.6509C54.0827 73.6509 55.9142 71.8194 55.9142 69.56C55.9142 67.3007 54.0827 65.4691 51.8233 65.4691C49.564 65.4691 47.7324 67.3007 47.7324 69.56C47.7324 71.8194 49.564 73.6509 51.8233 73.6509Z" fill="#50535C"/>
<path d="M68.1767 16.3781H23.2266V24.5598H68.1767V16.3781Z" fill="#50535C"/>
<path d="M31.4082 73.6504L31.4082 16.4059H23.2264L23.2264 73.6504H31.4082Z" fill="#50535C"/>
<path d="M68.1729 73.6504V16.4059H59.991V73.6504H68.1729Z" fill="#50535C"/>
<path d="M64.0782 85.9233C66.3375 85.9233 68.1691 84.0918 68.1691 81.8324C68.1691 79.5731 66.3375 77.7415 64.0782 77.7415C61.8189 77.7415 59.9873 79.5731 59.9873 81.8324C59.9873 84.0918 61.8189 85.9233 64.0782 85.9233Z" fill="#50535C"/>
<path d="M76.3341 24.5597C78.5934 24.5597 80.425 22.7282 80.425 20.4688C80.425 18.2095 78.5934 16.3779 76.3341 16.3779C74.0747 16.3779 72.2432 18.2095 72.2432 20.4688C72.2432 22.7282 74.0747 24.5597 76.3341 24.5597Z" fill="#50535C"/>
<path d="M76.3341 36.8325C78.5934 36.8325 80.425 35.0009 80.425 32.7416C80.425 30.4823 78.5934 28.6507 76.3341 28.6507C74.0747 28.6507 72.2432 30.4823 72.2432 32.7416C72.2432 35.0009 74.0747 36.8325 76.3341 36.8325Z" fill="#50535C"/>
<path d="M76.3341 49.1053C78.5934 49.1053 80.425 47.2738 80.425 45.0144C80.425 42.7551 78.5934 40.9235 76.3341 40.9235C74.0747 40.9235 72.2432 42.7551 72.2432 45.0144C72.2432 47.2738 74.0747 49.1053 76.3341 49.1053Z" fill="#50535C"/>
<path d="M76.3341 61.3781C78.5934 61.3781 80.425 59.5466 80.425 57.2872C80.425 55.0279 78.5934 53.1964 76.3341 53.1964C74.0747 53.1964 72.2432 55.0279 72.2432 57.2872C72.2432 59.5466 74.0747 61.3781 76.3341 61.3781Z" fill="#50535C"/>
<path d="M76.3341 73.6509C78.5934 73.6509 80.425 71.8194 80.425 69.56C80.425 67.3007 78.5934 65.4691 76.3341 65.4691C74.0747 65.4691 72.2432 67.3007 72.2432 69.56C72.2432 71.8194 74.0747 73.6509 76.3341 73.6509Z" fill="#50535C"/>
</svg>
