<svg width="92" height="90" viewBox="0 0 92 90" fill="none" xmlns="http://www.w3.org/2000/svg">
<g clip-path="url(#clip0_5_4791)">
<path d="M15.504 24.5597C17.7633 24.5597 19.5949 22.7282 19.5949 20.4688C19.5949 18.2095 17.7633 16.3779 15.504 16.3779C13.2446 16.3779 11.4131 18.2095 11.4131 20.4688C11.4131 22.7282 13.2446 24.5597 15.504 24.5597Z" fill="#50535C"/>
<path d="M15.504 36.8325C17.7633 36.8325 19.5949 35.0009 19.5949 32.7416C19.5949 30.4823 17.7633 28.6507 15.504 28.6507C13.2446 28.6507 11.4131 30.4823 11.4131 32.7416C11.4131 35.0009 13.2446 36.8325 15.504 36.8325Z" fill="#50535C"/>
<path d="M15.504 49.1053C17.7633 49.1053 19.5949 47.2738 19.5949 45.0144C19.5949 42.7551 17.7633 40.9235 15.504 40.9235C13.2446 40.9235 11.4131 42.7551 11.4131 45.0144C11.4131 47.2738 13.2446 49.1053 15.504 49.1053Z" fill="#50535C"/>
<path d="M15.504 61.3781C17.7633 61.3781 19.5949 59.5466 19.5949 57.2872C19.5949 55.0279 17.7633 53.1964 15.504 53.1964C13.2446 53.1964 11.4131 55.0279 11.4131 57.2872C11.4131 59.5466 13.2446 61.3781 15.504 61.3781Z" fill="#50535C"/>
<path d="M15.504 73.6509C17.7633 73.6509 19.5949 71.8194 19.5949 69.56C19.5949 67.3007 17.7633 65.4691 15.504 65.4691C13.2446 65.4691 11.4131 67.3007 11.4131 69.56C11.4131 71.8194 13.2446 73.6509 15.504 73.6509Z" fill="#50535C"/>
<path d="M27.7589 85.9233C30.0182 85.9233 31.8498 84.0918 31.8498 81.8324C31.8498 79.5731 30.0182 77.7415 27.7589 77.7415C25.4995 77.7415 23.668 79.5731 23.668 81.8324C23.668 84.0918 25.4995 85.9233 27.7589 85.9233Z" fill="#50535C"/>
<path d="M27.7589 12.2588C30.0182 12.2588 31.8498 10.4272 31.8498 8.16786C31.8498 5.90852 30.0182 4.07697 27.7589 4.07697C25.4995 4.07697 23.668 5.90852 23.668 8.16786C23.668 10.4272 25.4995 12.2588 27.7589 12.2588Z" fill="#50535C"/>
<path d="M40.0186 85.9233C42.278 85.9233 44.1095 84.0918 44.1095 81.8324C44.1095 79.5731 42.278 77.7415 40.0186 77.7415C37.7593 77.7415 35.9277 79.5731 35.9277 81.8324C35.9277 84.0918 37.7593 85.9233 40.0186 85.9233Z" fill="#50535C"/>
<path d="M40.0186 12.2588C42.278 12.2588 44.1095 10.4272 44.1095 8.16786C44.1095 5.90852 42.278 4.07697 40.0186 4.07697C37.7593 4.07697 35.9277 5.90852 35.9277 8.16786C35.9277 10.4272 37.7593 12.2588 40.0186 12.2588Z" fill="#50535C"/>
<path d="M52.2735 85.9233C54.5329 85.9233 56.3644 84.0918 56.3644 81.8324C56.3644 79.5731 54.5329 77.7415 52.2735 77.7415C50.0142 77.7415 48.1826 79.5731 48.1826 81.8324C48.1826 84.0918 50.0142 85.9233 52.2735 85.9233Z" fill="#50535C"/>
<path d="M52.2735 12.2588C54.5329 12.2588 56.3644 10.4272 56.3644 8.16786C56.3644 5.90852 54.5329 4.07697 52.2735 4.07697C50.0142 4.07697 48.1826 5.90852 48.1826 8.16786C48.1826 10.4272 50.0142 12.2588 52.2735 12.2588Z" fill="#50535C"/>
<path d="M68.6206 65.4121H23.6709V73.5939H68.6206V65.4121Z" fill="#50535C"/>
<path d="M68.6206 16.3781H23.6709V24.5598H68.6206V16.3781Z" fill="#50535C"/>
<path d="M68.623 73.5938V16.3776H60.4412V73.5938H68.623Z" fill="#50535C"/>
<path d="M31.8584 73.5938L31.8584 16.3776H23.6766L23.6766 73.5938H31.8584Z" fill="#50535C"/>
<path d="M64.5284 85.9233C66.7877 85.9233 68.6193 84.0918 68.6193 81.8324C68.6193 79.5731 66.7877 77.7415 64.5284 77.7415C62.2691 77.7415 60.4375 79.5731 60.4375 81.8324C60.4375 84.0918 62.2691 85.9233 64.5284 85.9233Z" fill="#50535C"/>
<path d="M64.5284 12.2588C66.7877 12.2588 68.6193 10.4272 68.6193 8.16786C68.6193 5.90852 66.7877 4.07697 64.5284 4.07697C62.2691 4.07697 60.4375 5.90852 60.4375 8.16786C60.4375 10.4272 62.2691 12.2588 64.5284 12.2588Z" fill="#50535C"/>
<path d="M76.7843 24.5597C79.0436 24.5597 80.8752 22.7282 80.8752 20.4688C80.8752 18.2095 79.0436 16.3779 76.7843 16.3779C74.5249 16.3779 72.6934 18.2095 72.6934 20.4688C72.6934 22.7282 74.5249 24.5597 76.7843 24.5597Z" fill="#50535C"/>
<path d="M76.7843 36.8325C79.0436 36.8325 80.8752 35.0009 80.8752 32.7416C80.8752 30.4823 79.0436 28.6507 76.7843 28.6507C74.5249 28.6507 72.6934 30.4823 72.6934 32.7416C72.6934 35.0009 74.5249 36.8325 76.7843 36.8325Z" fill="#50535C"/>
<path d="M76.7843 49.1053C79.0436 49.1053 80.8752 47.2738 80.8752 45.0144C80.8752 42.7551 79.0436 40.9235 76.7843 40.9235C74.5249 40.9235 72.6934 42.7551 72.6934 45.0144C72.6934 47.2738 74.5249 49.1053 76.7843 49.1053Z" fill="#50535C"/>
<path d="M76.7843 61.3781C79.0436 61.3781 80.8752 59.5466 80.8752 57.2872C80.8752 55.0279 79.0436 53.1964 76.7843 53.1964C74.5249 53.1964 72.6934 55.0279 72.6934 57.2872C72.6934 59.5466 74.5249 61.3781 76.7843 61.3781Z" fill="#50535C"/>
<path d="M76.7843 73.6509C79.0436 73.6509 80.8752 71.8194 80.8752 69.56C80.8752 67.3007 79.0436 65.4691 76.7843 65.4691C74.5249 65.4691 72.6934 67.3007 72.6934 69.56C72.6934 71.8194 74.5249 73.6509 76.7843 73.6509Z" fill="#50535C"/>
</g>
<defs>
<clipPath id="clip0_5_4791">
<rect width="90.8182" height="90" fill="white" transform="translate(0.59082)"/>
</clipPath>
</defs>
</svg>
