<svg width="92" height="90" viewBox="0 0 92 90" fill="none" xmlns="http://www.w3.org/2000/svg">
<g clip-path="url(#clip0_5_4843)">
<path d="M15.4688 30.6819C17.7282 30.6819 19.5597 28.8503 19.5597 26.591C19.5597 24.3316 17.7282 22.5001 15.4688 22.5001C13.2095 22.5001 11.3779 24.3316 11.3779 26.591C11.3779 28.8503 13.2095 30.6819 15.4688 30.6819Z" fill="#50535C"/>
<path d="M15.4688 42.9546C17.7282 42.9546 19.5597 41.1231 19.5597 38.8637C19.5597 36.6044 17.7282 34.7728 15.4688 34.7728C13.2095 34.7728 11.3779 36.6044 11.3779 38.8637C11.3779 41.1231 13.2095 42.9546 15.4688 42.9546Z" fill="#50535C"/>
<path d="M15.4688 55.2275C17.7282 55.2275 19.5597 53.3959 19.5597 51.1366C19.5597 48.8772 17.7282 47.0457 15.4688 47.0457C13.2095 47.0457 11.3779 48.8772 11.3779 51.1366C11.3779 53.3959 13.2095 55.2275 15.4688 55.2275Z" fill="#50535C"/>
<path d="M15.4688 67.5003C17.7282 67.5003 19.5597 65.6687 19.5597 63.4094C19.5597 61.15 17.7282 59.3185 15.4688 59.3185C13.2095 59.3185 11.3779 61.15 11.3779 63.4094C11.3779 65.6687 13.2095 67.5003 15.4688 67.5003Z" fill="#50535C"/>
<path d="M27.7247 79.773C29.984 79.773 31.8156 77.9415 31.8156 75.6821C31.8156 73.4228 29.984 71.5912 27.7247 71.5912C25.4653 71.5912 23.6338 73.4228 23.6338 75.6821C23.6338 77.9415 25.4653 79.773 27.7247 79.773Z" fill="#50535C"/>
<path d="M27.7247 18.4095C29.984 18.4095 31.8156 16.5779 31.8156 14.3186C31.8156 12.0592 29.984 10.2277 27.7247 10.2277C25.4653 10.2277 23.6338 12.0592 23.6338 14.3186C23.6338 16.5779 25.4653 18.4095 27.7247 18.4095Z" fill="#50535C"/>
<path d="M39.9835 79.773C42.2428 79.773 44.0744 77.9415 44.0744 75.6821C44.0744 73.4228 42.2428 71.5912 39.9835 71.5912C37.7241 71.5912 35.8926 73.4228 35.8926 75.6821C35.8926 77.9415 37.7241 79.773 39.9835 79.773Z" fill="#50535C"/>
<path d="M39.9835 18.4095C42.2428 18.4095 44.0744 16.5779 44.0744 14.3186C44.0744 12.0592 42.2428 10.2277 39.9835 10.2277C37.7241 10.2277 35.8926 12.0592 35.8926 14.3186C35.8926 16.5779 37.7241 18.4095 39.9835 18.4095Z" fill="#50535C"/>
<path d="M52.2384 79.773C54.4977 79.773 56.3293 77.9415 56.3293 75.6821C56.3293 73.4228 54.4977 71.5912 52.2384 71.5912C49.979 71.5912 48.1475 73.4228 48.1475 75.6821C48.1475 77.9415 49.979 79.773 52.2384 79.773Z" fill="#50535C"/>
<path d="M52.2384 18.4095C54.4977 18.4095 56.3293 16.5779 56.3293 14.3186C56.3293 12.0592 54.4977 10.2277 52.2384 10.2277C49.979 10.2277 48.1475 12.0592 48.1475 14.3186C48.1475 16.5779 49.979 18.4095 52.2384 18.4095Z" fill="#50535C"/>
<path d="M68.5855 22.4936H23.6357V67.443H68.5855V22.4936Z" fill="#50535C"/>
<path d="M64.4932 79.773C66.7526 79.773 68.5841 77.9415 68.5841 75.6821C68.5841 73.4228 66.7526 71.5912 64.4932 71.5912C62.2339 71.5912 60.4023 73.4228 60.4023 75.6821C60.4023 77.9415 62.2339 79.773 64.4932 79.773Z" fill="#50535C"/>
<path d="M64.4932 18.4095C66.7526 18.4095 68.5841 16.5779 68.5841 14.3186C68.5841 12.0592 66.7526 10.2277 64.4932 10.2277C62.2339 10.2277 60.4023 12.0592 60.4023 14.3186C60.4023 16.5779 62.2339 18.4095 64.4932 18.4095Z" fill="#50535C"/>
<path d="M76.7491 30.6819C79.0084 30.6819 80.84 28.8503 80.84 26.591C80.84 24.3316 79.0084 22.5001 76.7491 22.5001C74.4898 22.5001 72.6582 24.3316 72.6582 26.591C72.6582 28.8503 74.4898 30.6819 76.7491 30.6819Z" fill="#50535C"/>
<path d="M76.7491 42.9546C79.0084 42.9546 80.84 41.1231 80.84 38.8637C80.84 36.6044 79.0084 34.7728 76.7491 34.7728C74.4898 34.7728 72.6582 36.6044 72.6582 38.8637C72.6582 41.1231 74.4898 42.9546 76.7491 42.9546Z" fill="#50535C"/>
<path d="M76.7491 55.2275C79.0084 55.2275 80.84 53.3959 80.84 51.1366C80.84 48.8772 79.0084 47.0457 76.7491 47.0457C74.4898 47.0457 72.6582 48.8772 72.6582 51.1366C72.6582 53.3959 74.4898 55.2275 76.7491 55.2275Z" fill="#50535C"/>
<path d="M76.7491 67.5003C79.0084 67.5003 80.84 65.6687 80.84 63.4094C80.84 61.15 79.0084 59.3185 76.7491 59.3185C74.4898 59.3185 72.6582 61.15 72.6582 63.4094C72.6582 65.6687 74.4898 67.5003 76.7491 67.5003Z" fill="#50535C"/>
</g>
<defs>
<clipPath id="clip0_5_4843">
<rect width="90.8182" height="90" fill="white" transform="translate(0.923828)"/>
</clipPath>
</defs>
</svg>
