<svg width="90" height="90" viewBox="0 0 90 90" fill="none" xmlns="http://www.w3.org/2000/svg">
<g clip-path="url(#clip0_5_4600)">
<path d="M14.3555 24.8196C16.6149 24.8196 18.4465 22.9881 18.4465 20.7287C18.4465 18.4694 16.6149 16.6378 14.3555 16.6378C12.0962 16.6378 10.2646 18.4694 10.2646 20.7287C10.2646 22.9881 12.0962 24.8196 14.3555 24.8196Z" fill="#50535C"/>
<path d="M14.3555 37.092C16.6149 37.092 18.4465 35.2605 18.4465 33.0011C18.4465 30.7418 16.6149 28.9102 14.3555 28.9102C12.0962 28.9102 10.2646 30.7418 10.2646 33.0011C10.2646 35.2605 12.0962 37.092 14.3555 37.092Z" fill="#50535C"/>
<path d="M14.3555 49.3648C16.6149 49.3648 18.4465 47.5332 18.4465 45.2739C18.4465 43.0145 16.6149 41.183 14.3555 41.183C12.0962 41.183 10.2646 43.0145 10.2646 45.2739C10.2646 47.5332 12.0962 49.3648 14.3555 49.3648Z" fill="#50535C"/>
<path d="M14.3555 61.6376C16.6149 61.6376 18.4465 59.806 18.4465 57.5467C18.4465 55.2874 16.6149 53.4558 14.3555 53.4558C12.0962 53.4558 10.2646 55.2874 10.2646 57.5467C10.2646 59.806 12.0962 61.6376 14.3555 61.6376Z" fill="#50535C"/>
<path d="M14.3555 73.9104C16.6149 73.9104 18.4465 72.0788 18.4465 69.8195C18.4465 67.5601 16.6149 65.7286 14.3555 65.7286C12.0962 65.7286 10.2646 67.5601 10.2646 69.8195C10.2646 72.0788 12.0962 73.9104 14.3555 73.9104Z" fill="#50535C"/>
<path d="M14.3555 86.1832C16.6149 86.1832 18.4465 84.3516 18.4465 82.0923C18.4465 79.833 16.6149 78.0014 14.3555 78.0014C12.0962 78.0014 10.2646 79.833 10.2646 82.0923C10.2646 84.3516 12.0962 86.1832 14.3555 86.1832Z" fill="#50535C"/>
<path d="M26.6104 24.8196C28.8698 24.8196 30.7013 22.9881 30.7013 20.7287C30.7013 18.4694 28.8698 16.6378 26.6104 16.6378C24.3511 16.6378 22.5195 18.4694 22.5195 20.7287C22.5195 22.9881 24.3511 24.8196 26.6104 24.8196Z" fill="#50535C"/>
<path d="M26.6104 37.092C28.8698 37.092 30.7013 35.2605 30.7013 33.0011C30.7013 30.7418 28.8698 28.9102 26.6104 28.9102C24.3511 28.9102 22.5195 30.7418 22.5195 33.0011C22.5195 35.2605 24.3511 37.092 26.6104 37.092Z" fill="#50535C"/>
<path d="M26.6104 49.3648C28.8698 49.3648 30.7013 47.5332 30.7013 45.2739C30.7013 43.0145 28.8698 41.183 26.6104 41.183C24.3511 41.183 22.5195 43.0145 22.5195 45.2739C22.5195 47.5332 24.3511 49.3648 26.6104 49.3648Z" fill="#50535C"/>
<path d="M26.6104 61.6376C28.8698 61.6376 30.7013 59.806 30.7013 57.5467C30.7013 55.2874 28.8698 53.4558 26.6104 53.4558C24.3511 53.4558 22.5195 55.2874 22.5195 57.5467C22.5195 59.806 24.3511 61.6376 26.6104 61.6376Z" fill="#50535C"/>
<path d="M26.6104 73.9104C28.8698 73.9104 30.7013 72.0788 30.7013 69.8195C30.7013 67.5601 28.8698 65.7286 26.6104 65.7286C24.3511 65.7286 22.5195 67.5601 22.5195 69.8195C22.5195 72.0788 24.3511 73.9104 26.6104 73.9104Z" fill="#50535C"/>
<path d="M26.6104 86.1832C28.8698 86.1832 30.7013 84.3516 30.7013 82.0923C30.7013 79.833 28.8698 78.0014 26.6104 78.0014C24.3511 78.0014 22.5195 79.833 22.5195 82.0923C22.5195 84.3516 24.3511 86.1832 26.6104 86.1832Z" fill="#50535C"/>
<path d="M38.8702 24.8196C41.1295 24.8196 42.9611 22.9881 42.9611 20.7287C42.9611 18.4694 41.1295 16.6378 38.8702 16.6378C36.6109 16.6378 34.7793 18.4694 34.7793 20.7287C34.7793 22.9881 36.6109 24.8196 38.8702 24.8196Z" fill="#50535C"/>
<path d="M38.8702 37.092C41.1295 37.092 42.9611 35.2605 42.9611 33.0011C42.9611 30.7418 41.1295 28.9102 38.8702 28.9102C36.6109 28.9102 34.7793 30.7418 34.7793 33.0011C34.7793 35.2605 36.6109 37.092 38.8702 37.092Z" fill="#50535C"/>
<path d="M38.8702 49.3648C41.1295 49.3648 42.9611 47.5332 42.9611 45.2739C42.9611 43.0145 41.1295 41.183 38.8702 41.183C36.6109 41.183 34.7793 43.0145 34.7793 45.2739C34.7793 47.5332 36.6109 49.3648 38.8702 49.3648Z" fill="#50535C"/>
<path d="M38.8702 61.6376C41.1295 61.6376 42.9611 59.806 42.9611 57.5467C42.9611 55.2874 41.1295 53.4558 38.8702 53.4558C36.6109 53.4558 34.7793 55.2874 34.7793 57.5467C34.7793 59.806 36.6109 61.6376 38.8702 61.6376Z" fill="#50535C"/>
<path d="M38.8702 73.9104C41.1295 73.9104 42.9611 72.0788 42.9611 69.8195C42.9611 67.5601 41.1295 65.7286 38.8702 65.7286C36.6109 65.7286 34.7793 67.5601 34.7793 69.8195C34.7793 72.0788 36.6109 73.9104 38.8702 73.9104Z" fill="#50535C"/>
<path d="M38.8702 86.1832C41.1295 86.1832 42.9611 84.3516 42.9611 82.0923C42.9611 79.833 41.1295 78.0014 38.8702 78.0014C36.6109 78.0014 34.7793 79.833 34.7793 82.0923C34.7793 84.3516 36.6109 86.1832 38.8702 86.1832Z" fill="#50535C"/>
<path d="M51.1251 24.8196C53.3844 24.8196 55.216 22.9881 55.216 20.7287C55.216 18.4694 53.3844 16.6378 51.1251 16.6378C48.8657 16.6378 47.0342 18.4694 47.0342 20.7287C47.0342 22.9881 48.8657 24.8196 51.1251 24.8196Z" fill="#50535C"/>
<path d="M51.1251 37.092C53.3844 37.092 55.216 35.2605 55.216 33.0011C55.216 30.7418 53.3844 28.9102 51.1251 28.9102C48.8657 28.9102 47.0342 30.7418 47.0342 33.0011C47.0342 35.2605 48.8657 37.092 51.1251 37.092Z" fill="#50535C"/>
<path d="M51.1251 49.3648C53.3844 49.3648 55.216 47.5332 55.216 45.2739C55.216 43.0145 53.3844 41.183 51.1251 41.183C48.8657 41.183 47.0342 43.0145 47.0342 45.2739C47.0342 47.5332 48.8657 49.3648 51.1251 49.3648Z" fill="#50535C"/>
<path d="M51.1251 61.6376C53.3844 61.6376 55.216 59.806 55.216 57.5467C55.216 55.2874 53.3844 53.4558 51.1251 53.4558C48.8657 53.4558 47.0342 55.2874 47.0342 57.5467C47.0342 59.806 48.8657 61.6376 51.1251 61.6376Z" fill="#50535C"/>
<path d="M51.1251 73.9104C53.3844 73.9104 55.216 72.0788 55.216 69.8195C55.216 67.5601 53.3844 65.7286 51.1251 65.7286C48.8657 65.7286 47.0342 67.5601 47.0342 69.8195C47.0342 72.0788 48.8657 73.9104 51.1251 73.9104Z" fill="#50535C"/>
<path d="M51.1251 86.1832C53.3844 86.1832 55.216 84.3516 55.216 82.0923C55.216 79.833 53.3844 78.0014 51.1251 78.0014C48.8657 78.0014 47.0342 79.833 47.0342 82.0923C47.0342 84.3516 48.8657 86.1832 51.1251 86.1832Z" fill="#50535C"/>
<path d="M63.38 24.8196C65.6393 24.8196 67.4709 22.9881 67.4709 20.7287C67.4709 18.4694 65.6393 16.6378 63.38 16.6378C61.1206 16.6378 59.2891 18.4694 59.2891 20.7287C59.2891 22.9881 61.1206 24.8196 63.38 24.8196Z" fill="#50535C"/>
<path d="M63.38 37.092C65.6393 37.092 67.4709 35.2605 67.4709 33.0011C67.4709 30.7418 65.6393 28.9102 63.38 28.9102C61.1206 28.9102 59.2891 30.7418 59.2891 33.0011C59.2891 35.2605 61.1206 37.092 63.38 37.092Z" fill="#50535C"/>
<path d="M63.38 49.3648C65.6393 49.3648 67.4709 47.5332 67.4709 45.2739C67.4709 43.0145 65.6393 41.183 63.38 41.183C61.1206 41.183 59.2891 43.0145 59.2891 45.2739C59.2891 47.5332 61.1206 49.3648 63.38 49.3648Z" fill="#50535C"/>
<path d="M63.38 61.6376C65.6393 61.6376 67.4709 59.806 67.4709 57.5467C67.4709 55.2874 65.6393 53.4558 63.38 53.4558C61.1206 53.4558 59.2891 55.2874 59.2891 57.5467C59.2891 59.806 61.1206 61.6376 63.38 61.6376Z" fill="#50535C"/>
<path d="M63.38 73.9104C65.6393 73.9104 67.4709 72.0788 67.4709 69.8195C67.4709 67.5601 65.6393 65.7286 63.38 65.7286C61.1206 65.7286 59.2891 67.5601 59.2891 69.8195C59.2891 72.0788 61.1206 73.9104 63.38 73.9104Z" fill="#50535C"/>
<path d="M63.38 86.1832C65.6393 86.1832 67.4709 84.3516 67.4709 82.0923C67.4709 79.833 65.6393 78.0014 63.38 78.0014C61.1206 78.0014 59.2891 79.833 59.2891 82.0923C59.2891 84.3516 61.1206 86.1832 63.38 86.1832Z" fill="#50535C"/>
<path d="M75.6358 24.8196C77.8952 24.8196 79.7267 22.9881 79.7267 20.7287C79.7267 18.4694 77.8952 16.6378 75.6358 16.6378C73.3765 16.6378 71.5449 18.4694 71.5449 20.7287C71.5449 22.9881 73.3765 24.8196 75.6358 24.8196Z" fill="#50535C"/>
<path d="M75.6358 37.092C77.8952 37.092 79.7267 35.2605 79.7267 33.0011C79.7267 30.7418 77.8952 28.9102 75.6358 28.9102C73.3765 28.9102 71.5449 30.7418 71.5449 33.0011C71.5449 35.2605 73.3765 37.092 75.6358 37.092Z" fill="#50535C"/>
<path d="M75.6358 49.3648C77.8952 49.3648 79.7267 47.5332 79.7267 45.2739C79.7267 43.0145 77.8952 41.183 75.6358 41.183C73.3765 41.183 71.5449 43.0145 71.5449 45.2739C71.5449 47.5332 73.3765 49.3648 75.6358 49.3648Z" fill="#50535C"/>
<path d="M75.6358 61.6376C77.8952 61.6376 79.7267 59.806 79.7267 57.5467C79.7267 55.2874 77.8952 53.4558 75.6358 53.4558C73.3765 53.4558 71.5449 55.2874 71.5449 57.5467C71.5449 59.806 73.3765 61.6376 75.6358 61.6376Z" fill="#50535C"/>
<path d="M75.6358 73.9104C77.8952 73.9104 79.7267 72.0788 79.7267 69.8195C79.7267 67.5601 77.8952 65.7286 75.6358 65.7286C73.3765 65.7286 71.5449 67.5601 71.5449 69.8195C71.5449 72.0788 73.3765 73.9104 75.6358 73.9104Z" fill="#50535C"/>
<path d="M75.6358 86.1832C77.8952 86.1832 79.7267 84.3516 79.7267 82.0923C79.7267 79.833 77.8952 78.0014 75.6358 78.0014C73.3765 78.0014 71.5449 79.833 71.5449 82.0923C71.5449 84.3516 73.3765 86.1832 75.6358 86.1832Z" fill="#50535C"/>
<path d="M59.3455 3.8172H30.709V11.999H59.3455V3.8172Z" fill="#50535C"/>
</g>
<defs>
<clipPath id="clip0_5_4600">
<rect width="90" height="90" fill="white"/>
</clipPath>
</defs>
</svg>
