<svg width="92" height="90" viewBox="0 0 92 90" fill="none" xmlns="http://www.w3.org/2000/svg">
<g clip-path="url(#clip0_5_4746)">
<path d="M45.5841 11.9993C47.8434 11.9993 49.675 10.1677 49.675 7.9084C49.675 5.64906 47.8434 3.8175 45.5841 3.8175C43.3247 3.8175 41.4932 5.64906 41.4932 7.9084C41.4932 10.1677 43.3247 11.9993 45.5841 11.9993Z" fill="#50535C"/>
<path d="M14.9425 24.8196C17.2018 24.8196 19.0334 22.9881 19.0334 20.7287C19.0334 18.4694 17.2018 16.6378 14.9425 16.6378C12.6831 16.6378 10.8516 18.4694 10.8516 20.7287C10.8516 22.9881 12.6831 24.8196 14.9425 24.8196Z" fill="#50535C"/>
<path d="M14.9425 37.092C17.2018 37.092 19.0334 35.2605 19.0334 33.0011C19.0334 30.7418 17.2018 28.9102 14.9425 28.9102C12.6831 28.9102 10.8516 30.7418 10.8516 33.0011C10.8516 35.2605 12.6831 37.092 14.9425 37.092Z" fill="#50535C"/>
<path d="M14.9425 49.3648C17.2018 49.3648 19.0334 47.5332 19.0334 45.2739C19.0334 43.0145 17.2018 41.183 14.9425 41.183C12.6831 41.183 10.8516 43.0145 10.8516 45.2739C10.8516 47.5332 12.6831 49.3648 14.9425 49.3648Z" fill="#50535C"/>
<path d="M14.9425 61.6376C17.2018 61.6376 19.0334 59.806 19.0334 57.5467C19.0334 55.2874 17.2018 53.4558 14.9425 53.4558C12.6831 53.4558 10.8516 55.2874 10.8516 57.5467C10.8516 59.806 12.6831 61.6376 14.9425 61.6376Z" fill="#50535C"/>
<path d="M14.9425 73.9104C17.2018 73.9104 19.0334 72.0788 19.0334 69.8195C19.0334 67.5601 17.2018 65.7286 14.9425 65.7286C12.6831 65.7286 10.8516 67.5601 10.8516 69.8195C10.8516 72.0788 12.6831 73.9104 14.9425 73.9104Z" fill="#50535C"/>
<path d="M27.1973 86.1832C29.4567 86.1832 31.2882 84.3516 31.2882 82.0923C31.2882 79.833 29.4567 78.0014 27.1973 78.0014C24.938 78.0014 23.1064 79.833 23.1064 82.0923C23.1064 84.3516 24.938 86.1832 27.1973 86.1832Z" fill="#50535C"/>
<path d="M39.4571 86.1832C41.7165 86.1832 43.548 84.3516 43.548 82.0923C43.548 79.833 41.7165 78.0014 39.4571 78.0014C37.1978 78.0014 35.3662 79.833 35.3662 82.0923C35.3662 84.3516 37.1978 86.1832 39.4571 86.1832Z" fill="#50535C"/>
<path d="M51.712 86.1832C53.9713 86.1832 55.8029 84.3516 55.8029 82.0923C55.8029 79.833 53.9713 78.0014 51.712 78.0014C49.4527 78.0014 47.6211 79.833 47.6211 82.0923C47.6211 84.3516 49.4527 86.1832 51.712 86.1832Z" fill="#50535C"/>
<path d="M68.0591 65.672H23.1094V73.8538H68.0591V65.672Z" fill="#50535C"/>
<path d="M68.0615 73.8552V16.639H59.8797V73.8552H68.0615Z" fill="#50535C"/>
<path d="M31.2969 73.8552L31.2969 16.639H23.1151L23.1151 73.8552H31.2969Z" fill="#50535C"/>
<path d="M63.9669 86.1832C66.2262 86.1832 68.0578 84.3516 68.0578 82.0923C68.0578 79.833 66.2262 78.0014 63.9669 78.0014C61.7075 78.0014 59.876 79.833 59.876 82.0923C59.876 84.3516 61.7075 86.1832 63.9669 86.1832Z" fill="#50535C"/>
<path d="M76.2218 24.8196C78.4811 24.8196 80.3127 22.9881 80.3127 20.7287C80.3127 18.4694 78.4811 16.6378 76.2218 16.6378C73.9624 16.6378 72.1309 18.4694 72.1309 20.7287C72.1309 22.9881 73.9624 24.8196 76.2218 24.8196Z" fill="#50535C"/>
<path d="M76.2218 37.092C78.4811 37.092 80.3127 35.2605 80.3127 33.0011C80.3127 30.7418 78.4811 28.9102 76.2218 28.9102C73.9624 28.9102 72.1309 30.7418 72.1309 33.0011C72.1309 35.2605 73.9624 37.092 76.2218 37.092Z" fill="#50535C"/>
<path d="M76.2218 49.3648C78.4811 49.3648 80.3127 47.5332 80.3127 45.2739C80.3127 43.0145 78.4811 41.183 76.2218 41.183C73.9624 41.183 72.1309 43.0145 72.1309 45.2739C72.1309 47.5332 73.9624 49.3648 76.2218 49.3648Z" fill="#50535C"/>
<path d="M76.2218 61.6376C78.4811 61.6376 80.3127 59.806 80.3127 57.5467C80.3127 55.2874 78.4811 53.4558 76.2218 53.4558C73.9624 53.4558 72.1309 55.2874 72.1309 57.5467C72.1309 59.806 73.9624 61.6376 76.2218 61.6376Z" fill="#50535C"/>
<path d="M76.2218 73.9104C78.4811 73.9104 80.3127 72.0788 80.3127 69.8195C80.3127 67.5601 78.4811 65.7286 76.2218 65.7286C73.9624 65.7286 72.1309 67.5601 72.1309 69.8195C72.1309 72.0788 73.9624 73.9104 76.2218 73.9104Z" fill="#50535C"/>
</g>
<defs>
<clipPath id="clip0_5_4746">
<rect width="90.8182" height="90" fill="white" transform="translate(0.257812)"/>
</clipPath>
</defs>
</svg>
