<svg width="168" height="70" viewBox="0 0 168 70" fill="none" xmlns="http://www.w3.org/2000/svg">
<path d="M8.35649 59.0894L5.67725 64.6058H11.0179L8.35649 59.0894ZM10.6151 69.7016V68.827H11.6147C12.7354 68.827 12.7695 68.1611 12.5427 67.6879L11.5965 65.7268H5.09986C4.64352 66.6545 4.32949 67.2672 4.32949 67.7583C4.32949 68.827 5.20402 68.827 5.73042 68.827H6.51768V69.7016H0.879883V68.827H1.14199C2.31615 68.827 2.87633 67.9147 3.48906 66.6545L8.44532 56.4464H9.46028L14.6433 67.0742C15.3092 68.4414 15.5544 68.827 16.4483 68.827H16.9385V69.7016H10.6151Z" fill="#50535C"/>
<path d="M31.9502 69.7022V68.8277H32.723C33.9297 68.8277 34.0339 68.5475 34.0339 67.6013V57.5677L28.6932 69.7022H27.9063L22.2841 57.548V66.7255C22.2841 68.2306 22.9159 68.8277 24.0172 68.8277H24.3847V69.7022H19.2017V68.8277H19.5708C20.7618 68.8277 21.2348 68.0742 21.2348 67.0058V58.8279C21.2348 57.9168 21.094 57.6369 19.9383 57.6369H19.2017V56.7611H24.2806L28.9043 66.6733L33.2469 56.7611H38.3255V57.6369H37.6258C36.4332 57.6369 36.3121 57.8818 36.3121 58.8448V67.6013C36.3121 68.5812 36.4332 68.8277 37.6258 68.8277H38.3777V69.7022H31.9502Z" fill="#50535C"/>
<path d="M48.6296 63.5039H45.0914V67.6013C45.0914 68.5812 45.1968 68.8277 46.2487 68.8277H48.5423C50.5544 68.8277 51.5709 68.0211 51.5709 66.2523C51.5709 64.3954 50.4502 63.5039 48.6296 63.5039ZM48.4538 57.6369H46.4414C45.1968 57.6369 45.0914 57.8818 45.0914 58.8448V62.6269H48.1226C50.2573 62.6269 50.9247 61.4709 50.9247 60.0021C50.9247 58.6181 50.2235 57.6369 48.4538 57.6369ZM49.5576 69.7022H40.7661V68.8277H41.5192C42.7103 68.8277 42.816 68.5812 42.816 67.6013V58.7053C42.816 57.8649 42.5864 57.6369 41.6781 57.6369H40.7661V56.7611H48.9633C52.5862 56.7611 53.6027 58.1085 53.6027 59.8951C53.6027 61.1906 52.8496 62.3479 50.9416 62.9253C53.2521 63.4504 54.304 64.5883 54.304 66.3399C54.304 68.1433 52.5862 69.7022 49.5576 69.7022Z" fill="#50535C"/>
<path d="M63.6826 59.0894L61.0033 64.6058H66.344L63.6826 59.0894ZM65.9411 69.7016V68.827H66.9408C68.0614 68.827 68.0955 68.1611 67.8688 67.6879L66.9226 65.7268H60.4259C59.9696 66.6545 59.6556 67.2672 59.6556 67.7583C59.6556 68.827 60.5301 68.827 61.0565 68.827H61.8438V69.7016H56.206V68.827H56.4681C57.6422 68.827 58.2024 67.9147 58.8151 66.6545L63.7714 56.4464H64.7864L69.9694 67.0742C70.6353 68.4414 70.8805 68.827 71.7744 68.827H72.2645V69.7016H65.9411Z" fill="#50535C"/>
<path d="M80.2854 69.9993C78.8491 69.9993 76.5712 69.5968 74.9785 68.949L74.7336 65.0262H75.7501C76.2909 68.0914 78.4985 69.0544 80.1966 69.0544C81.8609 69.0544 83.2083 68.214 83.2083 66.9173C83.2083 65.1488 81.1427 64.5361 79.0928 63.7842C76.4836 62.8211 74.9785 61.8046 74.9785 59.8082C74.9785 59.0547 75.4502 56.4458 80.2319 56.4458C82.1058 56.4458 83.4013 56.8483 84.7487 57.3216L84.9952 60.9639H84.0153C83.5758 58.3888 81.5806 57.3907 79.8825 57.3907C78.3746 57.3907 77.2371 58.1085 77.2371 59.2126C77.2371 60.5967 79.2858 61.1737 81.3526 61.9807C83.4182 62.803 85.4853 63.8714 85.4853 66.2695C85.4853 68.4067 83.4351 69.9993 80.2854 69.9993Z" fill="#50535C"/>
<path d="M94.0244 69.9993C92.5885 69.9993 90.3102 69.5968 88.7179 68.949L88.4726 65.0262H89.4892C90.03 68.0914 92.2378 69.0544 93.9359 69.0544C95.6002 69.0544 96.9476 68.214 96.9476 66.9173C96.9476 65.1488 94.882 64.5361 92.8321 63.7842C90.2229 62.8211 88.7179 61.8046 88.7179 59.8082C88.7179 59.0547 89.1895 56.4458 93.9709 56.4458C95.8451 56.4458 97.1406 56.8483 98.4881 57.3216L98.7345 60.9639H97.7543C97.3151 58.3888 95.3199 57.3907 93.6219 57.3907C92.114 57.3907 90.9761 58.1085 90.9761 59.2126C90.9761 60.5967 93.0248 61.1737 95.0919 61.9807C97.1575 62.803 99.2243 63.8714 99.2243 66.2695C99.2243 68.4067 97.1744 69.9993 94.0244 69.9993Z" fill="#50535C"/>
<path d="M108.707 59.0894L106.027 64.6058H111.368L108.707 59.0894ZM110.965 69.7016V68.827H111.965C113.086 68.827 113.119 68.1611 112.893 67.6879L111.947 65.7268H105.45C104.994 66.6545 104.68 67.2672 104.68 67.7583C104.68 68.827 105.554 68.827 106.081 68.827H106.868V69.7016H101.23V68.827H101.492C102.666 68.827 103.227 67.9147 103.839 66.6545L108.795 56.4464H109.811L114.994 67.0742C115.659 68.4414 115.904 68.827 116.799 68.827H117.288V69.7016H110.965Z" fill="#50535C"/>
<path d="M126.365 57.6371H125.174C123.984 57.6371 123.877 57.8808 123.877 58.8451V67.6003C123.877 68.5646 123.984 68.828 125.174 68.828H126.469C129.639 68.828 131.075 67.5312 131.075 63.2239C131.075 59.0381 129.447 57.6371 126.365 57.6371ZM127.345 69.7025H119.552V68.828H120.305C121.446 68.828 121.602 68.5987 121.602 67.6003V58.8451C121.602 57.8808 121.496 57.6371 120.305 57.6371H119.552V56.7601H127.31C133.107 56.7601 133.807 61.1218 133.807 63.2408C133.807 67.3032 131.672 69.7025 127.345 69.7025Z" fill="#50535C"/>
<path d="M143.854 57.391C141.946 57.391 139.266 58.3709 139.266 63.2581C139.266 67.5472 141.474 69.0551 143.767 69.0551C146.271 69.0551 148.39 67.5472 148.39 63.1877C148.39 58.2486 145.675 57.391 143.854 57.391ZM143.959 70C138.705 70 136.534 66.6023 136.534 63.1173C136.534 59.5101 139.021 56.4461 143.871 56.4461C147.618 56.4461 151.12 58.4244 151.12 63.3456C151.12 68.2666 147.112 70 143.959 70Z" fill="#50535C"/>
<path d="M160.151 57.6371H158.628C157.437 57.6371 157.331 57.8808 157.331 58.8451V62.8029H159.783C161.464 62.8029 162.831 62.5046 162.831 60.2632C162.831 58.3199 161.744 57.6371 160.151 57.6371ZM163.915 69.7025L160.833 64.973C160.255 64.0816 159.871 63.6775 158.801 63.6775H157.331V67.6003C157.331 68.5646 157.437 68.828 158.628 68.828H159.519V69.7025H153.007V68.828H153.759C154.949 68.828 155.056 68.5646 155.056 67.6003V58.8451C155.056 57.8285 154.915 57.6371 153.759 57.6371H153.007V56.7601H160.482C162.812 56.7601 165.562 57.3203 165.562 60.1928C165.562 61.7514 164.581 63.1705 162.076 63.4507C162.444 63.6083 162.724 63.8523 163.145 64.5013L165.299 67.8637C165.755 68.5646 166.123 68.828 166.7 68.828H167.12V69.7025H163.915Z" fill="#50535C"/>
<path d="M87.1366 29.8986H86.7729V29.0632H87.1366C87.6737 29.0632 88.1569 28.8323 88.4322 28.4467C88.6417 28.1496 88.694 27.8055 88.5792 27.4758L82.78 10.9275C82.617 10.4583 82.0906 10.1311 81.5013 10.1311H80.2268V9.29571H81.5013C82.4541 9.29571 83.2854 9.84057 83.5685 10.651L89.3664 27.1997C89.571 27.7833 89.4784 28.4142 89.1137 28.929C88.6824 29.5361 87.9433 29.8986 87.1366 29.8986Z" fill="#D9954C"/>
<path d="M94.606 29.8986H93.9621C92.4426 29.8986 91.1198 29.0385 90.6716 27.7586L84.915 11.33C84.7602 10.8868 84.829 10.4086 85.1067 10.0188C85.4273 9.56688 85.9759 9.29571 86.5755 9.29571H87.7419V10.1311H86.5755C86.2458 10.1311 85.9525 10.2691 85.787 10.5024C85.7179 10.6003 85.615 10.8024 85.7022 11.0538L91.4586 27.4824C91.7845 28.4129 92.8142 29.0632 93.9621 29.0632H94.606V29.8986Z" fill="#D9954C"/>
<path d="M79.422 29.8986H73.3945V29.0632H74.2468C75.4354 29.0632 76.5026 28.3895 76.8416 27.4236L82.5392 11.162C82.6123 10.9522 82.5782 10.732 82.4441 10.5427C82.2617 10.2847 81.9358 10.1311 81.5749 10.1311H80.5374V9.29571H81.5749C82.207 9.29571 82.7856 9.58096 83.1256 10.0595C83.4162 10.4699 83.4894 10.9716 83.3264 11.437L77.6286 27.6985C77.4409 28.2356 77.1034 28.701 76.663 29.0632H79.422V29.8986Z" fill="#D9954C"/>
<path d="M87.2145 21.9009H78.9638V22.7363H87.2145V21.9009Z" fill="#D9954C"/>
<path d="M68.1261 15.4005C75.273 10.2147 81.9508 5.31595 83.8637 0.925194C83.8978 0.847 83.9641 0.835426 83.9995 0.835426C83.9917 0.83918 84.1011 0.844497 84.1362 0.923943C84.6329 2.06558 85.4551 3.2413 86.5198 4.44674C86.8207 4.37512 87.1207 4.29411 87.4166 4.19527C86.2787 2.95042 85.4042 1.74498 84.9012 0.591774C84.7423 0.226764 84.3983 0 84.0007 0H83.9995C83.6032 0 83.2579 0.225513 83.0987 0.590523C81.308 4.70072 74.9211 9.43553 68.0125 14.4503C68.036 14.763 68.0751 15.0799 68.1261 15.4005Z" fill="#D9954C"/>
<path d="M79.7551 37.9401C79.8542 37.9063 79.9571 37.8866 80.056 37.8553C76.9076 34.7654 72.4036 31.4944 67.7263 28.102C66.8152 27.4414 65.8991 26.7752 64.9855 26.1081C63.6327 25.1163 62.8548 23.5812 62.852 21.8959C62.8548 20.211 63.6327 18.6759 64.9855 17.6841C65.2867 17.4639 65.5863 17.2474 65.8872 17.0285C65.8156 16.7301 65.7465 16.4317 65.6933 16.1371C65.2929 16.4289 64.8929 16.7182 64.4929 17.0104C62.9224 18.1598 62.0194 19.9398 62.0166 21.8959C62.0194 23.8508 62.9224 25.6311 64.4929 26.7806C65.4077 27.4505 66.3251 28.1164 67.2362 28.777C71.7311 32.0377 76.0696 35.1852 79.1477 38.1265C79.3497 38.0693 79.5518 38.0092 79.7551 37.9401Z" fill="#D9954C"/>
<path d="M103.506 17.0104C102.59 16.3392 101.671 15.6733 100.757 15.0099C96.5456 11.9537 92.4779 8.99924 89.4493 6.21834C89.139 6.29247 88.8262 6.37973 88.5097 6.48013C91.6193 9.40741 95.8653 12.4933 100.268 15.6864C101.18 16.3482 102.099 17.0141 103.013 17.6841C104.367 18.6747 105.145 20.2098 105.148 21.895C105.145 23.5812 104.367 25.1166 103.013 26.1069C102.914 26.18 102.814 26.2529 102.714 26.3258C102.793 26.6204 102.86 26.9135 102.921 27.2069C103.116 27.0649 103.311 26.9241 103.506 26.7806C105.078 25.6311 105.981 23.8511 105.984 21.8963V21.895C105.981 19.9402 105.078 18.1598 103.506 17.0104Z" fill="#D9954C"/>
<path d="M100.506 27.9316C100.426 27.9888 100.347 28.0476 100.268 28.1048C92.9734 33.3973 86.0844 38.3952 84.1349 42.8666C84.1011 42.9461 83.9913 42.9489 83.9995 42.9567C83.9641 42.9567 83.8975 42.9448 83.8637 42.8666C83.4493 41.9167 82.8015 40.9418 81.9858 39.9475C81.6809 40.0035 81.38 40.0764 81.0813 40.1599C81.9742 41.2052 82.6714 42.2217 83.0987 43.2004C83.2579 43.5651 83.6032 43.7918 83.9995 43.7918H84.0007C84.3983 43.7906 84.7423 43.5638 84.9012 43.2004C86.7503 38.9557 93.4985 34.0476 100.663 28.8505C100.627 28.5493 100.566 28.2406 100.506 27.9316Z" fill="#D9954C"/>
<path d="M66.7276 25.6064C66.6272 25.9048 66.5375 26.2019 66.4552 26.499C66.6989 26.6764 66.9413 26.8522 67.1852 27.0295C67.2803 26.6463 67.3885 26.2607 67.5187 25.8735C68.3841 23.3087 68.3841 20.4834 67.5187 17.9186C66.093 13.6908 66.742 9.66509 69.2558 7.15131C71.5444 4.86272 75.0866 4.12645 78.8893 5.08698C79.128 4.85897 79.3626 4.6322 79.5853 4.40669C75.308 3.17779 71.2654 3.96099 68.6656 6.56078C65.9223 9.30415 65.1963 13.6505 66.7276 18.1857C67.5355 20.5785 67.5355 23.2136 66.7276 25.6064Z" fill="#D9954C"/>
<path d="M81.6718 5.83735C83.7662 6.23363 85.9528 6.0982 87.978 5.4151C92.2033 3.98821 96.2275 4.63722 98.7441 7.15257C100.594 9.00171 101.43 11.6722 101.176 14.637C101.201 14.6551 101.224 14.672 101.248 14.6889C101.482 14.8597 101.72 15.033 101.954 15.2038C102.374 11.7986 101.468 8.6955 99.3346 6.56205C96.59 3.81744 92.2462 3.0943 87.7096 4.62408C85.9869 5.20554 84.1387 5.36036 82.3455 5.10514C82.1266 5.34879 81.9076 5.59244 81.6718 5.83735Z" fill="#D9954C"/>
<path d="M86.9205 38.0749C85.9637 37.8456 84.9825 37.7271 83.9998 37.7271C82.6524 37.7271 81.3049 37.9435 80.0226 38.3761C75.7948 39.8018 71.7703 39.1527 69.2565 36.6402C67.5478 34.9315 66.7033 32.5259 66.7827 29.8348C66.7711 29.8254 66.7593 29.8176 66.7464 29.8085C66.4909 29.6237 66.2354 29.436 65.9801 29.2509C65.7506 32.3943 66.672 35.2365 68.6659 37.2304C71.4106 39.9738 75.7556 40.6985 80.2897 39.1671C82.2104 38.5194 84.2866 38.4008 86.2687 38.793C86.4786 38.5547 86.6925 38.3161 86.9205 38.0749Z" fill="#D9954C"/>
<path d="M101.272 18.1852C101.307 18.081 101.334 17.9778 101.367 17.8736C101.13 17.7016 100.891 17.5283 100.654 17.355C100.599 17.5427 100.544 17.7304 100.481 17.918C99.6152 20.4828 99.6152 23.3081 100.481 25.8729C101.906 30.1007 101.257 34.1249 98.7435 36.639C96.5697 38.8128 93.267 39.5894 89.682 38.84C89.4396 39.0721 89.2025 39.3054 88.9783 39.5347C90.108 39.8149 91.2184 39.9557 92.2859 39.9557C95.0564 39.9557 97.538 39.0251 99.3337 37.2292C102.078 34.4861 102.803 30.141 101.272 25.607C100.465 23.213 100.465 20.5779 101.272 18.1852Z" fill="#D9954C"/>
</svg>
