<svg width="168" height="70" viewBox="0 0 168 70" fill="none" xmlns="http://www.w3.org/2000/svg">
<path d="M8.35747 59.0894L5.67822 64.6058H11.0189L8.35747 59.0894ZM10.616 69.7016V68.827H11.6157C12.7363 68.827 12.7704 68.1611 12.5437 67.6879L11.5975 65.7268H5.10084C4.6445 66.6545 4.33047 67.2672 4.33047 67.7583C4.33047 68.827 5.20499 68.827 5.7314 68.827H6.51865V69.7016H0.880859V68.827H1.14297C2.31713 68.827 2.87731 67.9147 3.49004 66.6545L8.4463 56.4464H9.46126L14.6443 67.0742C15.3102 68.4414 15.5554 68.827 16.4493 68.827H16.9394V69.7016H10.616Z" fill="white"/>
<path d="M31.9511 69.7022V68.8277H32.724C33.9307 68.8277 34.0349 68.5475 34.0349 67.6013V57.5677L28.6942 69.7022H27.9072L22.2851 57.548V66.7255C22.2851 68.2306 22.9169 68.8277 24.0182 68.8277H24.3857V69.7022H19.2027V68.8277H19.5718C20.7628 68.8277 21.2357 68.0742 21.2357 67.0058V58.8279C21.2357 57.9168 21.095 57.6369 19.9393 57.6369H19.2027V56.7611H24.2815L28.9053 66.6733L33.2479 56.7611H38.3265V57.6369H37.6268C36.4342 57.6369 36.3131 57.8818 36.3131 58.8448V67.6013C36.3131 68.5812 36.4342 68.8277 37.6268 68.8277H38.3787V69.7022H31.9511Z" fill="white"/>
<path d="M48.6306 63.5039H45.0924V67.6013C45.0924 68.5812 45.1978 68.8277 46.2497 68.8277H48.5433C50.5554 68.8277 51.5719 68.0211 51.5719 66.2523C51.5719 64.3954 50.4512 63.5039 48.6306 63.5039ZM48.4548 57.6369H46.4424C45.1978 57.6369 45.0924 57.8818 45.0924 58.8448V62.6269H48.1235C50.2582 62.6269 50.9257 61.4709 50.9257 60.0021C50.9257 58.6181 50.2245 57.6369 48.4548 57.6369ZM49.5586 69.7022H40.767V68.8277H41.5202C42.7113 68.8277 42.817 68.5812 42.817 67.6013V58.7053C42.817 57.8649 42.5874 57.6369 41.6791 57.6369H40.767V56.7611H48.9643C52.5872 56.7611 53.6037 58.1085 53.6037 59.8951C53.6037 61.1906 52.8505 62.3479 50.9426 62.9253C53.2531 63.4504 54.3049 64.5883 54.3049 66.3399C54.3049 68.1433 52.5872 69.7022 49.5586 69.7022Z" fill="white"/>
<path d="M63.6835 59.0894L61.0043 64.6058H66.345L63.6835 59.0894ZM65.9421 69.7016V68.827H66.9417C68.0624 68.827 68.0965 68.1611 67.8698 67.6879L66.9236 65.7268H60.4269C59.9706 66.6545 59.6566 67.2672 59.6566 67.7583C59.6566 68.827 60.5311 68.827 61.0575 68.827H61.8447V69.7016H56.2069V68.827H56.469C57.6432 68.827 58.2034 67.9147 58.8161 66.6545L63.7724 56.4464H64.7873L69.9704 67.0742C70.6363 68.4414 70.8815 68.827 71.7754 68.827H72.2655V69.7016H65.9421Z" fill="white"/>
<path d="M80.2864 69.9993C78.8501 69.9993 76.5722 69.5968 74.9795 68.949L74.7346 65.0262H75.7511C76.2919 68.0914 78.4995 69.0544 80.1975 69.0544C81.8618 69.0544 83.2093 68.214 83.2093 66.9173C83.2093 65.1488 81.1437 64.5361 79.0938 63.7842C76.4846 62.8211 74.9795 61.8046 74.9795 59.8082C74.9795 59.0547 75.4512 56.4458 80.2329 56.4458C82.1067 56.4458 83.4023 56.8483 84.7497 57.3216L84.9962 60.9639H84.0162C83.5768 58.3888 81.5816 57.3907 79.8835 57.3907C78.3756 57.3907 77.2381 58.1085 77.2381 59.2126C77.2381 60.5967 79.2867 61.1737 81.3536 61.9807C83.4191 62.803 85.4863 63.8714 85.4863 66.2695C85.4863 68.4067 83.436 69.9993 80.2864 69.9993Z" fill="white"/>
<path d="M94.0254 69.9993C92.5894 69.9993 90.3112 69.5968 88.7188 68.949L88.4736 65.0262H89.4901C90.0309 68.0914 92.2388 69.0544 93.9369 69.0544C95.6012 69.0544 96.9486 68.214 96.9486 66.9173C96.9486 65.1488 94.883 64.5361 92.8331 63.7842C90.2239 62.8211 88.7188 61.8046 88.7188 59.8082C88.7188 59.0547 89.1905 56.4458 93.9719 56.4458C95.8461 56.4458 97.1416 56.8483 98.489 57.3216L98.7355 60.9639H97.7553C97.3161 58.3888 95.3209 57.3907 93.6228 57.3907C92.115 57.3907 90.9771 58.1085 90.9771 59.2126C90.9771 60.5967 93.0258 61.1737 95.0929 61.9807C97.1585 62.803 99.2253 63.8714 99.2253 66.2695C99.2253 68.4067 97.1754 69.9993 94.0254 69.9993Z" fill="white"/>
<path d="M108.708 59.0894L106.028 64.6058H111.369L108.708 59.0894ZM110.966 69.7016V68.827H111.966C113.087 68.827 113.12 68.1611 112.894 67.6879L111.947 65.7268H105.451C104.995 66.6545 104.681 67.2672 104.681 67.7583C104.681 68.827 105.555 68.827 106.082 68.827H106.869V69.7016H101.231V68.827H101.493C102.667 68.827 103.228 67.9147 103.84 66.6545L108.796 56.4464H109.812L114.995 67.0742C115.66 68.4414 115.905 68.827 116.8 68.827H117.289V69.7016H110.966Z" fill="white"/>
<path d="M126.366 57.6371H125.175C123.985 57.6371 123.878 57.8808 123.878 58.8451V67.6003C123.878 68.5646 123.985 68.828 125.175 68.828H126.47C129.64 68.828 131.076 67.5312 131.076 63.2239C131.076 59.0381 129.448 57.6371 126.366 57.6371ZM127.346 69.7025H119.553V68.828H120.306C121.446 68.828 121.603 68.5987 121.603 67.6003V58.8451C121.603 57.8808 121.497 57.6371 120.306 57.6371H119.553V56.7601H127.311C133.108 56.7601 133.808 61.1218 133.808 63.2408C133.808 67.3032 131.673 69.7025 127.346 69.7025Z" fill="white"/>
<path d="M143.855 57.391C141.947 57.391 139.267 58.3709 139.267 63.2581C139.267 67.5472 141.474 69.0551 143.768 69.0551C146.272 69.0551 148.391 67.5472 148.391 63.1877C148.391 58.2486 145.676 57.391 143.855 57.391ZM143.96 70C138.706 70 136.535 66.6023 136.535 63.1173C136.535 59.5101 139.022 56.4461 143.872 56.4461C147.619 56.4461 151.121 58.4244 151.121 63.3456C151.121 68.2666 147.113 70 143.96 70Z" fill="white"/>
<path d="M160.152 57.6371H158.629C157.438 57.6371 157.332 57.8808 157.332 58.8451V62.8029H159.783C161.465 62.8029 162.832 62.5046 162.832 60.2632C162.832 58.3199 161.745 57.6371 160.152 57.6371ZM163.916 69.7025L160.834 64.973C160.256 64.0816 159.872 63.6775 158.802 63.6775H157.332V67.6003C157.332 68.5646 157.438 68.828 158.629 68.828H159.52V69.7025H153.008V68.828H153.76C154.95 68.828 155.057 68.5646 155.057 67.6003V58.8451C155.057 57.8285 154.916 57.6371 153.76 57.6371H153.008V56.7601H160.483C162.813 56.7601 165.563 57.3203 165.563 60.1928C165.563 61.7514 164.582 63.1705 162.077 63.4507C162.445 63.6083 162.725 63.8523 163.146 64.5013L165.3 67.8637C165.756 68.5646 166.124 68.828 166.701 68.828H167.121V69.7025H163.916Z" fill="white"/>
<path d="M87.1376 29.8986H86.7738V29.0632H87.1376C87.6747 29.0632 88.1579 28.8323 88.4331 28.4467C88.6427 28.1496 88.6949 27.8055 88.5801 27.4758L82.7809 10.9275C82.618 10.4583 82.0916 10.1311 81.5023 10.1311H80.2278V9.29571H81.5023C82.455 9.29571 83.2864 9.84057 83.5695 10.651L89.3674 27.1997C89.572 27.7833 89.4794 28.4142 89.1147 28.929C88.6834 29.5361 87.9443 29.8986 87.1376 29.8986Z" fill="#D9954C"/>
<path d="M94.607 29.8986H93.963C92.4436 29.8986 91.1208 29.0385 90.6726 27.7586L84.916 11.33C84.7611 10.8868 84.83 10.4086 85.1077 10.0188C85.4283 9.56688 85.9769 9.29571 86.5765 9.29571H87.7428V10.1311H86.5765C86.2468 10.1311 85.9534 10.2691 85.788 10.5024C85.7189 10.6003 85.616 10.8024 85.7032 11.0538L91.4596 27.4824C91.7855 28.4129 92.8151 29.0632 93.963 29.0632H94.607V29.8986Z" fill="#D9954C"/>
<path d="M79.423 29.8986H73.3955V29.0632H74.2478C75.4363 29.0632 76.5035 28.3895 76.8426 27.4236L82.5401 11.162C82.6133 10.9522 82.5792 10.732 82.445 10.5427C82.2627 10.2847 81.9368 10.1311 81.5758 10.1311H80.5384V9.29571H81.5758C82.208 9.29571 82.7866 9.58096 83.1266 10.0595C83.4172 10.4699 83.4903 10.9716 83.3274 11.437L77.6295 27.6985C77.4419 28.2356 77.1044 28.701 76.664 29.0632H79.423V29.8986Z" fill="#D9954C"/>
<path d="M87.2155 21.9009H78.9647V22.7363H87.2155V21.9009Z" fill="#D9954C"/>
<path d="M68.1271 15.4005C75.274 10.2147 81.9518 5.31595 83.8647 0.925194C83.8988 0.847 83.9651 0.835426 84.0005 0.835426C83.9926 0.83918 84.1021 0.844497 84.1371 0.923943C84.6338 2.06558 85.4561 3.2413 86.5208 4.44674C86.8217 4.37512 87.1217 4.29411 87.4175 4.19527C86.2797 2.95042 85.4052 1.74498 84.9022 0.591774C84.7433 0.226764 84.3992 0 84.0017 0H84.0005C83.6042 0 83.2589 0.225513 83.0997 0.590523C81.309 4.70072 74.9221 9.43553 68.0135 14.4503C68.037 14.763 68.0761 15.0799 68.1271 15.4005Z" fill="#D9954C"/>
<path d="M79.7561 37.9401C79.8552 37.9063 79.9581 37.8866 80.057 37.8553C76.9086 34.7654 72.4046 31.4944 67.7273 28.102C66.8162 27.4414 65.9001 26.7752 64.9865 26.1081C63.6337 25.1163 62.8558 23.5812 62.853 21.8959C62.8558 20.211 63.6337 18.6759 64.9865 17.6841C65.2877 17.4639 65.5873 17.2474 65.8882 17.0285C65.8166 16.7301 65.7474 16.4317 65.6943 16.1371C65.2939 16.4289 64.8939 16.7182 64.4938 17.0104C62.9234 18.1598 62.0204 19.9398 62.0176 21.8959C62.0204 23.8508 62.9234 25.6311 64.4938 26.7806C65.4087 27.4505 66.3261 28.1164 67.2372 28.777C71.7321 32.0377 76.0706 35.1852 79.1487 38.1265C79.3507 38.0693 79.5528 38.0092 79.7561 37.9401Z" fill="#D9954C"/>
<path d="M103.507 17.0104C102.591 16.3392 101.672 15.6733 100.758 15.0099C96.5465 11.9537 92.4789 8.99924 89.4503 6.21834C89.14 6.29247 88.8272 6.37973 88.5107 6.48013C91.6203 9.40741 95.8663 12.4933 100.269 15.6864C101.181 16.3482 102.1 17.0141 103.014 17.6841C104.368 18.6747 105.146 20.2098 105.149 21.895C105.146 23.5812 104.368 25.1166 103.014 26.1069C102.915 26.18 102.815 26.2529 102.714 26.3258C102.794 26.6204 102.861 26.9135 102.922 27.2069C103.117 27.0649 103.312 26.9241 103.507 26.7806C105.079 25.6311 105.982 23.8511 105.985 21.8963V21.895C105.982 19.9402 105.079 18.1598 103.507 17.0104Z" fill="#D9954C"/>
<path d="M100.507 27.9316C100.427 27.9888 100.348 28.0476 100.269 28.1048C92.9743 33.3973 86.0854 38.3952 84.1359 42.8666C84.1021 42.9461 83.9923 42.9489 84.0004 42.9567C83.9651 42.9567 83.8985 42.9448 83.8647 42.8666C83.4503 41.9167 82.8025 40.9418 81.9868 39.9475C81.6818 40.0035 81.3809 40.0764 81.0822 40.1599C81.9752 41.2052 82.6724 42.2217 83.0997 43.2004C83.2589 43.5651 83.6042 43.7918 84.0004 43.7918H84.0017C84.3992 43.7906 84.7433 43.5638 84.9022 43.2004C86.7513 38.9557 93.4995 34.0476 100.664 28.8505C100.628 28.5493 100.567 28.2406 100.507 27.9316Z" fill="#D9954C"/>
<path d="M66.7286 25.6064C66.6282 25.9048 66.5385 26.2019 66.4562 26.499C66.6998 26.6764 66.9423 26.8522 67.1862 27.0295C67.2813 26.6463 67.3895 26.2607 67.5196 25.8735C68.3851 23.3087 68.3851 20.4834 67.5196 17.9186C66.094 13.6908 66.743 9.66509 69.2568 7.15131C71.5454 4.86272 75.0876 4.12645 78.8903 5.08698C79.129 4.85897 79.3635 4.6322 79.5862 4.40669C75.309 3.17779 71.2664 3.96099 68.6666 6.56078C65.9232 9.30415 65.1973 13.6505 66.7286 18.1857C67.5365 20.5785 67.5365 23.2136 66.7286 25.6064Z" fill="#D9954C"/>
<path d="M81.6728 5.83735C83.7671 6.23363 85.9537 6.0982 87.979 5.4151C92.2043 3.98821 96.2285 4.63722 98.7451 7.15257C100.595 9.00171 101.431 11.6722 101.177 14.637C101.202 14.6551 101.225 14.672 101.249 14.6889C101.483 14.8597 101.721 15.033 101.955 15.2038C102.375 11.7986 101.469 8.6955 99.3356 6.56205C96.591 3.81744 92.2471 3.0943 87.7106 4.62408C85.9878 5.20554 84.1396 5.36036 82.3465 5.10514C82.1276 5.34879 81.9086 5.59244 81.6728 5.83735Z" fill="#D9954C"/>
<path d="M86.9215 38.0749C85.9647 37.8456 84.9835 37.7271 84.0008 37.7271C82.6533 37.7271 81.3059 37.9435 80.0235 38.3761C75.7957 39.8018 71.7712 39.1527 69.2574 36.6402C67.5487 34.9315 66.7042 32.5259 66.7837 29.8348C66.7721 29.8254 66.7602 29.8176 66.7474 29.8085C66.4919 29.6237 66.2363 29.436 65.9811 29.2509C65.7515 32.3943 66.673 35.2365 68.6669 37.2304C71.4115 39.9738 75.7566 40.6985 80.2906 39.1671C82.2114 38.5194 84.2876 38.4008 86.2697 38.793C86.4795 38.5547 86.6935 38.3161 86.9215 38.0749Z" fill="#D9954C"/>
<path d="M101.273 18.1852C101.308 18.081 101.335 17.9778 101.368 17.8736C101.131 17.7016 100.892 17.5283 100.655 17.355C100.6 17.5427 100.545 17.7304 100.482 17.918C99.6161 20.4828 99.6161 23.3081 100.482 25.8729C101.907 30.1007 101.258 34.1249 98.7444 36.639C96.5706 38.8128 93.268 39.5894 89.683 38.84C89.4406 39.0721 89.2035 39.3054 88.9792 39.5347C90.109 39.8149 91.2193 39.9557 92.2868 39.9557C95.0574 39.9557 97.539 39.0251 99.3346 37.2292C102.079 34.4861 102.804 30.141 101.273 25.607C100.466 23.213 100.466 20.5779 101.273 18.1852Z" fill="#D9954C"/>
</svg>
