<svg width="219" height="44" viewBox="0 0 219 44" fill="none" xmlns="http://www.w3.org/2000/svg">
<path d="M25.12 30.0026H24.7563V29.1672H25.12C25.6571 29.1672 26.1403 28.9363 26.4156 28.5507C26.6251 28.2536 26.6773 27.9095 26.5626 27.5798L20.7634 11.0315C20.6004 10.5623 20.074 10.2351 19.4847 10.2351H18.2102V9.39971H19.4847C20.4375 9.39971 21.2688 9.94457 21.5519 10.755L27.3498 27.3037C27.5544 27.8873 27.4618 28.5182 27.0971 29.033C26.6658 29.6401 25.9267 30.0026 25.12 30.0026Z" fill="#D9954C"/>
<path d="M32.5894 30.0026H31.9454C30.426 30.0026 29.1032 29.1425 28.655 27.8626L22.8984 11.434C22.7436 10.9908 22.8124 10.5126 23.0901 10.1228C23.4107 9.67089 23.9593 9.39971 24.5589 9.39971H25.7253V10.2351H24.5589C24.2292 10.2351 23.9359 10.3731 23.7704 10.6064C23.7013 10.7043 23.5984 10.9064 23.6856 11.1578L29.442 27.5864C29.7679 28.5169 30.7976 29.1672 31.9454 29.1672H32.5894V30.0026Z" fill="#D9954C"/>
<path d="M17.4054 30.0026H11.3779V29.1672H12.2302C13.4188 29.1672 14.486 28.4935 14.825 27.5276L20.5226 11.266C20.5957 11.0562 20.5616 10.836 20.4275 10.6468C20.2451 10.3887 19.9192 10.2351 19.5583 10.2351H18.5208V9.39971H19.5583C20.1904 9.39971 20.769 9.68497 21.109 10.1635C21.3996 10.5739 21.4728 11.0756 21.3098 11.541L15.612 27.8025C15.4243 28.3396 15.0868 28.805 14.6464 29.1672H17.4054V30.0026Z" fill="#D9954C"/>
<path d="M25.1979 22.0049H16.9472V22.8403H25.1979V22.0049Z" fill="#D9954C"/>
<path d="M6.10948 15.5045C13.2564 10.3187 19.9342 5.41995 21.8471 1.0292C21.8812 0.951004 21.9475 0.93943 21.9829 0.93943C21.9751 0.943184 22.0845 0.948501 22.1196 1.02795C22.6163 2.16958 23.4385 3.34531 24.5032 4.55075C24.8041 4.47912 25.1041 4.39811 25.4 4.29927C24.2621 3.05442 23.3876 1.84898 22.8846 0.695778C22.7257 0.330768 22.3817 0.104004 21.9841 0.104004H21.9829C21.5866 0.104004 21.2413 0.329517 21.0821 0.694527C19.2914 4.80472 12.9045 9.53953 5.99594 14.5543C6.0194 14.8671 6.0585 15.1839 6.10948 15.5045Z" fill="#D9954C"/>
<path d="M17.7385 38.0441C17.8376 38.0103 17.9405 37.9906 18.0394 37.9593C14.891 34.8694 10.387 31.5984 5.70973 28.206C4.79861 27.5455 3.88249 26.8792 2.96887 26.2121C1.61611 25.2203 0.838245 23.6852 0.83543 21.9999C0.838245 20.315 1.61611 18.7799 2.96887 17.7881C3.27008 17.5679 3.56971 17.3514 3.87061 17.1325C3.79898 16.8341 3.72985 16.5357 3.67668 16.2411C3.27633 16.5329 2.8763 16.8222 2.47626 17.1144C0.905807 18.2638 0.00281499 20.0438 0 21.9999C0.00281499 23.9548 0.905807 25.7351 2.47626 26.8846C3.39113 27.5545 4.3085 28.2204 5.21962 28.881C9.71453 32.1417 14.053 35.2892 17.1311 38.2305C17.3331 38.1733 17.5352 38.1132 17.7385 38.0441Z" fill="#D9954C"/>
<path d="M41.4895 17.1144C40.5734 16.4432 39.6544 15.7773 38.7408 15.1139C34.5289 12.0577 30.4613 9.10324 27.4327 6.32235C27.1224 6.39647 26.8096 6.48374 26.4931 6.58414C29.6027 9.51141 33.8487 12.5973 38.251 15.7904C39.1631 16.4522 40.082 17.1181 40.9969 17.7881C42.3509 18.7787 43.1287 20.3138 43.1316 21.999C43.1287 23.6852 42.3509 25.2206 40.9969 26.2109C40.8977 26.2841 40.7973 26.3569 40.6969 26.4298C40.7767 26.7244 40.843 27.0175 40.9043 27.3109C41.0998 27.1689 41.294 27.0281 41.4895 26.8846C43.0612 25.7351 43.9642 23.9551 43.967 22.0003V21.999C43.9642 20.0442 43.0612 18.2638 41.4895 17.1144Z" fill="#D9954C"/>
<path d="M38.4897 28.0356C38.4099 28.0928 38.3305 28.1516 38.251 28.2088C30.9567 33.5013 24.0678 38.4992 22.1183 42.9706C22.0845 43.0501 21.9747 43.0529 21.9829 43.0607C21.9475 43.0607 21.8809 43.0488 21.8471 42.9706C21.4327 42.0207 20.7849 41.0458 19.9692 40.0515C19.6643 40.1075 19.3634 40.1804 19.0647 40.2639C19.9576 41.3092 20.6548 42.3257 21.0821 43.3044C21.2413 43.6691 21.5866 43.8958 21.9829 43.8958H21.9841C22.3817 43.8946 22.7257 43.6678 22.8846 43.3044C24.7337 39.0597 31.4819 34.1516 38.646 28.9545C38.6107 28.6533 38.5494 28.3446 38.4897 28.0356Z" fill="#D9954C"/>
<path d="M4.71104 25.7104C4.61064 26.0088 4.52087 26.3059 4.43861 26.603C4.68227 26.7804 4.92467 26.9562 5.16864 27.1335C5.26372 26.7504 5.37194 26.3647 5.50206 25.9775C6.36751 23.4127 6.36751 20.5874 5.50206 18.0226C4.07642 13.7948 4.72543 9.76909 7.23921 7.25531C9.5278 4.96672 13.07 4.23045 16.8727 5.19099C17.1114 4.96297 17.346 4.73621 17.5686 4.5107C13.2914 3.2818 9.24882 4.06499 6.64902 6.66479C3.90566 9.40815 3.17969 13.7545 4.71104 18.2897C5.51895 20.6825 5.51895 23.3176 4.71104 25.7104Z" fill="#D9954C"/>
<path d="M19.6552 5.94135C21.7496 6.33764 23.9362 6.2022 25.9614 5.5191C30.1867 4.09221 34.2109 4.74123 36.7275 7.25658C38.5769 9.10571 39.4136 11.7762 39.1593 14.741C39.184 14.7591 39.2075 14.776 39.231 14.7929C39.4655 14.9637 39.7029 15.137 39.9375 15.3078C40.3569 11.9026 39.4515 8.7995 37.318 6.66605C34.5734 3.92144 30.2295 3.1983 25.693 4.72809C23.9703 5.30954 22.1221 5.46437 20.3289 5.20914C20.11 5.45279 19.891 5.69644 19.6552 5.94135Z" fill="#D9954C"/>
<path d="M24.9039 38.1789C23.9471 37.9497 22.9659 37.8311 21.9832 37.8311C20.6358 37.8311 19.2883 38.0475 18.006 38.4801C13.7782 39.9058 9.75365 39.2567 7.23987 36.7442C5.53117 35.0355 4.68667 32.6299 4.76611 29.9388C4.75454 29.9294 4.74265 29.9216 4.72983 29.9125C4.47429 29.7277 4.21876 29.54 3.96353 29.3549C3.73395 32.4983 4.65539 35.3405 6.64934 37.3344C9.39395 40.0778 13.739 40.8025 18.2731 39.2711C20.1938 38.6234 22.27 38.5048 24.2521 38.897C24.462 38.6587 24.6759 38.4201 24.9039 38.1789Z" fill="#D9954C"/>
<path d="M39.255 18.2892C39.2904 18.185 39.3176 18.0818 39.3501 17.9776C39.113 17.8056 38.8744 17.6323 38.6373 17.4591C38.5826 17.6467 38.5278 17.8344 38.464 18.022C37.5986 20.5868 37.5986 23.4121 38.464 25.9769C39.8897 30.2047 39.2406 34.2289 36.7269 36.743C34.5531 38.9168 31.2504 39.6934 27.6654 38.944C27.423 39.1761 27.1859 39.4094 26.9617 39.6387C28.0914 39.9189 29.2018 40.0597 30.2693 40.0597C33.0398 40.0597 35.5214 39.1291 37.3171 37.3332C40.0617 34.5901 40.7864 30.245 39.255 25.711C38.4484 23.317 38.4484 20.6819 39.255 18.2892Z" fill="#D9954C"/>
<path d="M59.4434 17.8665L56.7642 23.3829H62.1048L59.4434 17.8665ZM61.702 28.4787V27.6041H62.7016C63.8223 27.6041 63.8564 26.9382 63.6296 26.465L62.6835 24.5039H56.1868C55.7304 25.4316 55.4164 26.0443 55.4164 26.5354C55.4164 27.6041 56.2909 27.6041 56.8173 27.6041H57.6046V28.4787H51.9668V27.6041H52.2289C53.4031 27.6041 53.9632 26.6918 54.576 25.4316L59.5322 15.2235H60.5472L65.7302 25.8513C66.3961 27.2185 66.6413 27.6041 67.5352 27.6041H68.0254V28.4787H61.702Z" fill="#50535C"/>
<path d="M83.0371 28.4793V27.6048H83.8099C85.0166 27.6048 85.1208 27.3246 85.1208 26.3784V16.3448L79.7801 28.4793H78.9932L73.371 16.3251V25.5026C73.371 27.0077 74.0028 27.6048 75.1041 27.6048H75.4716V28.4793H70.2886V27.6048H70.6577C71.8487 27.6048 72.3217 26.8513 72.3217 25.7829V17.605C72.3217 16.6939 72.1809 16.414 71.0252 16.414H70.2886V15.5382H75.3675L79.9913 25.4504L84.3338 15.5382H89.4124V16.414H88.7127C87.5201 16.414 87.3991 16.6589 87.3991 17.6219V26.3784C87.3991 27.3583 87.5201 27.6048 88.7127 27.6048H89.4646V28.4793H83.0371Z" fill="#50535C"/>
<path d="M99.7165 22.281H96.1784V26.3784C96.1784 27.3583 96.2838 27.6048 97.3356 27.6048H99.6292C101.641 27.6048 102.658 26.7982 102.658 25.0294C102.658 23.1725 101.537 22.281 99.7165 22.281ZM99.5407 16.414H97.5283C96.2838 16.414 96.1784 16.6589 96.1784 17.6219V21.404H99.2095C101.344 21.404 102.012 20.248 102.012 18.7792C102.012 17.3952 101.31 16.414 99.5407 16.414ZM100.644 28.4793H91.853V27.6048H92.6061C93.7972 27.6048 93.9029 27.3583 93.9029 26.3784V17.4824C93.9029 16.642 93.6733 16.414 92.765 16.414H91.853V15.5382H100.05C103.673 15.5382 104.69 16.8856 104.69 18.6722C104.69 19.9677 103.936 21.125 102.029 21.7024C104.339 22.2275 105.391 23.3654 105.391 25.117C105.391 26.9204 103.673 28.4793 100.644 28.4793Z" fill="#50535C"/>
<path d="M114.769 17.8665L112.09 23.3829H117.431L114.769 17.8665ZM117.028 28.4787V27.6041H118.028C119.148 27.6041 119.182 26.9382 118.956 26.465L118.01 24.5039H111.513C111.057 25.4316 110.742 26.0443 110.742 26.5354C110.742 27.6041 111.617 27.6041 112.143 27.6041H112.931V28.4787H107.293V27.6041H107.555C108.729 27.6041 109.289 26.6918 109.902 25.4316L114.858 15.2235H115.873L121.056 25.8513C121.722 27.2185 121.967 27.6041 122.861 27.6041H123.351V28.4787H117.028Z" fill="#50535C"/>
<path d="M131.372 28.7764C129.936 28.7764 127.658 28.3739 126.065 27.7261L125.821 23.8033H126.837C127.378 26.8685 129.585 27.8315 131.283 27.8315C132.948 27.8315 134.295 26.9911 134.295 25.6944C134.295 23.9259 132.23 23.3132 130.18 22.5613C127.571 21.5982 126.065 20.5817 126.065 18.5853C126.065 17.8318 126.537 15.2229 131.319 15.2229C133.193 15.2229 134.488 15.6254 135.836 16.0987L136.082 19.741H135.102C134.663 17.1659 132.668 16.1678 130.969 16.1678C129.462 16.1678 128.324 16.8856 128.324 17.9897C128.324 19.3738 130.373 19.9508 132.44 20.7578C134.505 21.5801 136.572 22.6485 136.572 25.0466C136.572 27.1838 134.522 28.7764 131.372 28.7764Z" fill="#50535C"/>
<path d="M145.111 28.7764C143.675 28.7764 141.397 28.3739 139.805 27.7261L139.56 23.8033H140.576C141.117 26.8685 143.325 27.8315 145.023 27.8315C146.687 27.8315 148.035 26.9911 148.035 25.6944C148.035 23.9259 145.969 23.3132 143.919 22.5613C141.31 21.5982 139.805 20.5817 139.805 18.5853C139.805 17.8318 140.276 15.2229 145.058 15.2229C146.932 15.2229 148.228 15.6254 149.575 16.0987L149.821 19.741H148.841C148.402 17.1659 146.407 16.1678 144.709 16.1678C143.201 16.1678 142.063 16.8856 142.063 17.9897C142.063 19.3738 144.112 19.9508 146.179 20.7578C148.244 21.5801 150.311 22.6485 150.311 25.0466C150.311 27.1838 148.261 28.7764 145.111 28.7764Z" fill="#50535C"/>
<path d="M159.794 17.8665L157.114 23.3829H162.455L159.794 17.8665ZM162.052 28.4787V27.6041H163.052C164.173 27.6041 164.206 26.9382 163.98 26.465L163.033 24.5039H156.537C156.081 25.4316 155.767 26.0443 155.767 26.5354C155.767 27.6041 156.641 27.6041 157.168 27.6041H157.955V28.4787H152.317V27.6041H152.579C153.753 27.6041 154.314 26.6918 154.926 25.4316L159.882 15.2235H160.897L166.08 25.8513C166.746 27.2185 166.991 27.6041 167.886 27.6041H168.375V28.4787H162.052Z" fill="#50535C"/>
<path d="M177.452 16.4142H176.261C175.071 16.4142 174.964 16.6579 174.964 17.6222V26.3774C174.964 27.3417 175.071 27.6051 176.261 27.6051H177.556C180.726 27.6051 182.162 26.3083 182.162 22.001C182.162 17.8152 180.534 16.4142 177.452 16.4142ZM178.432 28.4796H170.639V27.6051H171.392C172.532 27.6051 172.689 27.3758 172.689 26.3774V17.6222C172.689 16.6579 172.583 16.4142 171.392 16.4142H170.639V15.5372H178.397C184.194 15.5372 184.894 19.8989 184.894 22.0179C184.894 26.0803 182.759 28.4796 178.432 28.4796Z" fill="#50535C"/>
<path d="M194.941 16.1681C193.033 16.1681 190.353 17.148 190.353 22.0352C190.353 26.3243 192.56 27.8322 194.854 27.8322C197.357 27.8322 199.477 26.3243 199.477 21.9648C199.477 17.0257 196.762 16.1681 194.941 16.1681ZM195.046 28.7771C189.792 28.7771 187.621 25.3794 187.621 21.8944C187.621 18.2872 190.108 15.2232 194.958 15.2232C198.705 15.2232 202.207 17.2015 202.207 22.1227C202.207 27.0436 198.199 28.7771 195.046 28.7771Z" fill="#50535C"/>
<path d="M211.238 16.4142H209.715C208.524 16.4142 208.418 16.6579 208.418 17.6222V21.58H210.869C212.551 21.58 213.918 21.2817 213.918 19.0403C213.918 17.097 212.831 16.4142 211.238 16.4142ZM215.002 28.4796L211.92 23.7501C211.342 22.8587 210.958 22.4546 209.888 22.4546H208.418V26.3774C208.418 27.3417 208.524 27.6051 209.715 27.6051H210.606V28.4796H204.094V27.6051H204.846C206.036 27.6051 206.142 27.3417 206.142 26.3774V17.6222C206.142 16.6056 206.002 16.4142 204.846 16.4142H204.094V15.5372H211.569C213.899 15.5372 216.649 16.0974 216.649 18.9699C216.649 20.5285 215.668 21.9476 213.163 22.2278C213.531 22.3854 213.811 22.6294 214.232 23.2784L216.386 26.6408C216.842 27.3417 217.21 27.6051 217.787 27.6051H218.207V28.4796H215.002Z" fill="#50535C"/>
</svg>
