<svg width="69" height="33" viewBox="0 0 69 33" fill="none" xmlns="http://www.w3.org/2000/svg">
<g clip-path="url(#clip0_5_636)">
<path fill-rule="evenodd" clip-rule="evenodd" d="M33.805 32.773C33.4963 32.1705 33.1736 31.532 33.056 31.2585C32.3779 29.6935 31.2709 28.0685 29.8542 26.398C30.3277 26.2645 30.8058 26.148 31.2898 26.0585C32.7378 27.8355 33.8502 29.571 34.4851 31.256C37.2506 23.973 48.4405 15.798 60.3025 7.129C60.4286 7.0355 60.5567 6.9415 60.6828 6.85C60.7781 7.3435 60.8734 7.8375 60.931 8.3185C49.5614 16.627 38.8515 24.473 35.9167 31.2585C35.7971 31.532 35.4764 32.1705 35.1677 32.773H33.805ZM68.9727 0C68.383 1.991 67.1668 3.7415 65.4438 5.0105C65.1335 5.2395 64.8252 5.4645 64.515 5.6915C64.4182 5.223 64.3125 4.754 64.1864 4.2835C64.3457 4.1665 64.5051 4.05 64.6619 3.9335C66.034 2.9225 67.0332 1.5565 67.5778 0H68.9727ZM61.1459 0C61.3053 1.0625 61.5559 2.112 61.8975 3.1345C64.3259 10.3825 63.1782 17.328 58.8223 21.7135C55.9719 24.5845 52.0339 26.072 47.6363 26.072C45.9426 26.072 44.1804 25.847 42.3868 25.399C42.7428 25.0325 43.119 24.6595 43.5038 24.2885C49.194 25.4865 54.435 24.245 57.885 20.77C61.8751 16.751 62.9052 10.3175 60.6421 3.5595C60.2539 2.4 59.9754 1.207 59.8066 0H61.1459ZM9.16459 0C8.99631 1.2075 8.71733 2.4005 8.32914 3.5605C8.12214 4.179 7.95039 4.796 7.79948 5.4085C7.41278 5.125 7.02807 4.844 6.64336 4.5605C6.77143 4.0855 6.9144 3.6105 7.07374 3.1335C7.41626 2.1115 7.66694 1.062 7.82678 0H9.16459ZM1.39489 0C1.93945 1.556 2.93821 2.922 4.30878 3.934C5.75827 5.0025 7.21273 6.065 8.65826 7.1215C16.0815 12.5465 23.2297 17.7755 28.227 22.715C28.0696 22.763 27.9063 22.7965 27.7489 22.8505C27.4263 22.959 27.1061 23.055 26.7854 23.1485C21.8998 18.4445 15.0142 13.415 7.8804 8.2025C6.43487 7.1445 4.97892 6.08 3.52694 5.011C1.80542 3.742 0.58923 1.991 0 0L1.39489 0ZM38.0865 24.2135C34.9408 23.5865 31.6457 23.776 28.5973 24.8115C21.4014 27.2595 14.5054 26.101 10.1495 21.7155C6.98488 18.528 5.52248 13.9845 5.88684 8.9595C6.29191 9.255 6.69945 9.555 7.10303 9.851C7.12338 9.8655 7.14224 9.878 7.16061 9.8925C7.03453 14.195 8.37481 18.0405 11.0867 20.772C15.0763 24.7885 21.4635 25.826 28.1733 23.547C30.2086 22.855 32.3471 22.5095 34.4856 22.5095C36.0453 22.5095 37.6025 22.697 39.121 23.0655C38.7591 23.449 38.4216 23.8325 38.0865 24.2135Z" fill="white"/>
</g>
<defs>
<clipPath id="clip0_5_636">
<rect width="69" height="33" fill="white"/>
</clipPath>
</defs>
</svg>
