<svg width="538" height="732" viewBox="0 0 538 732" fill="none" xmlns="http://www.w3.org/2000/svg">
<g opacity="0.1">
<path d="M222.934 499.768H216.853V485.804H222.934C231.912 485.804 239.99 481.946 244.591 475.499C248.094 470.532 248.968 464.781 247.049 459.271L150.103 182.657C147.379 174.815 138.579 169.346 128.728 169.346H107.421V155.382H128.728C144.655 155.382 158.553 164.489 163.285 178.036L260.209 454.654C263.629 464.41 262.081 474.955 255.984 483.561C248.774 493.709 236.419 499.768 222.934 499.768Z" fill="#D9954C"/>
<path d="M347.801 499.768H337.035C311.634 499.768 289.521 485.391 282.029 463.997L185.794 189.386C183.206 181.978 184.356 173.984 188.999 167.469C194.359 159.915 203.53 155.382 213.553 155.382H233.051V169.346H213.553C208.042 169.346 203.138 171.652 200.372 175.552C199.216 177.189 197.496 180.566 198.955 184.77L295.184 459.381C300.633 474.935 317.845 485.804 337.035 485.804H347.801V499.768Z" fill="#D9954C"/>
<path d="M93.9677 499.768H-6.79469V485.804H7.45345C27.3226 485.804 45.1631 474.542 50.831 458.398L146.077 186.579C147.301 183.07 146.731 179.39 144.488 176.227C141.439 171.913 135.991 169.346 129.957 169.346H112.613V155.382H129.957C140.524 155.382 150.197 160.15 155.881 168.149C160.739 175.009 161.962 183.395 159.238 191.174L63.9864 462.993C60.8491 471.97 55.2075 479.75 47.8455 485.804H93.9677V499.768Z" fill="#D9954C"/>
<path d="M224.235 366.084H86.3071V380.048H224.235V366.084Z" fill="#D9954C"/>
<path d="M-94.8673 257.426C24.6088 170.742 136.242 88.8585 168.22 15.465C168.79 14.158 169.899 13.9645 170.49 13.9645C170.359 14.0273 172.189 14.1161 172.775 15.4441C181.078 34.527 194.824 54.1798 212.623 74.3293C217.653 73.132 222.667 71.7779 227.613 70.1258C208.591 49.3176 193.972 29.1681 185.564 9.89177C182.908 3.79046 177.156 0 170.511 0H170.49C163.865 0 158.093 3.76954 155.431 9.87085C125.497 78.5746 18.7264 157.719 -96.7653 241.543C-96.3732 246.771 -95.7196 252.067 -94.8673 257.426Z" fill="#D9954C"/>
<path d="M99.5359 634.186C101.193 633.621 102.914 633.292 104.566 632.769C51.9337 581.12 -23.3598 526.443 -101.55 469.738C-116.781 458.696 -132.096 447.56 -147.369 436.408C-169.983 419.83 -182.987 394.17 -183.034 366C-182.987 337.836 -169.983 312.176 -147.369 295.597C-142.334 291.917 -137.325 288.299 -132.295 284.639C-133.492 279.651 -134.648 274.663 -135.537 269.739C-142.229 274.616 -148.917 279.453 -155.604 284.336C-181.858 303.549 -196.953 333.303 -197 366C-196.953 398.676 -181.858 428.435 -155.604 447.649C-140.31 458.848 -124.974 469.978 -109.743 481.02C-34.6014 535.524 37.9259 588.136 89.3816 637.302C92.7593 636.345 96.1373 635.341 99.5359 634.186Z" fill="#D9954C"/>
<path d="M496.583 284.336C481.268 273.116 465.906 261.986 450.633 250.897C380.223 199.812 312.224 150.426 261.594 103.942C256.408 105.181 251.179 106.64 245.887 108.318C297.871 157.249 368.851 208.83 442.445 262.205C457.692 273.268 473.054 284.399 488.348 295.598C510.983 312.155 523.987 337.815 524.034 365.985C523.987 394.17 510.983 419.835 488.348 436.388C486.691 437.611 485.012 438.829 483.334 440.048C484.667 444.973 485.776 449.871 486.8 454.775C490.068 452.402 493.315 450.049 496.583 447.649C522.858 428.436 537.953 398.682 538 366.006V365.985C537.953 333.309 522.858 303.55 496.583 284.336Z" fill="#D9954C"/>
<path d="M446.435 466.889C445.102 467.845 443.773 468.828 442.445 469.785C320.507 558.251 205.344 641.793 172.754 716.535C172.189 717.863 170.353 717.91 170.489 718.041C169.899 718.041 168.785 717.842 168.22 716.535C161.292 700.657 150.464 684.361 136.827 667.74C131.729 668.676 126.699 669.894 121.706 671.29C136.634 688.763 148.288 705.754 155.431 722.113C158.092 728.21 163.865 732 170.489 732H170.511C177.156 731.979 182.908 728.189 185.564 722.113C216.476 651.162 329.286 569.121 449.049 482.249C448.458 477.214 447.434 472.054 446.435 466.889Z" fill="#D9954C"/>
<path d="M-118.245 428.022C-119.923 433.01 -121.424 437.976 -122.799 442.943C-118.726 445.908 -114.674 448.846 -110.595 451.81C-109.006 445.406 -107.197 438.959 -105.022 432.487C-90.5538 389.616 -90.5538 342.389 -105.022 299.518C-128.854 228.848 -118.005 161.556 -75.9815 119.537C-37.723 81.2826 21.4921 68.9754 85.0628 85.0312C89.0523 81.2198 92.9738 77.4294 96.6966 73.6598C25.194 53.1182 -42.3868 66.2096 -85.8478 109.666C-131.709 155.523 -143.845 228.174 -118.245 303.983C-104.739 343.979 -104.739 388.026 -118.245 428.022Z" fill="#D9954C"/>
<path d="M131.578 97.5738C166.589 104.198 203.143 101.934 236.999 90.5158C307.634 66.6647 374.906 77.5133 416.977 119.558C447.894 150.468 461.881 195.106 457.63 244.664C458.043 244.967 458.435 245.25 458.827 245.532C462.749 248.386 466.717 251.283 470.639 254.137C477.651 197.218 462.513 145.349 426.848 109.688C380.966 63.8102 308.35 51.7225 232.513 77.2936C203.713 87.0129 172.816 89.6009 142.84 85.3346C139.18 89.4074 135.52 93.4801 131.578 97.5738Z" fill="#D9954C"/>
<path d="M219.321 636.439C203.326 632.607 186.924 630.625 170.495 630.625C147.97 630.625 125.445 634.243 104.007 641.474C33.3305 665.304 -33.9474 654.455 -75.9705 612.457C-104.535 583.896 -118.653 543.686 -117.324 498.702C-117.518 498.545 -117.717 498.415 -117.931 498.263C-122.203 495.173 -126.475 492.036 -130.741 488.941C-134.579 541.485 -119.175 588.993 -85.8425 622.323C-39.9605 668.18 32.6768 680.293 108.472 654.696C140.582 643.868 175.29 641.887 208.424 648.443C211.933 644.459 215.509 640.47 219.321 636.439Z" fill="#D9954C"/>
<path d="M459.23 303.973C459.821 302.232 460.275 300.507 460.819 298.766C456.856 295.89 452.866 292.994 448.903 290.097C447.988 293.234 447.073 296.371 446.006 299.508C431.538 342.379 431.538 389.606 446.006 432.477C469.839 503.146 458.989 570.412 416.966 612.437C380.626 648.773 325.416 661.754 265.485 649.227C261.433 653.107 257.469 657.007 253.72 660.839C272.606 665.524 291.168 667.877 309.014 667.877C355.33 667.877 396.814 652.323 426.833 622.302C472.714 576.451 484.83 503.821 459.23 428.033C445.745 388.016 445.745 343.969 459.23 303.973Z" fill="#D9954C"/>
</g>
</svg>
