<svg width="124" height="28" viewBox="0 0 124 28" fill="none" xmlns="http://www.w3.org/2000/svg">
<path d="M25.9527 10.7045C25.8589 10.4081 25.6783 10.1466 25.4341 9.9541C25.1899 9.7616 24.8935 9.64694 24.5833 9.62501L17.9935 9.09235L15.4538 2.94548C15.3353 2.65736 15.1338 2.41095 14.875 2.23754C14.6162 2.06414 14.3117 1.97156 14.0002 1.97156C13.6886 1.97156 13.3841 2.06414 13.1253 2.23754C12.8665 2.41095 12.6651 2.65736 12.5466 2.94548L10.0069 9.09016L3.41705 9.62501C3.10662 9.6471 2.81001 9.76208 2.56579 9.955C2.32158 10.1479 2.14105 10.4098 2.04768 10.7067C1.95035 11.0028 1.94286 11.3211 2.02617 11.6214C2.10948 11.9218 2.27985 12.1907 2.5158 12.3944L7.54705 16.7267L6.0158 23.2072C5.94395 23.5105 5.96369 23.8282 6.07253 24.1203C6.18137 24.4123 6.3744 24.6655 6.62721 24.8478C6.87689 25.0328 7.17662 25.138 7.48714 25.1497C7.79765 25.1615 8.10446 25.0791 8.36737 24.9134L14.0002 21.4506L19.6417 24.9189C19.9046 25.0846 20.2115 25.1669 20.522 25.1552C20.8325 25.1435 21.1322 25.0383 21.3819 24.8533C21.6347 24.671 21.8277 24.4178 21.9366 24.1258C22.0454 23.8337 22.0652 23.5159 21.9933 23.2127L20.4621 16.7322L25.4846 12.3944C25.7209 12.1906 25.8916 11.9212 25.9749 11.6205C26.0582 11.3197 26.0505 11.0009 25.9527 10.7045ZM24.6249 11.4013L19.2994 15.995C19.2085 16.0734 19.1409 16.1752 19.1039 16.2894C19.0669 16.4036 19.0618 16.5257 19.0894 16.6425L20.7169 23.5102C20.7311 23.562 20.7288 23.617 20.7101 23.6674C20.6915 23.7178 20.6575 23.7612 20.613 23.7913C20.5726 23.8225 20.5235 23.8403 20.4726 23.8422C20.4216 23.8442 20.3713 23.8302 20.3286 23.8022L14.3436 20.125C14.2403 20.0616 14.1214 20.028 14.0002 20.028C13.8789 20.028 13.7601 20.0616 13.6567 20.125L7.67174 23.8011C7.6291 23.8291 7.57878 23.8431 7.5278 23.8412C7.47682 23.8392 7.42773 23.8214 7.38737 23.7902C7.34184 23.7608 7.30675 23.7178 7.28711 23.6673C7.26747 23.6169 7.26428 23.5615 7.27799 23.5091L8.90549 16.6414C8.93304 16.5246 8.92803 16.4025 8.89101 16.2883C8.85398 16.1741 8.78636 16.0723 8.69549 15.9939L3.37002 11.4002C3.32824 11.3661 3.2981 11.3199 3.28379 11.268C3.26948 11.2161 3.27171 11.1609 3.29018 11.1103C3.30444 11.0604 3.33392 11.0162 3.37451 10.9839C3.41509 10.9515 3.46476 10.9326 3.51658 10.9299L10.5078 10.3655C10.6283 10.3557 10.7437 10.3128 10.8414 10.2416C10.939 10.1704 11.0151 10.0736 11.0613 9.96188L13.7552 3.44313C13.774 3.39488 13.8069 3.35342 13.8496 3.32419C13.8924 3.29496 13.9429 3.27932 13.9947 3.27932C14.0465 3.27932 14.0971 3.29496 14.1398 3.32419C14.1825 3.35342 14.2155 3.39488 14.2342 3.44313L16.9281 9.96188C16.9743 10.0736 17.0504 10.1704 17.148 10.2416C17.2457 10.3128 17.3611 10.3557 17.4816 10.3655L24.4728 10.9299C24.5247 10.9326 24.5743 10.9515 24.6149 10.9839C24.6555 11.0162 24.685 11.0604 24.6992 11.1103C24.7186 11.1605 24.7218 11.2155 24.7085 11.2677C24.6951 11.3198 24.6659 11.3665 24.6249 11.4013Z" fill="#00433B"/>
<path d="M57.9527 10.7045C57.8589 10.4081 57.6783 10.1466 57.4341 9.9541C57.1899 9.7616 56.8935 9.64694 56.5833 9.62501L49.9935 9.09235L47.4538 2.94548C47.3353 2.65736 47.1338 2.41095 46.875 2.23754C46.6162 2.06414 46.3117 1.97156 46.0002 1.97156C45.6886 1.97156 45.3841 2.06414 45.1253 2.23754C44.8665 2.41095 44.6651 2.65736 44.5466 2.94548L42.0069 9.09016L35.4171 9.62501C35.1066 9.6471 34.81 9.76208 34.5658 9.955C34.3216 10.1479 34.141 10.4098 34.0477 10.7067C33.9503 11.0028 33.9429 11.3211 34.0262 11.6214C34.1095 11.9218 34.2799 12.1907 34.5158 12.3944L39.5471 16.7267L38.0158 23.2072C37.944 23.5105 37.9637 23.8282 38.0725 24.1203C38.1814 24.4123 38.3744 24.6655 38.6272 24.8478C38.8769 25.0328 39.1766 25.138 39.4871 25.1497C39.7977 25.1615 40.1045 25.0791 40.3674 24.9134L46.0002 21.4506L51.6417 24.9189C51.9046 25.0846 52.2115 25.1669 52.522 25.1552C52.8325 25.1435 53.1322 25.0383 53.3819 24.8533C53.6347 24.671 53.8277 24.4178 53.9366 24.1258C54.0454 23.8337 54.0652 23.5159 53.9933 23.2127L52.4621 16.7322L57.4846 12.3944C57.7209 12.1906 57.8916 11.9212 57.9749 11.6205C58.0582 11.3197 58.0505 11.0009 57.9527 10.7045ZM56.6249 11.4013L51.2994 15.995C51.2085 16.0734 51.1409 16.1752 51.1039 16.2894C51.0669 16.4036 51.0618 16.5257 51.0894 16.6425L52.7169 23.5102C52.7311 23.562 52.7288 23.617 52.7101 23.6674C52.6915 23.7178 52.6575 23.7612 52.613 23.7913C52.5726 23.8225 52.5235 23.8403 52.4726 23.8422C52.4216 23.8442 52.3713 23.8302 52.3286 23.8022L46.3436 20.125C46.2403 20.0616 46.1214 20.028 46.0002 20.028C45.8789 20.028 45.7601 20.0616 45.6567 20.125L39.6717 23.8011C39.6291 23.8291 39.5788 23.8431 39.5278 23.8412C39.4768 23.8392 39.4277 23.8214 39.3874 23.7902C39.3418 23.7608 39.3068 23.7178 39.2871 23.6673C39.2675 23.6169 39.2643 23.5615 39.278 23.5091L40.9055 16.6414C40.933 16.5246 40.928 16.4025 40.891 16.2883C40.854 16.1741 40.7864 16.0723 40.6955 15.9939L35.37 11.4002C35.3282 11.3661 35.2981 11.3199 35.2838 11.268C35.2695 11.2161 35.2717 11.1609 35.2902 11.1103C35.3044 11.0604 35.3339 11.0162 35.3745 10.9839C35.4151 10.9515 35.4648 10.9326 35.5166 10.9299L42.5078 10.3655C42.6283 10.3557 42.7437 10.3128 42.8414 10.2416C42.939 10.1704 43.0151 10.0736 43.0613 9.96188L45.7552 3.44313C45.774 3.39488 45.8069 3.35342 45.8496 3.32419C45.8924 3.29496 45.9429 3.27932 45.9947 3.27932C46.0465 3.27932 46.0971 3.29496 46.1398 3.32419C46.1825 3.35342 46.2155 3.39488 46.2342 3.44313L48.9281 9.96188C48.9743 10.0736 49.0504 10.1704 49.148 10.2416C49.2457 10.3128 49.3611 10.3557 49.4816 10.3655L56.4728 10.9299C56.5247 10.9326 56.5743 10.9515 56.6149 10.9839C56.6555 11.0162 56.685 11.0604 56.6992 11.1103C56.7186 11.1605 56.7218 11.2155 56.7085 11.2677C56.6951 11.3198 56.6659 11.3665 56.6249 11.4013Z" fill="#00433B"/>
<path d="M89.9527 10.7045C89.8589 10.4081 89.6783 10.1466 89.4341 9.9541C89.1899 9.7616 88.8935 9.64694 88.5833 9.62501L81.9935 9.09235L79.4538 2.94548C79.3353 2.65736 79.1338 2.41095 78.875 2.23754C78.6162 2.06414 78.3117 1.97156 78.0002 1.97156C77.6886 1.97156 77.3841 2.06414 77.1253 2.23754C76.8665 2.41095 76.6651 2.65736 76.5466 2.94548L74.0069 9.09016L67.4171 9.62501C67.1066 9.6471 66.81 9.76208 66.5658 9.955C66.3216 10.1479 66.141 10.4098 66.0477 10.7067C65.9503 11.0028 65.9429 11.3211 66.0262 11.6214C66.1095 11.9218 66.2799 12.1907 66.5158 12.3944L71.5471 16.7267L70.0158 23.2072C69.944 23.5105 69.9637 23.8282 70.0725 24.1203C70.1814 24.4123 70.3744 24.6655 70.6272 24.8478C70.8769 25.0328 71.1766 25.138 71.4871 25.1497C71.7977 25.1615 72.1045 25.0791 72.3674 24.9134L78.0002 21.4506L83.6417 24.9189C83.9046 25.0846 84.2115 25.1669 84.522 25.1552C84.8325 25.1435 85.1322 25.0383 85.3819 24.8533C85.6347 24.671 85.8277 24.4178 85.9366 24.1258C86.0454 23.8337 86.0652 23.5159 85.9933 23.2127L84.4621 16.7322L89.4846 12.3944C89.7209 12.1906 89.8916 11.9212 89.9749 11.6205C90.0582 11.3197 90.0505 11.0009 89.9527 10.7045ZM88.6249 11.4013L83.2994 15.995C83.2085 16.0734 83.1409 16.1752 83.1039 16.2894C83.0669 16.4036 83.0618 16.5257 83.0894 16.6425L84.7169 23.5102C84.7311 23.562 84.7288 23.617 84.7101 23.6674C84.6915 23.7178 84.6575 23.7612 84.613 23.7913C84.5726 23.8225 84.5235 23.8403 84.4726 23.8422C84.4216 23.8442 84.3713 23.8302 84.3286 23.8022L78.3436 20.125C78.2403 20.0616 78.1214 20.028 78.0002 20.028C77.8789 20.028 77.7601 20.0616 77.6567 20.125L71.6717 23.8011C71.6291 23.8291 71.5788 23.8431 71.5278 23.8412C71.4768 23.8392 71.4277 23.8214 71.3874 23.7902C71.3418 23.7608 71.3068 23.7178 71.2871 23.6673C71.2675 23.6169 71.2643 23.5615 71.278 23.5091L72.9055 16.6414C72.933 16.5246 72.928 16.4025 72.891 16.2883C72.854 16.1741 72.7864 16.0723 72.6955 15.9939L67.37 11.4002C67.3282 11.3661 67.2981 11.3199 67.2838 11.268C67.2695 11.2161 67.2717 11.1609 67.2902 11.1103C67.3044 11.0604 67.3339 11.0162 67.3745 10.9839C67.4151 10.9515 67.4648 10.9326 67.5166 10.9299L74.5078 10.3655C74.6283 10.3557 74.7437 10.3128 74.8414 10.2416C74.939 10.1704 75.0151 10.0736 75.0613 9.96188L77.7552 3.44313C77.774 3.39488 77.8069 3.35342 77.8496 3.32419C77.8924 3.29496 77.9429 3.27932 77.9947 3.27932C78.0465 3.27932 78.0971 3.29496 78.1398 3.32419C78.1825 3.35342 78.2155 3.39488 78.2342 3.44313L80.9281 9.96188C80.9743 10.0736 81.0504 10.1704 81.148 10.2416C81.2457 10.3128 81.3611 10.3557 81.4816 10.3655L88.4728 10.9299C88.5247 10.9326 88.5743 10.9515 88.6149 10.9839C88.6555 11.0162 88.685 11.0604 88.6992 11.1103C88.7186 11.1605 88.7218 11.2155 88.7085 11.2677C88.6951 11.3198 88.6659 11.3665 88.6249 11.4013Z" fill="#00433B"/>
<path d="M121.953 10.7045C121.859 10.4081 121.678 10.1466 121.434 9.9541C121.19 9.7616 120.893 9.64694 120.583 9.62501L113.993 9.09235L111.454 2.94548C111.335 2.65736 111.134 2.41095 110.875 2.23754C110.616 2.06414 110.312 1.97156 110 1.97156C109.689 1.97156 109.384 2.06414 109.125 2.23754C108.867 2.41095 108.665 2.65736 108.547 2.94548L106.007 9.09016L99.4171 9.62501C99.1066 9.6471 98.81 9.76208 98.5658 9.955C98.3216 10.1479 98.141 10.4098 98.0477 10.7067C97.9503 11.0028 97.9429 11.3211 98.0262 11.6214C98.1095 11.9218 98.2799 12.1907 98.5158 12.3944L103.547 16.7267L102.016 23.2072C101.944 23.5105 101.964 23.8282 102.073 24.1203C102.181 24.4123 102.374 24.6655 102.627 24.8478C102.877 25.0328 103.177 25.138 103.487 25.1497C103.798 25.1615 104.104 25.0791 104.367 24.9134L110 21.4506L115.642 24.9189C115.905 25.0846 116.211 25.1669 116.522 25.1552C116.832 25.1435 117.132 25.0383 117.382 24.8533C117.635 24.671 117.828 24.4178 117.937 24.1258C118.045 23.8337 118.065 23.5159 117.993 23.2127L116.462 16.7322L121.485 12.3944C121.721 12.1906 121.892 11.9212 121.975 11.6205C122.058 11.3197 122.05 11.0009 121.953 10.7045ZM120.625 11.4013L115.299 15.995C115.209 16.0734 115.141 16.1752 115.104 16.2894C115.067 16.4036 115.062 16.5257 115.089 16.6425L116.717 23.5102C116.731 23.562 116.729 23.617 116.71 23.6674C116.692 23.7178 116.658 23.7612 116.613 23.7913C116.573 23.8225 116.524 23.8403 116.473 23.8422C116.422 23.8442 116.371 23.8302 116.329 23.8022L110.344 20.125C110.24 20.0616 110.121 20.028 110 20.028C109.879 20.028 109.76 20.0616 109.657 20.125L103.672 23.8011C103.629 23.8291 103.579 23.8431 103.528 23.8412C103.477 23.8392 103.428 23.8214 103.387 23.7902C103.342 23.7608 103.307 23.7178 103.287 23.6673C103.267 23.6169 103.264 23.5615 103.278 23.5091L104.905 16.6414C104.933 16.5246 104.928 16.4025 104.891 16.2883C104.854 16.1741 104.786 16.0723 104.695 15.9939L99.37 11.4002C99.3282 11.3661 99.2981 11.3199 99.2838 11.268C99.2695 11.2161 99.2717 11.1609 99.2902 11.1103C99.3044 11.0604 99.3339 11.0162 99.3745 10.9839C99.4151 10.9515 99.4648 10.9326 99.5166 10.9299L106.508 10.3655C106.628 10.3557 106.744 10.3128 106.841 10.2416C106.939 10.1704 107.015 10.0736 107.061 9.96188L109.755 3.44313C109.774 3.39488 109.807 3.35342 109.85 3.32419C109.892 3.29496 109.943 3.27932 109.995 3.27932C110.046 3.27932 110.097 3.29496 110.14 3.32419C110.183 3.35342 110.215 3.39488 110.234 3.44313L112.928 9.96188C112.974 10.0736 113.05 10.1704 113.148 10.2416C113.246 10.3128 113.361 10.3557 113.482 10.3655L120.473 10.9299C120.525 10.9326 120.574 10.9515 120.615 10.9839C120.655 11.0162 120.685 11.0604 120.699 11.1103C120.719 11.1605 120.722 11.2155 120.708 11.2677C120.695 11.3198 120.666 11.3665 120.625 11.4013Z" fill="#00433B"/>
</svg>
